<svg width="950" height="950" viewBox="0 0 950 950" fill="none" xmlns="http://www.w3.org/2000/svg">
<rect width="950" height="950" fill="white"/>
<path d="M408.689 822.495L537.188 792.1L529.209 789.22L521.262 784.849L513.548 779.088L506.131 771.97L499.145 763.659L492.722 754.289L486.961 743.959L481.895 732.867L477.69 721.179L474.346 709.094L471.929 696.777L470.505 684.46L470.108 672.408L470.671 660.489L472.227 649.232L474.776 638.703L478.253 629.068L482.59 620.459L487.755 613.076L493.483 607.1L401.869 628.77L393.922 627.412L386.174 627.611L378.692 629.366L371.639 632.611L365.15 637.345L359.256 643.471L354.091 650.854L349.754 659.463L346.277 669.097L343.728 679.626L342.172 690.884L341.609 702.671L342.039 714.855L343.463 727.172L345.847 739.489L349.191 751.574L353.429 763.262L358.462 774.353L364.223 784.684L370.646 794.054L377.632 802.364L385.049 809.483L392.763 815.244L400.71 819.614L408.689 822.495Z" fill="#E0D2FF"/>
<path d="M632.015 764.917L639.994 767.798L768.493 737.403L760.48 734.522L752.567 730.152L744.853 724.358L737.436 717.272L730.45 708.962L724.027 699.558L718.232 689.261L713.2 678.17L708.995 666.482L705.651 654.397L703.234 642.08L701.81 629.73L701.38 617.579L701.975 605.792L703.532 594.534L706.081 584.005L709.558 574.37L713.895 565.762L719.06 558.345L724.767 552.407L633.173 574.072L625.227 572.715L617.479 572.914L609.997 574.635L602.944 577.913L596.455 582.615L590.561 588.74L585.396 596.157L581.059 604.765L577.582 614.4L575.033 624.929L573.476 636.186L572.88 647.973L573.311 660.125L574.735 672.475L577.152 684.792L580.496 696.877L584.701 708.564L589.766 719.656L595.528 729.953L601.951 739.356L608.937 747.667L616.354 754.752L624.068 760.547L632.015 764.917Z" fill="#E0D2FF"/>
<path d="M537.188 792.1L537.486 800.179L537.85 803.258L538.678 806.139L539.969 808.622L541.658 810.708L543.678 812.264L545.929 813.224L548.379 813.555L550.896 813.291L628.008 795.047L630.491 794.153L632.875 792.663L635.027 790.643L636.915 788.16L638.438 785.346L639.53 782.267L640.16 779.088L640.292 775.876L639.994 767.798L632.015 764.917L624.068 760.547L616.354 754.752L608.937 747.667L601.951 739.356L595.528 729.953L589.766 719.656L584.701 708.564L580.496 696.877L577.152 684.792L574.735 672.475L573.311 660.125L572.88 647.973L573.476 636.186L575.033 624.929L577.582 614.4L581.059 604.765L585.396 596.157L590.561 588.74L596.455 582.615L602.944 577.913L609.997 574.635L617.479 572.914L625.227 572.715L633.173 574.072L632.875 565.994L632.544 562.914L631.683 560.034L630.392 557.551L628.704 555.465L626.75 553.975L624.432 552.948L621.982 552.617L619.466 552.882L542.353 571.126L539.87 572.02L537.486 573.51L535.334 575.529L533.447 578.012L531.924 580.827L530.864 583.906L530.235 587.118L530.07 590.296L530.368 598.375L493.483 607.1L487.755 613.076L482.59 620.459L478.253 629.068L474.776 638.703L472.227 649.232L470.671 660.489L470.108 672.408L470.505 684.46L471.929 696.777L474.346 709.094L477.69 721.179L481.895 732.867L486.961 743.959L492.722 754.289L499.145 763.659L506.131 771.97L513.548 779.088L521.262 784.849L529.209 789.22L537.188 792.1Z" fill="#D9D9D9"/>
<path d="M409.55 846.731L413.589 846.168L417.563 846.433L421.337 847.493L424.88 849.314L428.058 851.863L430.807 855.108L433.058 858.916L434.78 863.253L435.905 867.955L436.402 872.921L436.667 881L462.36 874.908L462.658 868.518L463.883 862.094L466.068 855.969L469.081 850.307L472.856 845.374L477.193 841.335L481.928 838.355L486.928 836.567L654.562 796.912L692.539 787.928L697.572 787.366L702.439 788.061L707.008 789.981L711.048 793.094L714.392 797.232L717.007 802.298L718.663 807.96L719.358 814.118L745.051 808.059L744.786 799.98L744.919 794.848L745.68 789.716L747.071 784.651L749.024 779.85L751.508 775.38L754.454 771.34L757.799 767.93L761.441 765.083L765.348 762.964L769.354 761.606L768.493 737.403L639.994 767.798L640.292 775.876L640.16 779.088L639.53 782.267L638.438 785.346L636.915 788.16L635.027 790.643L632.875 792.663L630.491 794.153L628.008 795.047L550.896 813.291L548.379 813.555L545.929 813.224L543.678 812.264L541.658 810.708L539.969 808.622L538.678 806.139L537.85 803.258L537.486 800.179L537.188 792.1L408.689 822.495L409.55 846.731Z" fill="#B3B3B3"/>
<path d="M425.575 566.192L425.443 571.324L424.681 576.456L423.291 581.522L421.337 586.323L418.854 590.793L415.907 594.832L412.563 598.276L408.921 601.09L405.014 603.209L401.008 604.566L401.869 628.77L493.483 607.1L530.368 598.375L530.07 590.296L530.235 587.118L530.864 583.906L531.924 580.827L533.447 578.012L535.334 575.529L537.486 573.51L539.87 572.02L542.353 571.126L619.466 552.882L621.982 552.617L624.432 552.948L626.75 553.975L628.704 555.465L630.392 557.551L631.683 560.034L632.544 562.914L632.875 565.994L633.173 574.072L724.767 552.407L761.672 543.678L760.812 519.474L756.772 520.004L752.799 519.772L749.024 518.713L747.104 517.708L745.482 516.859L742.303 514.309L739.555 511.065L737.304 507.257L735.582 502.92L734.489 498.218L733.993 493.251L425.575 566.192Z" fill="#B3B3B3"/>
<path d="M332.766 651.251L334.755 640.888L337.139 631.485L340.02 622.545L343.364 614.135L347.138 606.222L351.343 598.905L355.945 592.183L360.945 586.124L366.309 580.727L372.004 576.059L377.996 572.119L384.254 568.94L390.744 566.523L397.432 564.868M332.766 651.251L333.464 649.066L336.113 642.411L339.092 636.153L342.403 630.392L346.046 625.061L349.986 620.294L354.224 616.056L358.727 612.347L363.428 609.235L368.361 606.719L373.494 604.798L378.791 603.507L384.221 602.845L389.75 602.779L395.346 603.375L401.008 604.566M332.766 651.251L331.212 656.118L329.292 663.535L327.802 671.25L326.676 679.262L325.981 687.473L325.864 690.784M397.432 564.868L404.286 564.007L411.305 563.941L418.423 564.669L425.575 566.192M397.432 564.868L705.816 491.927L712.703 491.066L719.689 491L726.808 491.728L733.993 493.251M425.575 566.192L425.443 571.324L424.681 576.456L423.291 581.522L421.337 586.323L418.854 590.793L415.907 594.832L412.563 598.276L408.921 601.09L405.014 603.209L401.008 604.566M425.575 566.192L733.993 493.251M401.008 604.566L401.869 628.77M409.55 846.731L403.855 844.91L398.193 842.493L392.565 839.447L386.969 835.871L381.506 831.7L376.142 826.998L370.911 821.767L365.878 816.072L361.077 809.946L356.442 803.291L352.071 796.305L347.999 788.955L344.191 781.273L340.715 773.327L337.536 765.116L334.755 756.706L332.305 748.164L330.219 739.489L328.497 730.715L328.273 729.192M409.55 846.731L413.589 846.168L417.563 846.433L421.337 847.493L424.88 849.314L428.058 851.863L430.807 855.108L433.058 858.916L434.78 863.253L435.905 867.955L436.402 872.921L436.667 881M409.55 846.731L408.689 822.495M436.667 881L182.251 813.357L180 748.826L180.166 742.601L181.159 736.873L182.947 731.807L185.397 727.602L188.476 724.457L192.019 722.437M436.667 881L462.36 874.908L462.658 868.518L463.883 862.094L466.068 855.969L469.081 850.307L472.856 845.374L477.193 841.335L481.928 838.355L486.928 836.567L654.562 796.912M192.019 722.437L195.926 721.643L200.065 722.139L300.751 748.892L306.248 749.654L311.545 748.892L316.412 746.641L320.816 742.998L324.524 738.098L327.438 732.006L328.273 729.192M192.019 722.437L325.864 690.784M328.273 729.192L327.206 721.941L326.279 713.2L325.782 704.492L325.683 695.916L325.864 690.784M408.689 822.495L537.188 792.1M408.689 822.495L400.71 819.614L392.763 815.244L385.049 809.483L377.632 802.364L370.646 794.054L364.223 784.684L358.462 774.353L353.429 763.262L349.191 751.574L345.847 739.489L343.463 727.172L342.039 714.855L341.609 702.671L342.172 690.884L343.728 679.626L346.277 669.097L349.754 659.463L354.091 650.854L359.256 643.471L365.15 637.345L371.639 632.611L378.692 629.366L386.174 627.611L393.922 627.412L401.869 628.77M537.188 792.1L537.486 800.179L537.85 803.258L538.678 806.139L539.969 808.622L541.658 810.708L543.678 812.264L545.929 813.224L548.379 813.555L550.896 813.291L628.008 795.047L630.491 794.153L632.875 792.663L635.027 790.643L636.915 788.16L638.438 785.346L639.53 782.267L640.16 779.088L640.292 775.876L639.994 767.798M537.188 792.1L529.209 789.22L521.262 784.849L513.548 779.088L506.131 771.97L499.145 763.659L492.722 754.289L486.961 743.959L481.895 732.867L477.69 721.179L474.346 709.094L471.929 696.777L470.505 684.46L470.108 672.408L470.671 660.489L472.227 649.232L474.776 638.703L478.253 629.068L482.59 620.459L487.755 613.076L493.483 607.1M639.994 767.798L632.015 764.917L624.068 760.547L616.354 754.752L608.937 747.667L601.951 739.356L595.528 729.953L589.766 719.656L584.701 708.564L580.496 696.877L577.152 684.792L574.735 672.475L573.311 660.125L572.88 647.973L573.476 636.186L575.033 624.929L577.582 614.4L581.059 604.765L585.396 596.157L590.561 588.74L596.455 582.615L602.944 577.913L609.997 574.635L617.479 572.914L625.227 572.715L633.173 574.072M639.994 767.798L768.493 737.403M633.173 574.072L632.875 565.994L632.544 562.914L631.683 560.034L630.392 557.551L628.704 555.465L626.75 553.975L624.432 552.948L621.982 552.617L619.466 552.882L542.353 571.126L539.87 572.02L537.486 573.51L535.334 575.529L533.447 578.012L531.924 580.827L530.864 583.906L530.235 587.118L530.07 590.296L530.368 598.375L493.483 607.1M633.173 574.072L724.767 552.407M401.869 628.77L493.483 607.1M733.993 493.251L734.489 498.218L735.582 502.92L737.304 507.257L739.555 511.065L742.303 514.309L745.482 516.859L747.104 517.708M719.358 814.118L718.663 807.96L717.007 802.298L714.392 797.232L711.048 793.094L707.008 789.981L702.439 788.061L697.572 787.366L692.539 787.928L654.562 796.912M719.358 814.118L745.051 808.059L744.786 799.98L744.919 794.848L745.68 789.716L747.071 784.651L749.024 779.85L751.508 775.38L754.454 771.34L757.799 767.93L761.441 765.083L765.348 762.964L769.354 761.606L768.493 737.403M719.358 814.118L654.562 796.912M768.493 737.403L760.48 734.522L752.567 730.152L744.853 724.358L737.436 717.272L730.45 708.962L724.027 699.558L718.232 689.261L713.2 678.17L708.995 666.482L705.651 654.397L703.234 642.08L701.81 629.73L701.38 617.579L701.975 605.792L703.532 594.534L706.081 584.005L709.558 574.37L713.895 565.762L719.06 558.345L724.767 552.407M760.812 519.474L761.672 543.678L724.767 552.407M760.812 519.474L756.772 520.004L752.799 519.772L749.024 518.713L747.104 517.708M760.812 519.474L755.15 518.249L749.554 517.686L747.104 517.708M724.788 552.386L724.767 552.407" stroke="black" stroke-linecap="round" stroke-linejoin="round"/>
<path d="M332.766 651.251L334.755 640.888L337.139 631.485L340.02 622.545L343.364 614.135L347.138 606.222L351.343 598.905L355.945 592.183L360.945 586.124L366.309 580.727L372.004 576.059L377.996 572.119L384.254 568.94L390.744 566.523L397.432 564.868L705.816 491.927L712.703 491.066L719.689 491L726.808 491.728L733.993 493.251L734.489 498.218L735.582 502.92L737.304 507.257L739.555 511.065L742.303 514.309L745.482 516.859L747.104 517.708L749.554 517.686L755.15 518.249L760.812 519.474L761.672 543.678L724.767 552.407M332.766 651.251L333.464 649.066M332.766 651.251L331.212 656.118L329.292 663.535L327.802 671.25L326.676 679.262L325.981 687.473L325.864 690.784L192.019 722.437M192.019 722.437L188.476 724.457L185.397 727.602L182.947 731.807L181.159 736.873L180.166 742.601L180 748.826L182.251 813.357L436.667 881L462.36 874.908L462.658 868.518L463.883 862.094L466.068 855.969L469.081 850.307L472.856 845.374L477.193 841.335L481.928 838.355L486.928 836.567L654.562 796.912L719.358 814.118L745.051 808.059L744.786 799.98L744.919 794.848L745.68 789.716L747.071 784.651L749.024 779.85L751.508 775.38L754.454 771.34L757.799 767.93L761.441 765.083L765.348 762.964L769.354 761.606L768.493 737.403L760.48 734.522L752.567 730.152L744.853 724.358L737.436 717.272L730.45 708.962L724.027 699.558L718.232 689.261L713.2 678.17L708.995 666.482L705.651 654.397L703.234 642.08L701.81 629.73L701.38 617.579L701.975 605.792L703.532 594.534L706.081 584.005L709.558 574.37L713.895 565.762L719.06 558.345L724.767 552.407M192.019 722.437L195.926 721.643M724.788 552.386L724.767 552.407" stroke="black" stroke-width="2" stroke-linecap="round" stroke-linejoin="round"/>
<path d="M540.094 350.754L540.42 347.559V339.377V142.441L540.42 134.226L540.094 131.031L539.148 127.934L537.649 125.098L535.595 122.62L533.117 120.566L530.281 119.067L527.184 118.121L523.989 117.828H425.538L422.343 118.121L419.246 119.067L416.41 120.566L413.932 122.62L411.879 125.098L410.379 127.934L409.434 131.031L409.108 134.226V142.441L409 339.376L409.108 347.559L409.434 350.754L410.379 353.851L411.879 356.687L413.932 359.165L416.41 361.218L419.246 362.718L422.343 363.663L425.538 363.989H523.989L527.184 363.663L530.281 362.718L533.117 361.218L535.595 359.165L537.649 356.687L539.148 353.851L540.094 350.754Z" fill="#D9D9D9"/>
<path d="M310.656 405L311.275 398.61L313.166 392.449L316.198 386.777L320.273 381.789L325.261 377.714L330.933 374.682L337.062 372.824L343.484 372.172H606.043L612.465 372.824L618.594 374.682L624.266 377.714L629.254 381.789L633.329 386.777L636.361 392.449L638.252 398.61L638.871 405L671.699 405V396.817L672.09 391.699L673.297 386.646L675.285 381.887L677.958 377.518L681.316 373.606L685.228 370.249L689.629 367.543L694.356 365.587L699.376 364.381L704.527 363.989V339.377H540.42V347.559L540.094 350.754L539.148 353.851L537.649 356.687L535.595 359.165L533.117 361.218L530.281 362.718L527.184 363.663L523.989 363.989H425.538L422.343 363.663L419.246 362.718L416.41 361.218L413.932 359.165L411.879 356.687L410.379 353.851L409.434 350.754L409.108 347.559L409 339.376H245V363.989L250.151 364.381L255.171 365.587L259.898 367.543L264.299 370.249L268.211 373.606L271.569 377.518L274.242 381.887L276.231 386.646L277.437 391.699L277.828 396.817V405H310.656Z" fill="#B3B3B3"/>
<path d="M311.275 398.61L310.656 405H638.871L638.252 398.61L636.361 392.449L633.329 386.777L629.254 381.789L624.266 377.714L618.594 374.682L612.465 372.824L606.043 372.172H343.484L337.062 372.824L330.933 374.682L325.261 377.714L320.273 381.789L316.198 386.777L313.166 392.449L311.275 398.61Z" fill="#D9D9D9"/>
<path d="M250.151 117.404L245 117.828V142.441H409.108V134.226L409.434 131.031L410.379 127.934L411.879 125.098L413.932 122.62L416.41 120.566L419.246 119.067L422.343 118.121L425.538 117.828H523.989L527.184 118.121L530.281 119.067L533.117 120.566L535.595 122.62L537.649 125.098L539.148 127.934L540.094 131.031L540.42 134.226L540.42 142.441H704.527V117.828L699.376 117.404L694.356 116.198L689.629 114.242L685.228 111.536L681.316 108.211L677.958 104.299L675.285 99.8981L673.297 95.1385L672.09 90.1182L671.699 85H277.828L277.437 90.1182L276.231 95.1385L274.242 99.8981L271.569 104.299L268.211 108.211L264.299 111.536L259.898 114.242L255.171 116.198L250.151 117.404Z" fill="#B3B3B3"/>
<path d="M704.527 142.441H540.42V339.377H704.527V142.441Z" fill="#E0D2FF"/>
<path d="M245 339.376H409L409.108 142.441H245V339.376Z" fill="#E0D2FF"/>
<path d="M310.656 405L311.275 398.61L313.166 392.449L316.198 386.777L320.273 381.789L325.261 377.714L330.933 374.682L337.062 372.824L343.484 372.172H606.043L612.465 372.824L618.594 374.682L624.266 377.714L629.254 381.789L633.329 386.777L636.361 392.449L638.252 398.61L638.871 405M310.656 405H277.828V396.817L277.437 391.699L276.231 386.646L274.242 381.887L271.569 377.518L268.211 373.606L264.299 370.249L259.898 367.543L255.171 365.587L250.151 364.381L245 363.989V339.376M310.656 405H638.871M704.527 142.441V117.828L699.376 117.404L694.356 116.198L689.629 114.242L685.228 111.536L681.316 108.211L677.958 104.299L675.285 99.8981L673.297 95.1385L672.09 90.1182L671.699 85H277.828L277.437 90.1182L276.231 95.1385L274.242 99.8981L271.569 104.299L268.211 108.211L264.299 111.536L259.898 114.242L255.171 116.198L250.151 117.404L245 117.828V142.441M704.527 142.441H540.42M704.527 142.441V339.377M540.42 142.441L540.42 134.226L540.094 131.031L539.148 127.934L537.649 125.098L535.595 122.62L533.117 120.566L530.281 119.067L527.184 118.121L523.989 117.828H425.538L422.343 118.121L419.246 119.067L416.41 120.566L413.932 122.62L411.879 125.098L410.379 127.934L409.434 131.031L409.108 134.226V142.441M540.42 142.441V339.377M409 339.376L409.108 347.559L409.434 350.754L410.379 353.851L411.879 356.687L413.932 359.165L416.41 361.218L419.246 362.718L422.343 363.663L425.538 363.989H523.989L527.184 363.663L530.281 362.718L533.117 361.218L535.595 359.165L537.649 356.687L539.148 353.851L540.094 350.754L540.42 347.559V339.377M409 339.376H245M409 339.376L409.108 142.441M245 339.376V142.441M245 142.441H409.108M638.871 405L671.699 405V396.817L672.09 391.699L673.297 386.646L675.285 381.887L677.958 377.518L681.316 373.606L685.228 370.249L689.629 367.543L694.356 365.587L699.376 364.381L704.527 363.989V339.377M540.42 339.377H704.527" stroke="black" stroke-linecap="round" stroke-linejoin="round"/>
<path d="M277.828 396.817V405L671.699 405V396.817L672.09 391.699L673.297 386.646L675.285 381.887L677.958 377.518L681.316 373.606L685.228 370.249L689.629 367.543L694.356 365.587L699.376 364.381L704.527 363.989V117.828L699.376 117.404L694.356 116.198L689.629 114.242L685.228 111.536L681.316 108.211L677.958 104.299L675.285 99.8981L673.297 95.1385L672.09 90.1182L671.699 85H277.828L277.437 90.1182L276.231 95.1385L274.242 99.8981L271.569 104.299L268.211 108.211L264.299 111.536L259.898 114.242L255.171 116.198L250.151 117.404L245 117.828V363.989L250.151 364.381L255.171 365.587L259.898 367.543L264.299 370.249L268.211 373.606L271.569 377.518L274.242 381.887L276.231 386.646L277.437 391.699L277.828 396.817Z" stroke="black" stroke-width="2" stroke-linecap="round" stroke-linejoin="round"/>
<mask id="mask0_2031_36" style="mask-type:alpha" maskUnits="userSpaceOnUse" x="244" y="84" width="462" height="322">
<path d="M310.656 405L311.275 398.61L313.166 392.449L316.198 386.777L320.273 381.789L325.261 377.714L330.933 374.682L337.062 372.824L343.484 372.172H606.043L612.465 372.824L618.594 374.682L624.266 377.714L629.254 381.789L633.329 386.777L636.361 392.449L638.252 398.61L638.871 405L671.699 405V396.817L672.09 391.699L673.297 386.646L675.285 381.887L677.958 377.518L681.316 373.606L685.228 370.249L689.629 367.543L694.356 365.587L699.376 364.381L704.527 363.989V339.377H540.42V347.559L540.094 350.754L539.148 353.851L537.649 356.687L535.595 359.165L533.117 361.218L530.281 362.718L527.184 363.663L523.989 363.989H425.538L422.343 363.663L419.246 362.718L416.41 361.218L413.932 359.165L411.879 356.687L410.379 353.851L409.434 350.754L409.108 347.559L409 339.376H245V363.989L250.151 364.381L255.171 365.587L259.898 367.543L264.299 370.249L268.211 373.606L271.569 377.518L274.242 381.887L276.231 386.646L277.437 391.699L277.828 396.817V405H310.656Z" fill="#B3B3B3"/>
<path d="M250.151 117.404L245 117.828V142.441H409.108V134.226L409.434 131.031L410.379 127.934L411.879 125.098L413.932 122.62L416.41 120.566L419.246 119.067L422.343 118.121L425.538 117.828H523.989L527.184 118.121L530.281 119.067L533.117 120.566L535.595 122.62L537.649 125.098L539.148 127.934L540.094 131.031L540.42 134.226L540.42 142.441H704.527V117.828L699.376 117.404L694.356 116.198L689.629 114.242L685.228 111.536L681.316 108.211L677.958 104.299L675.285 99.8981L673.297 95.1385L672.09 90.1182L671.699 85H277.828L277.437 90.1182L276.231 95.1385L274.242 99.8981L271.569 104.299L268.211 108.211L264.299 111.536L259.898 114.242L255.171 116.198L250.151 117.404Z" fill="#B3B3B3"/>
<path d="M310.656 405L311.275 398.61L313.166 392.449L316.198 386.777L320.273 381.789L325.261 377.714L330.933 374.682L337.062 372.824L343.484 372.172H606.043L612.465 372.824L618.594 374.682L624.266 377.714L629.254 381.789L633.329 386.777L636.361 392.449L638.252 398.61L638.871 405L671.699 405V396.817L672.09 391.699L673.297 386.646L675.285 381.887L677.958 377.518L681.316 373.606L685.228 370.249L689.629 367.543L694.356 365.587L699.376 364.381L704.527 363.989V339.377H540.42V347.559L540.094 350.754L539.148 353.851L537.649 356.687L535.595 359.165L533.117 361.218L530.281 362.718L527.184 363.663L523.989 363.989H425.538L422.343 363.663L419.246 362.718L416.41 361.218L413.932 359.165L411.879 356.687L410.379 353.851L409.434 350.754L409.108 347.559L409 339.376H245V363.989L250.151 364.381L255.171 365.587L259.898 367.543L264.299 370.249L268.211 373.606L271.569 377.518L274.242 381.887L276.231 386.646L277.437 391.699L277.828 396.817V405H310.656Z" stroke="black" stroke-linecap="round" stroke-linejoin="round"/>
<path d="M250.151 117.404L245 117.828V142.441H409.108V134.226L409.434 131.031L410.379 127.934L411.879 125.098L413.932 122.62L416.41 120.566L419.246 119.067L422.343 118.121L425.538 117.828H523.989L527.184 118.121L530.281 119.067L533.117 120.566L535.595 122.62L537.649 125.098L539.148 127.934L540.094 131.031L540.42 134.226L540.42 142.441H704.527V117.828L699.376 117.404L694.356 116.198L689.629 114.242L685.228 111.536L681.316 108.211L677.958 104.299L675.285 99.8981L673.297 95.1385L672.09 90.1182L671.699 85H277.828L277.437 90.1182L276.231 95.1385L274.242 99.8981L271.569 104.299L268.211 108.211L264.299 111.536L259.898 114.242L255.171 116.198L250.151 117.404Z" stroke="black" stroke-linecap="round" stroke-linejoin="round"/>
</mask>
<g mask="url(#mask0_2031_36)">
<line x1="238.823" y1="480.444" x2="710.823" y2="8.44403" stroke="black" stroke-width="0.5"/>
<line x1="238.823" y1="370.902" x2="710.823" y2="-101.098" stroke="black" stroke-width="0.5"/>
<line x1="238.823" y1="261.359" x2="710.823" y2="-210.641" stroke="black" stroke-width="0.5"/>
<line x1="238.823" y1="151.823" x2="710.823" y2="-320.177" stroke="black" stroke-width="0.5"/>
<line x1="238.823" y1="809.073" x2="710.823" y2="337.073" stroke="black" stroke-width="0.5"/>
<line x1="238.823" y1="699.53" x2="710.823" y2="227.53" stroke="black" stroke-width="0.5"/>
<line x1="238.823" y1="589.988" x2="710.823" y2="117.988" stroke="black" stroke-width="0.5"/>
</g>
</svg>
