<svg width="950" height="950" viewBox="0 0 950 950" fill="none" xmlns="http://www.w3.org/2000/svg">
<rect width="950" height="950" fill="white"/>
<path d="M183.709 217H129V733.433H183.709V621.763V328.67V217Z" fill="#D9D9D9"/>
<path d="M280.816 621.763V328.67H183.709V621.763H280.816Z" fill="#D9D9D9"/>
<path d="M331.118 586.456L438.812 586.504V363.93L331.118 363.977C293.5 363.93 280.816 328.67 280.816 328.67V621.763C280.816 621.763 293.5 586.456 331.118 586.456Z" fill="#D9D9D9"/>
<path d="M438.812 363.93V586.504C438.814 577.551 446.067 570.295 455.02 570.29C463.978 570.285 471.243 577.546 471.245 586.504V363.929C471.241 372.886 463.977 380.145 455.02 380.14C446.068 380.135 438.815 372.882 438.812 363.93Z" fill="#D9D9D9"/>
<path d="M471.245 586.504H575.394V363.929H471.245V586.504Z" fill="#D9D9D9"/>
<path d="M575.394 586.504L603.994 557.041V393.392L575.394 363.929V586.504Z" fill="#D9D9D9"/>
<path d="M603.994 393.392V557.041L669.913 557V393.392H603.994Z" fill="#D9D9D9"/>
<path d="M701.58 363.929H669.913V393.392V557V586.504H701.58V556.993V393.44V363.929Z" fill="#D9D9D9"/>
<path d="M701.58 556.993H820.005V530.692H749.055V417.968H820.005V393.44H701.58V556.993Z" fill="#D9D9D9"/>
<path d="M749.055 530.692H820.005V417.968H749.055V530.692Z" fill="#D9D9D9"/>
<path d="M280.816 621.763V328.67M280.816 621.763H183.709M280.816 621.763C280.816 621.763 293.5 586.456 331.118 586.456L438.812 586.504M438.812 586.504V363.93M438.812 586.504C438.814 577.551 446.067 570.295 455.02 570.29C463.978 570.285 471.243 577.546 471.245 586.504M438.812 363.93L331.118 363.977C293.5 363.93 280.816 328.67 280.816 328.67M438.812 363.93C438.815 372.882 446.068 380.135 455.02 380.14C463.977 380.145 471.241 372.886 471.245 363.929M280.816 328.67H183.709M183.709 621.763V733.433H129V217H183.709V328.67M183.709 621.763V328.67M471.245 586.504H575.394M471.245 586.504V363.929M471.245 363.929H575.394M575.394 586.504L603.994 557.041M575.394 586.504V363.929M575.394 363.929L603.994 393.392M603.994 557.041V393.392M603.994 557.041L669.913 557M603.994 393.392H669.913M669.913 393.392V557M669.913 393.392V363.929H701.58V393.44M669.913 557V586.504H701.58V556.993M701.58 556.993H820.005V530.692M701.58 556.993V393.44M820.005 530.692H749.055M820.005 530.692V417.968M820.005 530.692L749.055 417.968M749.055 530.692V417.968M749.055 530.692L820.005 417.968M749.055 417.968H820.005M820.005 417.968V393.44H701.58" stroke="black" stroke-linecap="round" stroke-linejoin="round"/>
<path fill-rule="evenodd" clip-rule="evenodd" d="M183.709 328.67H280.816Z" stroke="black" stroke-width="2" stroke-linecap="round" stroke-linejoin="round"/>
<path fill-rule="evenodd" clip-rule="evenodd" d="M603.994 393.392L575.394 363.929Z" stroke="black" stroke-width="2" stroke-linecap="round" stroke-linejoin="round"/>
<path fill-rule="evenodd" clip-rule="evenodd" d="M603.994 557.041L669.913 557Z" stroke="black" stroke-width="2" stroke-linecap="round" stroke-linejoin="round"/>
<path d="M190 653C190 669.569 203.431 683 220 683H505C518.807 683 530 694.193 530 708C530 694.193 541.193 683 555 683H790C806.569 683 820 669.569 820 653" stroke="black" stroke-width="3"/>
<path d="M513.923 733.273V733.153C513.936 731.887 514.069 730.88 514.321 730.131C514.573 729.382 514.931 728.775 515.395 728.311C515.859 727.847 516.416 727.42 517.065 727.028C517.456 726.79 517.808 726.508 518.119 726.183C518.431 725.852 518.676 725.471 518.855 725.04C519.041 724.609 519.133 724.132 519.133 723.608C519.133 722.958 518.981 722.395 518.676 721.918C518.371 721.44 517.963 721.072 517.453 720.814C516.943 720.555 516.376 720.426 515.753 720.426C515.209 720.426 514.685 720.539 514.182 720.764C513.678 720.99 513.257 721.344 512.919 721.828C512.581 722.312 512.385 722.945 512.332 723.727H509.827C509.88 722.6 510.171 721.636 510.702 720.834C511.238 720.032 511.944 719.419 512.819 718.994C513.701 718.57 514.679 718.358 515.753 718.358C516.919 718.358 517.934 718.59 518.795 719.054C519.664 719.518 520.333 720.154 520.804 720.963C521.281 721.772 521.52 722.693 521.52 723.727C521.52 724.456 521.407 725.116 521.182 725.706C520.963 726.296 520.645 726.823 520.227 727.287C519.816 727.751 519.319 728.162 518.736 728.52C518.152 728.884 517.685 729.269 517.334 729.673C516.982 730.071 516.727 730.545 516.568 731.095C516.409 731.645 516.323 732.331 516.309 733.153V733.273H513.923ZM515.196 739.159C514.705 739.159 514.284 738.983 513.933 738.632C513.582 738.281 513.406 737.86 513.406 737.369C513.406 736.879 513.582 736.458 513.933 736.107C514.284 735.755 514.705 735.58 515.196 735.58C515.686 735.58 516.107 735.755 516.459 736.107C516.81 736.458 516.986 736.879 516.986 737.369C516.986 737.694 516.903 737.992 516.737 738.264C516.578 738.536 516.363 738.755 516.091 738.92C515.826 739.08 515.527 739.159 515.196 739.159ZM528.115 733.273V733.153C528.128 731.887 528.26 730.88 528.512 730.131C528.764 729.382 529.122 728.775 529.586 728.311C530.05 727.847 530.607 727.42 531.257 727.028C531.648 726.79 531.999 726.508 532.311 726.183C532.622 725.852 532.867 725.471 533.046 725.04C533.232 724.609 533.325 724.132 533.325 723.608C533.325 722.958 533.172 722.395 532.867 721.918C532.562 721.44 532.155 721.072 531.644 720.814C531.134 720.555 530.567 720.426 529.944 720.426C529.401 720.426 528.877 720.539 528.373 720.764C527.869 720.99 527.448 721.344 527.11 721.828C526.772 722.312 526.577 722.945 526.524 723.727H524.018C524.071 722.6 524.363 721.636 524.893 720.834C525.43 720.032 526.136 719.419 527.011 718.994C527.892 718.57 528.87 718.358 529.944 718.358C531.111 718.358 532.125 718.59 532.987 719.054C533.855 719.518 534.525 720.154 534.995 720.963C535.472 721.772 535.711 722.693 535.711 723.727C535.711 724.456 535.598 725.116 535.373 725.706C535.154 726.296 534.836 726.823 534.419 727.287C534.008 727.751 533.51 728.162 532.927 728.52C532.344 728.884 531.876 729.269 531.525 729.673C531.174 730.071 530.919 730.545 530.759 731.095C530.6 731.645 530.514 732.331 530.501 733.153V733.273H528.115ZM529.387 739.159C528.897 739.159 528.476 738.983 528.124 738.632C527.773 738.281 527.597 737.86 527.597 737.369C527.597 736.879 527.773 736.458 528.124 736.107C528.476 735.755 528.897 735.58 529.387 735.58C529.878 735.58 530.299 735.755 530.65 736.107C531.001 736.458 531.177 736.879 531.177 737.369C531.177 737.694 531.094 737.992 530.928 738.264C530.769 738.536 530.554 738.755 530.282 738.92C530.017 739.08 529.719 739.159 529.387 739.159ZM542.306 733.273V733.153C542.319 731.887 542.452 730.88 542.704 730.131C542.956 729.382 543.314 728.775 543.778 728.311C544.242 727.847 544.798 727.42 545.448 727.028C545.839 726.79 546.19 726.508 546.502 726.183C546.814 725.852 547.059 725.471 547.238 725.04C547.423 724.609 547.516 724.132 547.516 723.608C547.516 722.958 547.364 722.395 547.059 721.918C546.754 721.44 546.346 721.072 545.836 720.814C545.325 720.555 544.759 720.426 544.135 720.426C543.592 720.426 543.068 720.539 542.564 720.764C542.061 720.99 541.64 721.344 541.302 721.828C540.964 722.312 540.768 722.945 540.715 723.727H538.209C538.262 722.6 538.554 721.636 539.084 720.834C539.621 720.032 540.327 719.419 541.202 718.994C542.084 718.57 543.062 718.358 544.135 718.358C545.302 718.358 546.316 718.59 547.178 719.054C548.046 719.518 548.716 720.154 549.187 720.963C549.664 721.772 549.903 722.693 549.903 723.727C549.903 724.456 549.79 725.116 549.564 725.706C549.346 726.296 549.028 726.823 548.61 727.287C548.199 727.751 547.702 728.162 547.118 728.52C546.535 728.884 546.068 729.269 545.716 729.673C545.365 730.071 545.11 730.545 544.951 731.095C544.792 731.645 544.706 732.331 544.692 733.153V733.273H542.306ZM543.579 739.159C543.088 739.159 542.667 738.983 542.316 738.632C541.965 738.281 541.789 737.86 541.789 737.369C541.789 736.879 541.965 736.458 542.316 736.107C542.667 735.755 543.088 735.58 543.579 735.58C544.069 735.58 544.49 735.755 544.841 736.107C545.193 736.458 545.368 736.879 545.368 737.369C545.368 737.694 545.286 737.992 545.12 738.264C544.961 738.536 544.745 738.755 544.474 738.92C544.208 739.08 543.91 739.159 543.579 739.159Z" fill="black"/>
<line x1="70" y1="474.75" x2="880" y2="474.75" stroke="black" stroke-width="0.5" stroke-dasharray="24 8 4 8"/>
</svg>
