<svg width="950" height="950" viewBox="0 0 950 950" fill="none" xmlns="http://www.w3.org/2000/svg">
<rect width="950" height="950" fill="white"/>
<path d="M562.064 286.455L577.939 298.474L592.792 311.929L606.55 326.669L619.098 342.619L630.285 359.589L640.036 377.504L648.276 396.137L654.927 415.337L659.954 435.028L663.28 454.909L664.868 474.94L664.754 494.858L663.924 503.665L671.255 500.074L683.009 493.271L693.743 484.843L703.305 475.016L711.545 463.904L718.386 451.658L723.677 438.506L727.343 424.597L729.346 410.159L729.649 395.495L728.25 380.641L725.151 365.976L720.427 351.652L714.115 337.932L706.367 325.006L697.258 313.063L686.978 302.367L675.526 292.88L663.242 284.906L650.279 278.518L636.786 273.831L623.028 270.921L609.157 269.825L595.4 270.543L581.983 273.076L569.094 277.346L557 283.27L562.064 286.455Z" fill="#D9D9D9"/>
<path d="M364.773 267.406L326.071 286.228L342.89 278.972L360.389 273.454L378.417 269.75L396.861 267.86L415.494 267.822L434.241 269.636L452.874 273.265L471.242 278.707L472.112 279.009L489.233 285.888L506.657 294.77L523.362 305.277L539.236 317.296L554.09 330.713L567.847 345.491L580.395 361.403L591.583 378.411L601.334 396.288L609.573 414.921L616.225 434.159L621.252 453.813L624.578 473.731L626.165 493.724L626.052 513.643L624.2 533.334L620.647 552.572L615.394 571.242L608.553 589.158L600.087 606.203L590.109 622.191L578.732 637.006L566.033 650.499L552.124 662.594L537.12 673.139L521.132 682.096L559.797 663.312L575.784 654.354L590.827 643.772L604.735 631.677L617.435 618.184L628.811 603.368L638.789 587.381L647.255 570.373L654.096 552.42L659.35 533.787L662.902 514.512L663.924 503.665L664.754 494.858L664.868 474.94L663.28 454.909L659.954 435.028L654.927 415.337L648.276 396.137L640.036 377.504L630.285 359.589L619.098 342.619L606.55 326.669L592.792 311.929L577.939 298.474L562.064 286.455L557 283.27L545.359 275.948L529.107 267.671L509.945 259.885L491.576 254.443L472.943 250.814L454.197 249L435.564 249.038L417.12 250.928L399.091 254.631L381.592 260.15L364.773 267.406Z" fill="#D9D9D9"/>
<path d="M336.124 325.309L337.598 318.279L340.66 312.156L345.157 307.091L350.751 303.539L357.139 301.649L363.866 301.573L370.556 303.312L374.991 305.731L374.827 306.373L375.053 313.592L376.943 320.698L380.42 327.198L385.22 332.717L389.701 335.967L389.453 338.877L387.148 345.454L383.368 351.085L378.266 355.394L372.219 358.153L365.605 359.135L358.839 358.304L352.339 355.734L346.518 351.539L341.718 346.02L338.241 339.482L336.351 332.414L336.124 325.309Z" fill="#D9D9D9"/>
<path d="M247.721 461.409L245.831 454.304L245.605 447.085L247.079 440.169L250.14 434.046L254.6 429.019L260.231 425.466L266.581 423.576L273.346 423.501L280.036 425.202L284.42 427.634L284.307 428.301L284.534 435.52L286.424 442.625L289.863 449.126L294.663 454.644L299.161 457.857L298.896 460.805L296.628 467.381L292.811 473.013L287.746 477.321L281.699 480.08L275.085 481.063L268.32 480.232L261.819 477.624L255.961 473.466L251.161 467.91L247.721 461.409Z" fill="#D9D9D9"/>
<path d="M359.406 614.745L357.139 621.283L353.359 626.915L348.257 631.224L342.247 633.983L335.633 634.965L328.83 634.134L322.329 631.526L316.509 627.368L311.709 621.813L308.231 615.312L306.342 608.206L306.153 600.987L307.589 594.071L310.688 587.91L315.148 582.921L320.742 579.368L327.129 577.479L333.857 577.403L340.546 579.104L345 581.523L344.817 582.203L345.044 589.422L346.934 596.49L350.411 603.028L355.211 608.546L359.689 611.759L359.406 614.745Z" fill="#D9D9D9"/>
<path d="M336.805 502.228L340.924 514.928L346.594 527.06L353.661 538.398L362.052 548.717L371.576 557.825L382.121 565.573L393.384 571.809L405.214 576.421L417.422 579.293L429.705 580.389L441.876 579.709L453.743 577.252L465.006 573.057L475.513 567.198L485.076 559.791L493.466 550.984L500.572 540.931L506.241 529.819L510.361 517.838L512.855 505.252L513.687 492.288L512.855 479.135L510.361 466.096L506.241 453.397L500.609 441.265L493.504 429.926L485.113 419.608L475.589 410.499L465.082 402.751L453.781 396.515L441.951 391.904L429.781 389.031L417.46 387.935L405.29 388.616L393.384 391.11L382.159 395.268L371.652 401.126L362.09 408.534L353.699 417.34L346.594 427.394L340.962 438.506L336.842 450.487L334.31 463.072L333.479 476.036L334.31 489.189L336.805 502.228Z" fill="#D9D9D9"/>
<path d="M457.409 640.219L459.299 647.287L462.776 653.825L467.576 659.343L473.397 663.539L479.898 666.109L486.701 666.94L493.315 665.957L499.324 663.198L504.427 658.89L508.206 653.258L510.512 646.682L510.776 643.749L506.279 640.521L501.479 635.003L498.001 628.502L496.112 621.397L495.923 614.178L496.06 613.535L491.652 611.117L484.924 609.378L478.197 609.454L471.809 611.343L466.216 614.896L461.756 619.923L458.694 626.046L457.22 632.962L457.409 640.219Z" fill="#D9D9D9"/>
<path d="M549.857 525.359L547.967 518.291L547.74 511.072L549.214 504.156L552.276 497.995L556.773 492.968L562.367 489.416L568.716 487.526L575.482 487.45L582.172 489.189L586.606 491.608L586.443 492.25L586.669 499.469L588.559 506.575L591.998 513.076L596.798 518.594L601.295 521.844L601.031 524.754L598.764 531.331L594.946 536.962L589.882 541.309L583.835 544.03L577.22 545.013L570.455 544.181L563.954 541.611L558.096 537.416L553.334 531.898L549.857 525.359Z" fill="#D9D9D9"/>
<path d="M489.346 371.494L487.419 364.389L487.192 357.17L488.666 350.254L491.765 344.093L496.225 339.066L501.819 335.513L508.206 333.661L514.934 333.548L521.661 335.287L526.069 337.706L525.894 338.348L526.121 345.567L528.049 352.672L531.488 359.173L536.288 364.691L540.784 367.942L540.521 370.852L538.216 377.428L534.436 383.06L529.334 387.406L523.324 390.128L516.71 391.11L509.945 390.279L503.406 387.709L497.586 383.513L492.786 377.995L489.346 371.494Z" fill="#D9D9D9"/>
<path d="M663.924 503.665L671.255 500.074L683.009 493.271L693.743 484.843L703.305 475.016L711.545 463.904L718.386 451.658L723.677 438.506L727.343 424.597L729.346 410.159L729.649 395.495L728.25 380.641L725.151 365.976L720.427 351.652L714.115 337.932L706.367 325.006L697.258 313.063L686.978 302.367L675.526 292.88L663.242 284.906L650.279 278.518L636.786 273.831L623.028 270.921L609.157 269.825L595.4 270.543L581.983 273.076L569.094 277.346L557 283.27M663.924 503.665L664.754 494.858L664.868 474.94L663.28 454.909L659.954 435.028L654.927 415.337L648.276 396.137L640.036 377.504L630.285 359.589L619.098 342.619L606.55 326.669L592.792 311.929L577.939 298.474L562.064 286.455L557 283.27M663.924 503.665L662.902 514.512L659.35 533.787L654.096 552.42L647.255 570.373L638.789 587.381L628.811 603.368L617.435 618.184L604.735 631.677L590.827 643.772L575.784 654.354L559.797 663.312L521.132 682.096L537.12 673.139L552.124 662.594L566.033 650.499L578.732 637.006L590.109 622.191L600.087 606.203L608.553 589.158L615.394 571.242L620.647 552.572L624.2 533.334L626.052 513.643L626.165 493.724L624.578 473.731L621.252 453.813L616.225 434.159L609.573 414.921L601.334 396.288L591.583 378.411L580.395 361.403L567.847 345.491L554.09 330.713L539.236 317.296L523.362 305.277L506.657 294.77L489.233 285.888L472.112 279.009L471.242 278.707L452.874 273.265L434.241 269.636L415.494 267.822L396.861 267.86L378.417 269.75L360.389 273.454L342.89 278.972L326.071 286.228L364.773 267.406L381.592 260.15L399.091 254.631L417.12 250.928L435.564 249.038L454.197 249L472.943 250.814L491.576 254.443L509.945 259.885L529.107 267.671L545.359 275.948L557 283.27M247.721 461.409L245.831 454.304L245.605 447.085L247.079 440.169L250.14 434.046L254.6 429.019L260.231 425.466L266.581 423.576L273.346 423.501L280.036 425.202L284.42 427.634L284.307 428.301L284.534 435.52L286.424 442.625L289.863 449.126L294.663 454.644L299.161 457.857L298.896 460.805L296.628 467.381L292.811 473.013L287.746 477.321L281.699 480.08L275.085 481.063L268.32 480.232L261.819 477.624L255.961 473.466L251.161 467.91L247.721 461.409ZM345 581.523L340.546 579.104L333.857 577.403L327.129 577.479L320.742 579.368L315.148 582.921L310.688 587.91L307.589 594.071L306.153 600.987L306.342 608.206L308.231 615.312L311.709 621.813L316.509 627.368L322.329 631.526L328.83 634.134L335.633 634.965L342.247 633.983L348.257 631.224L353.359 626.915L357.139 621.283L359.406 614.745L359.689 611.759L355.211 608.546L350.411 603.028L346.934 596.49L345.044 589.422L344.817 582.203L345 581.523ZM336.805 502.228L340.924 514.928L346.594 527.06L353.661 538.398L362.052 548.717L371.576 557.825L382.121 565.573L393.384 571.809L405.214 576.421L417.422 579.293L429.705 580.389L441.876 579.709L453.743 577.252L465.006 573.057L475.513 567.198L485.076 559.791L493.466 550.984L500.572 540.931L506.241 529.819L510.361 517.838L512.855 505.252L513.687 492.288L512.855 479.135L510.361 466.096L506.241 453.397L500.609 441.265L493.504 429.926L485.113 419.608L475.589 410.499L465.082 402.751L453.781 396.515L441.951 391.904L429.781 389.031L417.46 387.935L405.29 388.616L393.384 391.11L382.159 395.268L371.652 401.126L362.09 408.534L353.699 417.34L346.594 427.394L340.962 438.506L336.842 450.487L334.31 463.072L333.479 476.036L334.31 489.189L336.805 502.228ZM336.124 325.309L337.598 318.279L340.66 312.156L345.157 307.091L350.751 303.539L357.139 301.649L363.866 301.573L370.556 303.312L374.991 305.731L374.827 306.373L375.053 313.592L376.943 320.698L380.42 327.198L385.22 332.717L389.701 335.967L389.453 338.877L387.148 345.454L383.368 351.085L378.266 355.394L372.219 358.153L365.605 359.135L358.839 358.304L352.339 355.734L346.518 351.539L341.718 346.02L338.241 339.482L336.351 332.414L336.124 325.309ZM457.409 640.219L459.299 647.287L462.776 653.825L467.576 659.343L473.397 663.539L479.898 666.109L486.701 666.94L493.315 665.957L499.324 663.198L504.427 658.89L508.206 653.258L510.512 646.682L510.776 643.749L506.279 640.521L501.479 635.003L498.001 628.502L496.112 621.397L495.923 614.178L496.06 613.535L491.652 611.117L484.924 609.378L478.197 609.454L471.809 611.343L466.216 614.896L461.756 619.923L458.694 626.046L457.22 632.962L457.409 640.219ZM489.346 371.494L487.419 364.389L487.192 357.17L488.666 350.254L491.765 344.093L496.225 339.066L501.819 335.513L508.206 333.661L514.934 333.548L521.661 335.287L526.069 337.706L525.894 338.348L526.121 345.567L528.049 352.672L531.488 359.173L536.288 364.691L540.784 367.942L540.521 370.852L538.216 377.428L534.436 383.06L529.334 387.406L523.324 390.128L516.71 391.11L509.945 390.279L503.406 387.709L497.586 383.513L492.786 377.995L489.346 371.494ZM549.857 525.359L547.967 518.291L547.74 511.072L549.214 504.156L552.276 497.995L556.773 492.968L562.367 489.416L568.716 487.526L575.482 487.45L582.172 489.189L586.606 491.608L586.443 492.25L586.669 499.469L588.559 506.575L591.998 513.076L596.798 518.594L601.295 521.844L601.031 524.754L598.764 531.331L594.946 536.962L589.882 541.309L583.835 544.03L577.22 545.013L570.455 544.181L563.954 541.611L558.096 537.416L553.334 531.898L549.857 525.359Z" stroke="black" stroke-linecap="round" stroke-linejoin="round"/>
<path d="M504.276 689.353L521.132 682.096L559.797 663.312L575.784 654.354L590.827 643.772L604.735 631.677L617.435 618.184L628.811 603.368L638.789 587.381L647.255 570.373L654.096 552.42L659.35 533.787L662.902 514.512L663.924 503.665L671.255 500.074L683.009 493.271L693.743 484.843L703.305 475.016L711.545 463.904L718.386 451.658L723.677 438.506L727.343 424.597L729.346 410.159L729.649 395.495L728.25 380.641L725.151 365.976L720.427 351.652L714.115 337.932L706.367 325.006L697.258 313.063L686.978 302.367L675.526 292.88L663.242 284.906L650.279 278.518L636.786 273.831L623.028 270.921L609.157 269.825L595.4 270.543L581.983 273.076L569.094 277.346L557 283.27L545.359 275.948L529.107 267.671L509.945 259.885L491.576 254.443L472.943 250.814L454.197 249L435.564 249.038L417.12 250.928L399.091 254.631L381.592 260.15L364.773 267.406L326.071 286.228L310.083 295.186L295.041 305.731L281.132 317.825L268.433 331.356L257.057 346.134L247.079 362.121L238.65 379.167L231.772 397.082L226.518 415.753L222.965 434.991L221.113 454.682L221 474.6L222.625 494.594L225.913 514.512L230.94 534.165L237.592 553.403L245.831 572.036L255.583 589.913L266.77 606.921L279.318 622.833L293.076 637.611L307.929 651.066L323.803 663.085L340.546 673.592L357.932 682.436L375.923 689.655L394.291 695.06L412.924 699L431.671 700.502L450.304 700.465L468.748 698.575L486.776 694.871L504.276 689.353Z" stroke="black" stroke-width="1.99937" stroke-linecap="round" stroke-linejoin="round"/>
<path d="M540.784 367.942L536.288 364.691L531.488 359.173L528.049 352.672L526.121 345.567L525.894 338.348L526.069 337.706L527.86 338.688L533.227 343.602L537.384 349.649L540.068 356.528L541.164 363.746L540.784 367.942Z" fill="#D9D9D9"/>
<path d="M601.295 521.844L596.798 518.594L591.998 513.076L588.559 506.575L586.669 499.469L586.443 492.25L586.606 491.608L588.408 492.591L593.775 497.504L597.894 503.551L600.616 510.43L601.674 517.649L601.295 521.844Z" fill="#D9D9D9"/>
<path d="M540.784 367.942L536.288 364.691L531.488 359.173L528.049 352.672L526.121 345.567L525.894 338.348L526.069 337.706L527.86 338.688L533.227 343.602L537.384 349.649L540.068 356.528L541.164 363.746L540.784 367.942Z" stroke="black" stroke-linecap="round" stroke-linejoin="round"/>
<path d="M601.295 521.844L596.798 518.594L591.998 513.076L588.559 506.575L586.669 499.469L586.443 492.25L586.606 491.608L588.408 492.591L593.775 497.504L597.894 503.551L600.616 510.43L601.674 517.649L601.295 521.844Z" stroke="black" stroke-linecap="round" stroke-linejoin="round"/>
<path d="M521.132 682.096L504.276 689.353L486.776 694.871L468.748 698.575L450.304 700.465L431.671 700.502L412.924 698.726L404.95 697.139L394.291 695.06L375.923 689.655L357.932 682.436L340.546 673.592L323.803 663.085L307.929 651.066L293.076 637.611L279.318 622.833L266.77 606.921L255.583 589.913L245.831 572.036L237.592 553.403L230.94 534.165L225.913 514.512L222.625 494.594L221 474.6L221.113 454.682L222.965 434.991L226.518 415.753L231.772 397.082L238.65 379.167L247.079 362.121L257.057 346.134L268.433 331.356L281.132 317.825L292.622 307.847L295.041 305.731L310.083 295.186L326.071 286.228M521.132 682.096L559.797 663.312L575.784 654.354L590.827 643.772L604.735 631.677L617.435 618.184L628.811 603.368L638.789 587.381L647.255 570.373L654.096 552.42L659.35 533.787L662.902 514.512L664.754 494.858L664.868 474.94L663.28 454.909L659.954 435.028L654.928 415.337L648.276 396.137L640.036 377.504L630.285 359.589L619.098 342.619L606.55 326.669L592.792 311.929L577.939 298.474L562.065 286.455L545.359 275.948L529.107 267.671L527.935 267.066L509.945 259.885L491.576 254.443L472.943 250.814L454.197 249L435.564 249.038L417.12 250.928L399.091 254.631L381.592 260.15L364.773 267.406L326.071 286.228M521.132 682.096L537.12 673.139L552.124 662.594L566.033 650.499L578.732 637.006L590.109 622.191L600.087 606.203L608.553 589.157L615.394 571.243L619.211 557.75L620.647 552.572L624.2 533.334L626.052 513.643L626.165 493.724L624.578 473.731L621.252 453.813L616.225 434.159L609.573 414.921L601.334 396.288L591.583 378.411L580.395 361.403L567.847 345.491L554.09 330.713L539.236 317.296L523.362 305.277L506.657 294.77L489.233 285.888L472.112 279.009L471.242 278.707L452.874 273.265L434.241 269.636L415.494 267.822L396.861 267.86L378.417 269.75L360.389 273.454L342.89 278.972L326.071 286.228" stroke="black" stroke-width="0.7" stroke-linecap="round" stroke-linejoin="round"/>
<path fill-rule="evenodd" clip-rule="evenodd" d="M247.721 461.409L245.831 454.304L245.605 447.085L247.079 440.169L250.14 434.046L254.6 429.019L260.231 425.466L266.581 423.576L273.346 423.501L280.036 425.202L280.376 425.391L286.235 428.641L291.602 433.517L295.759 439.602L298.48 446.443L299.539 453.661L298.896 460.805L296.628 467.381L292.811 473.013L287.746 477.321L281.699 480.08L275.085 481.063L269.416 480.496L268.32 480.232L261.819 477.624L255.961 473.466L251.161 467.91L247.721 461.409Z" stroke="black" stroke-width="0.7" stroke-linecap="round" stroke-linejoin="round"/>
<path d="M299.161 457.857L294.663 454.644L289.863 449.126L286.424 442.625L284.534 435.52L284.307 428.301L284.42 427.62" stroke="black" stroke-width="0.7" stroke-linecap="round" stroke-linejoin="round"/>
<path d="M344.968 581.523L346.783 582.543L352.15 587.419L356.307 593.504L358.991 600.345L360.087 607.564L359.406 614.745L357.139 621.283L354.757 625.176L353.359 626.915L348.257 631.224L342.247 633.983L335.633 634.965L328.83 634.134L322.329 631.526L316.509 627.368L311.709 621.813L308.231 615.312L306.342 608.206L306.153 600.987L307.589 594.071L310.688 587.91L315.148 582.921L318.625 580.691L320.742 579.369L327.129 577.479L333.857 577.403L340.546 579.104L344.968 581.523ZM344.968 581.523L344.817 582.203L345.044 589.422L346.934 596.49L350.411 603.028L355.211 608.546L359.709 611.759" stroke="black" stroke-width="0.7" stroke-linecap="round" stroke-linejoin="round"/>
<path fill-rule="evenodd" clip-rule="evenodd" d="M334.839 491.948L336.805 502.228L340.924 514.928L346.594 527.06L353.661 538.398L362.052 548.717L371.576 557.825L382.121 565.573L393.384 571.809L397.013 573.246L405.214 576.42L417.422 579.293L429.706 580.389L441.876 579.709L453.743 577.252L465.006 573.057L475.513 567.198L485.076 559.791L493.466 550.984L500.572 540.931L506.241 529.819L510.361 517.838L512.855 505.252L513.687 492.288L512.855 479.135L510.361 466.096L506.241 453.397L500.609 441.265L493.504 429.926L485.113 419.608L475.589 410.499L465.082 402.751L453.781 396.515L441.951 391.904L429.781 389.031L417.46 387.935L405.29 388.616L397.58 390.203L393.384 391.11L382.159 395.268L371.652 401.126L362.09 408.534L353.699 417.34L346.594 427.394L342.701 435.104L340.962 438.506L336.843 450.487L334.31 463.072L333.479 476.036L334.31 489.189L334.839 491.948Z" stroke="black" stroke-width="0.7" stroke-linecap="round" stroke-linejoin="round"/>
<path fill-rule="evenodd" clip-rule="evenodd" d="M336.124 325.309L337.598 318.279L340.66 312.156L345.157 307.091L350.751 303.539L357.139 301.649L363.866 301.573L370.556 303.312L376.792 306.713L382.159 311.627L386.317 317.674L389 324.553L390.058 331.772L389.454 338.877L387.148 345.454L383.369 351.085L378.266 355.394L372.219 358.153L365.605 359.135L358.839 358.304L352.339 355.734L346.518 351.539L341.718 346.02L338.241 339.482L336.351 332.414L336.124 325.309Z" stroke="black" stroke-width="0.7" stroke-linecap="round" stroke-linejoin="round"/>
<path d="M389.718 335.967L385.22 332.717L380.42 327.198L376.943 320.698L375.054 313.592L374.827 306.373L374.978 305.731" stroke="black" stroke-width="0.7" stroke-linecap="round" stroke-linejoin="round"/>
<path fill-rule="evenodd" clip-rule="evenodd" d="M457.636 641.05L459.299 647.287L462.776 653.825L467.576 659.343L473.397 663.539L479.898 666.109L486.701 666.94L493.315 665.957L499.324 663.198L504.427 658.89L508.206 653.258L510.512 646.682L511.154 639.539L510.058 632.32L508.924 628.843L507.375 625.479L503.217 619.394L497.85 614.518L491.652 611.117L484.924 609.378L478.197 609.454L471.809 611.343L466.216 614.896L461.756 619.923L458.695 626.046L457.22 632.962L457.409 640.219L457.636 641.05Z" stroke="black" stroke-width="0.7" stroke-linecap="round" stroke-linejoin="round"/>
<path fill-rule="evenodd" clip-rule="evenodd" d="M489.649 372.061L489.346 371.494L487.419 364.389L487.192 357.17L488.666 350.254L491.765 344.093L492.408 343.186L496.225 339.066L501.819 335.513L508.206 333.661L514.934 333.548L521.661 335.287L527.86 338.688L533.227 343.602L537.384 349.649L540.068 356.528L541.164 363.746L540.521 370.852L538.216 377.428L534.436 383.06L529.334 387.406L523.324 390.128L516.71 391.11L509.945 390.279L503.406 387.709L497.586 383.513L492.786 377.995L489.649 372.061Z" stroke="black" stroke-width="0.7" stroke-linecap="round" stroke-linejoin="round"/>
<path d="M510.776 643.734L506.279 640.521L501.479 635.003L498.002 628.502L496.112 621.397L495.923 614.178L496.036 613.535" stroke="black" stroke-width="0.7" stroke-linecap="round" stroke-linejoin="round"/>
<path d="M540.786 367.942L536.288 364.691L531.488 359.173L528.049 352.672L526.121 345.567L525.894 338.348L526.046 337.706" stroke="black" stroke-width="0.7" stroke-linecap="round" stroke-linejoin="round"/>
<path fill-rule="evenodd" clip-rule="evenodd" d="M551.028 527.589L549.857 525.359L547.967 518.291L547.74 511.072L549.214 504.156L552.276 497.995L556.773 492.968L562.367 489.416L568.717 487.526L575.482 487.45L577.75 487.828L582.172 489.189L588.408 492.591L593.775 497.504L597.895 503.551L600.616 510.43L601.674 517.649L601.032 524.754L598.764 531.331L594.946 536.962L589.882 541.309L583.835 544.03L577.221 545.013L570.455 544.181L563.954 541.611L558.096 537.416L553.334 531.898L551.028 527.589Z" stroke="black" stroke-width="0.7" stroke-linecap="round" stroke-linejoin="round"/>
<path d="M663.923 503.665L671.255 500.074L683.009 493.271L693.743 484.843L703.306 475.016L711.545 463.904L718.386 451.658L723.677 438.506L727.343 424.597L729.346 410.159L729.649 395.495L728.25 380.641L725.151 365.976L720.427 351.652L714.115 337.932L706.367 325.006L697.258 313.063L686.978 302.367L675.526 292.88L673.825 291.746L663.243 284.906L650.279 278.518L636.786 273.831L623.028 270.921L609.157 269.825L595.4 270.543L581.983 273.076L569.094 277.346L557 283.243" stroke="black" stroke-width="0.7" stroke-linecap="round" stroke-linejoin="round"/>
<path d="M601.296 521.844L596.798 518.594L591.998 513.076L588.559 506.575L586.669 499.469L586.443 492.25L586.594 491.608" stroke="black" stroke-width="0.7" stroke-linecap="round" stroke-linejoin="round"/>
</svg>
