<svg width="950" height="950" viewBox="0 0 950 950" fill="none" xmlns="http://www.w3.org/2000/svg">
<rect width="950" height="950" fill="white"/>
<path d="M454.368 325.778L443.03 321.016L431.578 317.803L420.088 316.102L408.825 315.989L397.751 317.463L387.055 320.524L376.775 325.06L367.061 331.145L357.953 338.628L349.562 347.51L341.965 357.639L335.238 368.978L329.417 381.375L324.58 394.754L320.8 408.965L318.041 423.895L316.378 439.391L315.849 455.302L316.416 471.479L318.041 487.806L320.8 504.096L324.58 520.197L329.417 535.957L335.616 552.134L341.965 565.929L349.562 579.876L357.953 592.877L366.948 604.783L376.775 615.819L387.055 625.495L397.751 633.847L408.825 640.839L420.088 646.358L431.54 650.364L442.992 652.821L454.368 653.69L465.518 653.01L476.441 650.742L486.948 646.962L496.926 641.633L506.375 634.868L515.068 626.704L521.623 618.918L517.109 616.802L505.128 609.28L493.562 600.172L482.488 589.513L472.094 577.457L462.457 564.077L453.688 549.602L445.865 534.143L439.099 517.854L433.468 500.921L429.008 483.573L425.795 465.961L423.868 448.272L423.225 430.735L423.868 413.501L425.795 396.795L429.008 380.77L433.468 365.614L439.099 351.517L445.865 338.591L453.688 326.987L454.637 325.929L454.368 325.778Z" fill="#D9D9D9"/>
<path d="M730.047 528.928L730.69 507.195L730.047 485.161L728.12 462.937L724.907 440.713L720.485 418.603L714.778 396.757L707.937 375.365L699.924 354.578L690.854 334.471L680.762 315.271L669.726 297.016L657.82 279.894L645.121 263.983L631.704 249.431L617.644 236.317L603.131 224.751L588.164 214.773L572.857 206.496L557.361 199.92L541.751 195.12L526.18 192.172L510.684 191L495.376 191.718L480.409 194.213L348.202 224.524L362.526 222.106L377.833 221.387L393.329 222.559L408.901 225.507L424.51 230.307L440.006 236.883L455.351 245.198L470.28 255.139L484.831 266.742L498.854 279.819L512.271 294.408L524.97 310.282L536.876 327.403L547.912 345.658L558.003 364.858L567.074 384.965L575.087 405.753L581.928 427.145L587.635 448.991L592.057 471.101L595.269 493.324L597.197 515.548L597.839 537.583L597.802 538.981L597.197 559.315L595.269 580.594L592.057 601.23L587.635 621.11L581.928 640.121L575.087 658.112L567.074 674.931L558.003 690.502L547.912 704.713L536.876 717.45L524.97 728.676L512.271 738.238L498.854 746.099L484.831 752.222L470.961 756.417L603.131 726.219L617.644 721.835L631.704 715.712L645.121 707.85L657.82 698.288L669.726 687.063L680.762 674.326L690.854 660.115L699.924 644.543L707.937 627.724L714.778 609.734L720.485 590.723L724.907 570.843L728.12 550.206L730.047 528.928Z" fill="#D9D9D9"/>
<path d="M454.368 325.778L443.03 321.016L431.578 317.803L420.088 316.102L408.825 315.989L397.751 317.463L387.055 320.524L376.775 325.06L367.061 331.145L357.953 338.628L349.562 347.51L341.965 357.639L335.238 368.978L329.417 381.375L324.58 394.754L320.8 408.965L318.041 423.895L316.378 439.391L315.849 455.302L316.416 471.479L318.041 487.806L320.8 504.096L324.58 520.197L329.417 535.957L335.616 552.134L341.965 565.929L349.562 579.876L357.953 592.877L366.948 604.783L376.775 615.819L387.055 625.495L397.751 633.847L408.825 640.839L420.088 646.358L431.54 650.364L442.992 652.821L454.368 653.69L465.518 653.01L476.441 650.742L486.948 646.962L496.926 641.633L506.375 634.868L515.068 626.704L521.623 618.918L517.109 616.802L505.128 609.28L493.562 600.172L482.488 589.513L472.094 577.457L462.457 564.077L453.688 549.602L445.865 534.143L439.099 517.854L433.468 500.921L429.008 483.573L425.795 465.961L423.868 448.272L423.225 430.735L423.868 413.501L425.795 396.795L429.008 380.77L433.468 365.614L439.099 351.517L445.865 338.591L453.688 326.987L454.637 325.929L454.368 325.778Z" stroke="black" stroke-linecap="round" stroke-linejoin="round"/>
<path d="M730.047 528.928L730.69 507.195L730.047 485.161L728.12 462.937L724.907 440.713L720.485 418.603L714.778 396.757L707.937 375.365L699.924 354.578L690.854 334.471L680.762 315.271L669.726 297.016L657.82 279.894L645.121 263.983L631.704 249.431L617.644 236.317L603.131 224.751L588.164 214.773L572.857 206.496L557.361 199.92L541.751 195.12L526.18 192.172L510.684 191L495.376 191.718L480.409 194.213L348.202 224.524L362.526 222.106L377.833 221.387L393.329 222.559L408.901 225.507L424.51 230.307L440.006 236.883L455.351 245.198L470.28 255.139L484.831 266.742L498.854 279.819L512.271 294.408L524.97 310.282L536.876 327.403L547.912 345.658L558.003 364.858L567.074 384.965L575.087 405.753L581.928 427.145L587.635 448.991L592.057 471.101L595.269 493.324L597.197 515.548L597.839 537.583L597.802 538.981L597.197 559.315L595.269 580.594L592.057 601.23L587.635 621.11L581.928 640.121L575.087 658.112L567.074 674.931L558.003 690.502L547.912 704.713L536.876 717.45L524.97 728.676L512.271 738.238L498.854 746.099L484.831 752.222L470.961 756.417L603.131 726.219L617.644 721.835L631.704 715.712L645.121 707.85L657.82 698.288L669.726 687.063L680.762 674.326L690.854 660.115L699.924 644.543L707.937 627.724L714.778 609.734L720.485 590.723L724.907 570.843L728.12 550.206L730.047 528.928Z" stroke="black" stroke-linecap="round" stroke-linejoin="round"/>
<path d="M730.69 507.195L730.047 528.928L728.12 550.206L724.907 570.843L720.485 590.723L714.778 609.734L707.937 627.724L699.924 644.543L690.854 660.115L680.762 674.326L669.726 687.063L657.82 698.288L645.121 707.85L631.704 715.712L617.644 721.835L603.131 726.219L470.961 756.417L455.313 759.101L440.006 759.819L424.51 758.647L408.901 755.699L393.329 750.899L377.833 744.323L362.526 736.046L347.559 726.068L333.046 714.502L318.872 701.236L305.569 686.836L292.869 670.924L280.964 653.803L269.928 635.548L259.836 616.348L250.765 596.241L242.753 575.454L235.912 554.061L230.205 532.216L225.783 510.105L222.57 487.882L220.643 465.658L220 443.624L220.643 421.891L222.57 400.613L225.783 379.976L230.205 360.096L235.912 341.085L242.753 323.094L250.765 306.276L259.836 290.704L269.928 276.493L280.964 263.756L292.869 252.531L305.569 242.969L318.986 235.107L333.046 228.984L348.202 224.524L480.409 194.213L495.376 191.718L510.684 191L526.18 192.172L541.751 195.12L557.361 199.92L572.857 206.496L588.164 214.773L603.131 224.751L617.644 236.317L631.704 249.431L645.121 263.983L657.82 279.894L669.726 297.016L680.762 315.271L690.854 334.471L699.924 354.578L707.937 375.365L714.778 396.757L720.485 418.603L724.907 440.713L728.12 462.937L730.047 485.161L730.69 507.195Z" stroke="black" stroke-width="2" stroke-linecap="round" stroke-linejoin="round"/>
<path fill-rule="evenodd" clip-rule="evenodd" d="M729.669 533.236L730.047 528.928L730.69 507.195L730.047 485.161L728.12 462.937L724.907 440.713L720.485 418.603L714.778 396.757L707.937 375.365L699.924 354.578L690.854 334.471L680.762 315.271L669.726 297.016L657.82 279.894L645.121 263.983L631.704 249.431L617.644 236.317L603.131 224.751L588.164 214.773L572.857 206.496L557.361 199.92L541.751 195.12L526.18 192.172L510.683 191L495.376 191.718L480.409 194.213L348.202 224.524L362.526 222.106L377.833 221.387L393.329 222.559L408.901 225.507L424.51 230.307L440.006 236.883L455.351 245.198L470.28 255.139L484.831 266.742L498.854 279.819L512.271 294.408L524.97 310.282L536.876 327.403L540.202 332.883L547.912 345.658L558.003 364.858L567.074 384.965L575.087 405.753L581.928 427.145L587.635 448.991L592.057 471.101L595.269 493.324L597.197 515.548L597.839 537.583L597.802 538.981L597.197 559.315L595.269 580.594L592.057 601.23L587.635 621.11L581.928 640.121L575.087 658.112L567.074 674.931L558.003 690.502L547.912 704.713L536.876 717.45L524.97 728.676L512.271 738.238L498.854 746.099L484.831 752.222L470.961 756.417L603.131 726.219L617.644 721.835L631.704 715.712L645.121 707.85L657.82 698.288L669.726 687.063L680.762 674.326L690.854 660.115L699.924 644.543L707.937 627.724L714.778 609.734L720.485 590.723L724.907 570.843L728.12 550.206L729.669 533.236Z" stroke="black" stroke-width="0.5" stroke-linecap="round" stroke-linejoin="round"/>
<path d="M540.768 458.326L535.704 439.504L529.392 421.135L522.022 403.447L513.556 386.591L504.107 370.679L493.827 355.901L488.498 349.438L482.677 342.332L470.885 330.2L458.488 319.542L445.638 310.509L432.447 303.139L419.03 297.507L405.537 293.69L392.044 291.724L378.74 291.611L365.739 293.35L353.115 296.902L351.074 297.809L340.983 302.307L329.531 309.45L318.797 318.294L308.895 328.726L304.321 334.811L299.937 340.669L292 354.049L285.159 368.676L279.452 384.436L274.992 401.217L271.742 418.792L269.776 437.085L269.134 455.831L269.247 459.346L269.776 474.918L271.742 494.156L274.954 513.356L279.452 532.367L285.159 550.962L292 568.991L299.937 586.339L308.706 602.402L318.797 618.087L329.531 632.26L340.983 645.11L353.115 656.524L365.739 666.389L378.74 674.591L392.082 681.129L405.537 685.854L419.03 688.726L432.447 689.784L445.638 688.991L458.488 686.307L470.885 681.809L482.677 675.573L493.789 667.561L504.107 657.885L513.556 646.698L522.022 633.998L529.392 620.014L535.666 604.783L540.768 588.493L544.661 571.296L547.231 553.343L548.554 534.824V515.85L547.231 496.688L544.624 477.413L540.768 458.326ZM540.768 458.326L541.146 460.065" stroke="black" stroke-width="0.5" stroke-linecap="round" stroke-linejoin="round"/>
<path d="M493.335 355.334L486.948 348.72L476.441 339.724L465.518 332.052L454.368 325.778L443.03 321.016L431.578 317.803L420.088 316.102L408.825 315.989L397.751 317.463L387.055 320.524L376.775 325.06L367.061 331.145L357.953 338.628L349.562 347.51L347.332 350.42L341.965 357.639L335.238 368.978L329.417 381.375L324.579 394.754L320.8 408.965L318.041 423.895L316.378 439.391L315.849 455.302L316.416 471.479L317.474 482.288L318.041 487.806L320.8 504.096L324.579 520.197L329.417 535.957L335.616 552.134L341.965 565.929L349.562 579.876L357.953 592.877L366.948 604.783L376.775 615.819L387.055 625.495L397.751 633.847L408.825 640.839L409.77 641.293L420.088 646.358L431.54 650.364L442.992 652.821L454.368 653.69L465.518 653.01L476.441 650.742L482.564 648.55L486.948 646.962L496.926 641.633L506.375 634.868L515.068 626.704L523.118 617.142L530.299 606.408L536.573 594.54L541.902 581.614L543.414 576.814" stroke="black" stroke-width="0.5" stroke-linecap="round" stroke-linejoin="round"/>
<path d="M521.644 618.918L517.109 616.802L505.128 609.28L493.562 600.172L482.488 589.513L472.094 577.457L462.457 564.077L453.688 549.602L445.865 534.143L439.099 517.854L433.468 500.921L429.008 483.573L425.795 465.961L423.868 448.272L423.225 430.735L423.868 413.501L425.795 396.795L429.008 380.77L433.468 365.614L439.099 351.517L445.865 338.591L453.688 326.987L454.595 325.929" stroke="black" stroke-width="0.5" stroke-linecap="round" stroke-linejoin="round"/>
<path d="M348.202 224.524L333.046 228.984L318.986 235.107L305.568 242.969L292.869 252.531L280.964 263.756L273.631 272.184L269.928 276.493L259.836 290.704L250.765 306.276L242.753 323.094L235.912 341.085L230.205 360.096L225.783 379.976L222.57 400.613L220.643 421.891L220 443.624L220.643 465.658L222.57 487.882L225.783 510.105L230.205 532.216L235.912 554.061L242.753 575.454L250.765 596.241L259.836 616.348L269.928 635.548L280.964 653.803L292.869 670.924L305.568 686.836L318.872 701.236L333.046 714.502L347.559 726.068L362.526 736.046L377.833 744.323L393.329 750.899L408.901 755.699L424.51 758.647L440.006 759.819L455.313 759.101L470.961 756.417" stroke="black" stroke-width="0.5" stroke-linecap="round" stroke-linejoin="round"/>
</svg>
