<svg width="950" height="950" viewBox="0 0 950 950" fill="none" xmlns="http://www.w3.org/2000/svg">
<rect width="950" height="950" fill="white"/>
<path fill-rule="evenodd" clip-rule="evenodd" d="M876.778 513.395L883.392 529.421L886.227 544.539L885.925 614.384L530.006 797.918L529.364 729.584L526.529 714.466L519.915 698.403L512.091 686.12L868.01 501.943L876.778 513.395Z" fill="url(#paint0_linear_2032_92)"/>
<path fill-rule="evenodd" clip-rule="evenodd" d="M661.534 183.896L670.983 202.756L674.724 219.764L675.707 385.912L676.614 397.288L679.411 408.627L684.249 420.797L692.45 434.932L335.89 618.202L328.255 606.863L322.548 593.672L319.751 582.334L318.806 571.902L317.861 404.809L314.082 387.802L309.395 376.463L301.458 362.365L656.507 179.058L661.534 183.896Z" fill="url(#paint1_linear_2032_92)"/>
<path d="M187.77 326.157L253.156 334.472L264.494 337.005L275.493 341.578L285.811 348.079L295.146 356.318L303.197 366.069L309.735 376.954L314.535 388.709L317.483 400.954L318.504 413.313V568.35L319.487 580.709L322.435 592.992L327.235 604.709L333.773 615.594L341.824 625.345L351.159 633.584L361.477 640.085L372.476 644.658L383.852 647.191L464.394 657.433L475.77 659.965L486.769 664.539L497.087 671.039L506.422 679.279L514.472 688.992L521.011 699.877L525.811 711.632L528.759 723.877L529.742 736.274V798.145" stroke="black" stroke-linecap="round" stroke-linejoin="round"/>
<path fill-rule="evenodd" clip-rule="evenodd" d="M191.172 755.058L187.77 754.605V326.157L544.595 141.83L609.981 150.145L621.32 152.639L632.318 157.25L642.636 163.751L652.009 172.028L660.022 181.704L666.561 192.589L671.361 204.343L674.309 216.589L675.329 229.024V383.984L676.312 396.343L679.26 408.627L684.06 420.343L690.598 431.266L698.649 440.98L707.984 449.219L718.302 455.72L729.301 460.293L740.677 462.825L821.219 473.068L832.595 475.6L843.594 480.173L853.912 486.674L863.247 494.913L871.298 504.627L877.836 515.55L882.636 527.304L885.584 539.55L886.567 551.909V613.817L529.742 798.145L191.172 755.058Z" stroke="black" stroke-width="1.99937" stroke-linecap="round" stroke-linejoin="round"/>
<defs>
<linearGradient id="paint0_linear_2032_92" x1="698.5" y1="587" x2="752" y2="688" gradientUnits="userSpaceOnUse">
<stop stop-color="#D9D9D9"/>
<stop offset="1" stop-color="#737373"/>
</linearGradient>
<linearGradient id="paint1_linear_2032_92" x1="479" y1="268.5" x2="736" y2="692.5" gradientUnits="userSpaceOnUse">
<stop stop-color="#D9D9D9"/>
<stop offset="1" stop-color="#737373"/>
</linearGradient>
</defs>
</svg>
