<svg width="950" height="950" viewBox="0 0 950 950" fill="none" xmlns="http://www.w3.org/2000/svg">
<rect width="950" height="950" fill="white"/>
<path d="M183.709 217H129V733.433H183.709V621.763V328.67V217Z" fill="#E0D2FF"/>
<path d="M280.816 621.763V328.67H183.709V621.763H280.816Z" fill="#D9D9D9"/>
<path d="M331.118 586.456L438.812 586.504V363.93L331.118 363.977C293.5 363.93 280.816 328.67 280.816 328.67V621.763C280.816 621.763 293.5 586.456 331.118 586.456Z" fill="#D9D9D9"/>
<path d="M438.812 363.93V586.504C438.814 577.551 446.067 570.295 455.02 570.29C463.978 570.285 471.243 577.546 471.245 586.504V363.929C471.241 372.886 463.977 380.145 455.02 380.14C446.068 380.135 438.815 372.882 438.812 363.93Z" fill="#D9D9D9"/>
<path d="M471.245 586.504H575.394V363.929H471.245V586.504Z" fill="#D9D9D9"/>
<path d="M575.394 586.504L603.994 557.041V393.392L575.394 363.929V586.504Z" fill="#D9D9D9"/>
<path d="M603.994 393.392V557.041L669.913 557V393.392H603.994Z" fill="#D9D9D9"/>
<path d="M701.58 363.929H669.913V393.392V557V586.504H701.58V556.993V393.44V363.929Z" fill="#D9D9D9"/>
<path d="M701.58 556.993H820.005V530.692H749.055V417.968H820.005V393.44H701.58V556.993Z" fill="#D9D9D9"/>
<path d="M749.055 530.692H820.005V417.968H749.055V530.692Z" fill="#D9D9D9"/>
<path d="M280.816 621.763V328.67M280.816 621.763H183.709M280.816 621.763C280.816 621.763 293.5 586.456 331.118 586.456L438.812 586.504M438.812 586.504V363.93M438.812 586.504C438.814 577.551 446.067 570.295 455.02 570.29C463.978 570.285 471.243 577.546 471.245 586.504M438.812 363.93L331.118 363.977C293.5 363.93 280.816 328.67 280.816 328.67M438.812 363.93C438.815 372.882 446.068 380.135 455.02 380.14C463.977 380.145 471.241 372.886 471.245 363.929M280.816 328.67H183.709M183.709 621.763V733.433H129V217H183.709V328.67M183.709 621.763V328.67M471.245 586.504H575.394M471.245 586.504V363.929M471.245 363.929H575.394M575.394 586.504L603.994 557.041M575.394 586.504V363.929M575.394 363.929L603.994 393.392M603.994 557.041V393.392M603.994 557.041L669.913 557M603.994 393.392H669.913M669.913 393.392V557M669.913 393.392V363.929H701.58V393.44M669.913 557V586.504H701.58V556.993M701.58 556.993H820.005V530.692M701.58 556.993V393.44M820.005 530.692H749.055M820.005 530.692V417.968M820.005 530.692L749.055 417.968M749.055 530.692V417.968M749.055 530.692L820.005 417.968M749.055 417.968H820.005M820.005 417.968V393.44H701.58" stroke="black" stroke-linecap="round" stroke-linejoin="round"/>
<path d="M183.709 217H129V733.433H183.709V621.763H280.816C280.816 621.763 293.5 586.456 331.118 586.456L438.812 586.504C438.814 577.551 446.067 570.295 455.02 570.29C463.978 570.285 471.243 577.546 471.245 586.504H575.394L603.994 557.041L669.913 557V586.504H701.58V556.993H820.005V530.692V417.968V393.44H701.58V363.929H669.913V393.392H603.994L575.394 363.929H471.245C471.241 372.886 463.977 380.145 455.02 380.14C446.068 380.135 438.815 372.882 438.812 363.93L331.118 363.977C293.5 363.93 280.816 328.67 280.816 328.67H183.709V217Z" stroke="black" stroke-width="2" stroke-linecap="round" stroke-linejoin="round"/>
<path d="M190 653C190 669.569 203.431 683 220 683H505C518.807 683 530 694.193 530 708C530 694.193 541.193 683 555 683H790C806.569 683 820 669.569 820 653" stroke="black" stroke-width="3"/>
<path d="M501.724 739.358C500.756 739.358 499.878 739.176 499.089 738.811C498.3 738.44 497.674 737.906 497.21 737.21C496.746 736.508 496.514 735.659 496.514 734.665C496.514 733.79 496.686 733.08 497.031 732.537C497.376 731.987 497.836 731.556 498.413 731.244C498.99 730.933 499.626 730.701 500.322 730.548C501.025 730.389 501.731 730.263 502.44 730.17C503.368 730.051 504.12 729.962 504.697 729.902C505.28 729.836 505.705 729.726 505.97 729.574C506.242 729.421 506.377 729.156 506.377 728.778V728.699C506.377 727.718 506.109 726.955 505.572 726.412C505.042 725.868 504.236 725.597 503.156 725.597C502.036 725.597 501.157 725.842 500.521 726.332C499.885 726.823 499.437 727.347 499.179 727.903L496.951 727.108C497.349 726.18 497.879 725.457 498.542 724.94C499.212 724.417 499.941 724.052 500.73 723.847C501.525 723.634 502.307 723.528 503.076 723.528C503.567 723.528 504.13 723.588 504.767 723.707C505.41 723.82 506.029 724.055 506.626 724.413C507.229 724.771 507.73 725.312 508.127 726.034C508.525 726.757 508.724 727.724 508.724 728.938V739H506.377V736.932H506.258C506.099 737.263 505.834 737.618 505.463 737.996C505.092 738.374 504.598 738.695 503.981 738.96C503.365 739.225 502.612 739.358 501.724 739.358ZM502.082 737.25C503.01 737.25 503.792 737.068 504.429 736.703C505.072 736.339 505.556 735.868 505.88 735.291C506.212 734.714 506.377 734.108 506.377 733.472V731.324C506.278 731.443 506.059 731.553 505.721 731.652C505.39 731.745 505.005 731.828 504.568 731.901C504.137 731.967 503.716 732.027 503.305 732.08C502.901 732.126 502.573 732.166 502.321 732.199C501.711 732.278 501.141 732.408 500.61 732.587C500.087 732.759 499.663 733.021 499.338 733.372C499.02 733.717 498.86 734.187 498.86 734.784C498.86 735.599 499.162 736.216 499.765 736.634C500.375 737.045 501.147 737.25 502.082 737.25ZM513.007 739V723.727H515.274V726.034H515.433C515.712 725.278 516.215 724.665 516.945 724.195C517.674 723.724 518.496 723.489 519.411 723.489C519.583 723.489 519.798 723.492 520.057 723.499C520.315 723.505 520.511 723.515 520.643 723.528V725.915C520.564 725.895 520.382 725.865 520.097 725.825C519.818 725.779 519.523 725.756 519.212 725.756C518.469 725.756 517.806 725.911 517.223 726.223C516.646 726.528 516.189 726.952 515.851 727.496C515.519 728.033 515.354 728.646 515.354 729.335V739H513.007ZM523.743 739V718.636H526.09V726.153H526.289C526.461 725.888 526.7 725.55 527.005 725.139C527.316 724.722 527.76 724.35 528.337 724.026C528.92 723.694 529.709 723.528 530.703 723.528C531.989 723.528 533.123 723.85 534.104 724.493C535.085 725.136 535.851 726.047 536.401 727.227C536.951 728.407 537.226 729.799 537.226 731.403C537.226 733.021 536.951 734.423 536.401 735.609C535.851 736.789 535.088 737.704 534.114 738.354C533.14 738.997 532.016 739.318 530.743 739.318C529.762 739.318 528.977 739.156 528.387 738.831C527.797 738.5 527.343 738.125 527.025 737.707C526.706 737.283 526.461 736.932 526.289 736.653H526.01V739H523.743ZM526.05 731.364C526.05 732.517 526.219 733.535 526.557 734.416C526.895 735.291 527.389 735.977 528.039 736.474C528.688 736.965 529.484 737.21 530.425 737.21C531.406 737.21 532.225 736.952 532.881 736.435C533.544 735.911 534.041 735.208 534.373 734.327C534.711 733.438 534.88 732.451 534.88 731.364C534.88 730.29 534.714 729.322 534.382 728.46C534.058 727.592 533.564 726.906 532.901 726.402C532.245 725.892 531.419 725.636 530.425 725.636C529.471 725.636 528.668 725.878 528.019 726.362C527.369 726.839 526.879 727.509 526.547 728.371C526.216 729.226 526.05 730.223 526.05 731.364ZM540.816 739V723.727H543.083V726.034H543.242C543.52 725.278 544.024 724.665 544.753 724.195C545.482 723.724 546.304 723.489 547.219 723.489C547.391 723.489 547.607 723.492 547.865 723.499C548.124 723.505 548.319 723.515 548.452 723.528V725.915C548.373 725.895 548.19 725.865 547.905 725.825C547.627 725.779 547.332 725.756 547.02 725.756C546.278 725.756 545.615 725.911 545.032 726.223C544.455 726.528 543.998 726.952 543.659 727.496C543.328 728.033 543.162 728.646 543.162 729.335V739H540.816ZM557.172 739.318C555.701 739.318 554.431 738.993 553.364 738.344C552.303 737.688 551.485 736.773 550.908 735.599C550.338 734.42 550.053 733.047 550.053 731.483C550.053 729.919 550.338 728.54 550.908 727.347C551.485 726.147 552.287 725.212 553.314 724.543C554.348 723.866 555.555 723.528 556.934 723.528C557.729 723.528 558.515 723.661 559.29 723.926C560.066 724.191 560.772 724.622 561.408 725.219C562.044 725.809 562.551 726.591 562.929 727.565C563.307 728.54 563.496 729.74 563.496 731.165V732.159H551.723V730.131H561.11C561.11 729.269 560.937 728.5 560.593 727.824C560.255 727.148 559.771 726.614 559.141 726.223C558.518 725.832 557.782 725.636 556.934 725.636C555.999 725.636 555.19 725.868 554.507 726.332C553.831 726.79 553.311 727.386 552.946 728.122C552.582 728.858 552.4 729.647 552.4 730.489V731.841C552.4 732.994 552.598 733.972 552.996 734.774C553.4 735.57 553.961 736.176 554.676 736.594C555.392 737.005 556.224 737.21 557.172 737.21C557.789 737.21 558.346 737.124 558.843 736.952C559.346 736.773 559.781 736.508 560.145 736.156C560.51 735.798 560.792 735.354 560.99 734.824L563.257 735.46C563.019 736.229 562.618 736.905 562.054 737.489C561.491 738.065 560.795 738.516 559.966 738.841C559.138 739.159 558.206 739.318 557.172 739.318Z" fill="black"/>
<line x1="70" y1="474.75" x2="880" y2="474.75" stroke="black" stroke-width="0.5" stroke-dasharray="24 8 4 8"/>
</svg>
