<svg width="950" height="950" viewBox="0 0 950 950" fill="none" xmlns="http://www.w3.org/2000/svg">
<rect width="950" height="950" fill="white"/>
<path d="M453.905 508.532L456.211 499.953L457.458 490.693L457.572 481.055L456.551 471.38L454.435 461.969L451.298 453.2L447.216 445.376L442.378 438.687L436.935 433.433L431.077 429.729L424.954 427.764L418.831 427.575L412.898 429.162L407.342 432.488L402.353 437.439L398.157 443.827L394.831 451.461L392.488 460.041L391.279 469.339L391.165 478.976L392.186 488.652L394.302 498.025L397.439 506.794L401.483 514.655L406.321 521.307L411.764 526.598L417.66 530.265L423.745 532.23L429.905 532.419L435.839 530.831L441.395 527.506L446.346 522.554L450.579 516.167L453.905 508.532Z" fill="#D9D9D9"/>
<path d="M314.705 638.283L313.987 637.339L313.118 636.734L312.249 636.507L311.379 636.658L306.995 640.06L301.666 642.819L294.901 645.427L317.805 643.179L314.705 638.283Z" fill="#D9D9D9"/>
<path d="M366.372 699.172L354.39 688.891L353.521 688.324L352.652 688.135L351.783 688.324L350.989 688.929L347.663 694.409L343.241 699.739L337.534 705.597L370.859 702.309L366.372 699.172Z" fill="#D9D9D9"/>
<path d="M431.417 736.665L430.057 728.917L429.565 727.669L428.847 726.687L428.054 726.006L427.146 725.704L413.994 723.247L400.916 719.052L400.009 718.901L399.178 719.165L398.422 719.77L397.817 720.753L395.814 727.745L392.791 735.153L388.671 743.695L432.117 739.386L431.417 736.665Z" fill="#D9D9D9"/>
<path d="M490.302 744.261L484.255 733.943L481.307 728.123L478.548 721.206L477.83 720.224L476.998 719.581L476.129 719.317L475.26 719.468L462.636 723.512L449.748 725.817L448.879 726.12L448.161 726.762L447.594 727.783L447.216 728.992L446.724 736.854L445.439 745.546L443.323 755.94L545.483 745.887L546.957 738.667L490.302 744.261Z" fill="#D9D9D9"/>
<path d="M496.085 741.2L598.208 731.184L598.17 719.921L597.679 710.737L596.583 702.8L596.658 701.439L596.809 700.818L537.093 706.693L529.496 699.55L525.641 695.317L521.748 689.874L520.879 689.269L520.009 689.043L519.14 689.232L518.346 689.798L507.537 699.928L496.085 708.507L495.367 709.225L494.8 710.246L494.46 711.493L494.384 712.891L495.48 720.828L496.009 730.013L496.085 741.2Z" fill="#D9D9D9"/>
<path d="M598.208 731.184L496.085 741.2L490.302 744.261L546.957 738.667L592.501 734.17L598.208 731.184Z" fill="#D9D9D9"/>
<path d="M541.855 700.91L537.093 706.693L596.809 700.818L639.291 696.639L644.016 690.819L541.855 700.91Z" fill="#D9D9D9"/>
<path d="M572.885 646.976L564.457 643.688L560.072 641.42L555.386 638.019L554.479 637.83L553.647 638.057L552.853 638.661L552.249 639.606L544.274 654.838L535.43 668.86L534.901 669.918L534.561 671.165L534.523 672.564L534.712 673.962L537.282 681.181L539.55 689.95L541.855 700.91L644.016 690.819L641.748 679.896L639.48 671.128L636.872 663.909L636.683 662.472L636.759 661.112L637.061 659.827L637.591 658.806L646.435 644.784L649.231 639.463L572.885 646.976Z" fill="#D9D9D9"/>
<path d="M678.258 628.91L576.098 638.964L572.885 646.976L649.231 639.463L675.046 636.923L678.258 628.91Z" fill="#D9D9D9"/>
<path d="M576.098 638.964L678.258 628.91L674.025 619.31L670.208 611.827L666.39 606.006L665.937 604.721L665.748 603.323L665.786 601.924L666.05 600.639L671.455 582.573L676.066 562.844L594.088 570.963L589.439 571.424L585.698 571.802L581.2 571.726L576.211 570.668L575.342 570.97L574.624 571.613L574.019 572.558L573.641 573.767L569.257 592.627L563.89 610.693L563.587 611.978L563.55 613.376L563.776 614.775L564.23 616.06L568.009 621.88L571.827 629.364L576.098 638.964Z" fill="#D9D9D9"/>
<path d="M700.898 475.877L598.699 485.931L591.14 490.957L586.983 493.074L582.183 494.472L581.427 495.153L580.86 496.173L580.52 497.383L580.406 498.781L580.104 519.417L578.668 539.751V541.15L578.894 542.548L579.386 543.795L580.028 544.854L584.677 548.709L589.666 554.151L595.487 561.483L697.685 551.392L691.865 544.098L686.876 538.617L682.227 534.762L681.546 533.742L681.093 532.495L680.828 531.096L680.866 529.698L682.265 509.326L682.605 488.69L682.718 487.329L683.058 486.082L683.625 485.099L684.381 484.419L689.181 482.983L693.339 480.866L700.898 475.877Z" fill="#D9D9D9"/>
<path d="M696.287 560.841L697.685 551.392L595.487 561.483L594.088 570.963L676.066 562.844L696.287 560.841Z" fill="#D9D9D9"/>
<path d="M700.898 475.877L700.331 465.937L598.132 476.028L598.699 485.931L700.898 475.877Z" fill="#D9D9D9"/>
<path d="M598.132 476.028L700.331 465.937L693.527 461.628L687.858 458.718L682.794 457.206L682 456.526L681.32 455.505L680.828 454.258L680.526 452.898L677.842 432.224L674.101 411.852L673.912 410.454L674.025 409.055L674.327 407.808L674.894 406.787L679.014 403.046L682.453 398.926L688.425 390.309L586.264 400.4L580.255 409.017L576.853 413.099L572.696 416.841L572.167 417.899L571.827 419.146L571.751 420.545L571.902 421.943L575.682 442.315L578.365 462.951L578.63 464.35L579.121 465.597L579.802 466.58L580.633 467.26L585.66 468.772L591.329 471.682L598.132 476.028Z" fill="#D9D9D9"/>
<path d="M688.425 390.309L685.931 380.86L583.77 390.951L586.264 400.4L688.425 390.309Z" fill="#D9D9D9"/>
<path d="M565.893 390.951L570.844 389.969L667.033 380.471L666.39 379.953L665.672 379.008L665.143 377.761L658.642 358.825L651.159 340.683L650.705 339.398L650.516 338L650.554 336.639L650.857 335.354L653.956 329.647L656.299 323.94L660.116 312.564L557.956 322.617L554.101 333.994L551.795 339.739L548.696 345.408L548.394 346.693L548.318 348.091L548.545 349.49L548.961 350.775L556.444 368.917L562.983 387.852L563.512 389.061L564.192 390.044L565.024 390.687L565.893 390.951Z" fill="#D9D9D9"/>
<path d="M583.77 390.951L685.931 380.86L678.825 379.953L673.042 379.877L667.033 380.471L570.844 389.969L576.665 390.006L583.77 390.951Z" fill="#D9D9D9"/>
<path d="M553.798 314.567L557.956 322.617L660.116 312.564L655.997 304.513L633.093 306.767L553.798 314.567Z" fill="#D9D9D9"/>
<path d="M633.093 306.767L626.479 296.312L616.009 282.176L615.367 281.156L614.876 279.871L614.687 278.472V277.074L616.425 269.968L617.446 263.241L618.768 250.202L516.57 260.293L515.285 273.332L514.227 280.06L512.526 287.165L512.488 288.602L512.715 289.924L513.168 291.209L513.811 292.268L524.28 306.365L534.031 321.748L534.75 322.693L535.581 323.298L536.45 323.524L537.357 323.373L541.704 319.934L547.071 317.175L553.798 314.567L633.093 306.767Z" fill="#D9D9D9"/>
<path d="M516.57 260.293L618.768 250.202L613.364 244.343L580.028 247.635L511.165 254.435L516.57 260.293Z" fill="#D9D9D9"/>
<path d="M505.458 260.255L511.165 254.435L580.028 247.635L572.091 242.076L571.298 241.357L570.655 240.375L570.126 239.09L569.899 237.691L570.088 229.906L569.71 222.838L568.35 209.345L466.151 219.436L467.512 232.854L467.89 239.959L467.701 247.783L467.965 249.143L468.419 250.391L469.099 251.411L469.931 252.129L482.327 260.86L494.346 271.102L495.178 271.707L496.085 271.896L496.954 271.669L497.71 271.102L501.074 265.622L505.458 260.255Z" fill="#D9D9D9"/>
<path d="M466.151 219.436L568.35 209.345L562.227 206.246L518.8 210.534L460.028 216.337L466.151 219.436Z" fill="#D9D9D9"/>
<path d="M518.8 210.534L517.742 206.51L513.849 194.038L411.65 204.091L415.581 216.564L417.32 223.367L418.642 231.115L419.172 232.324L419.852 233.345L420.683 234.025L421.553 234.328L434.705 236.784L447.783 240.942L448.69 241.093L449.559 240.866L450.315 240.224L450.882 239.279L452.923 232.249L455.909 224.879L460.028 216.337L518.8 210.534Z" fill="#D9D9D9"/>
<path d="M411.65 204.091L513.849 194.038L507.575 194L405.414 204.054L411.65 204.091Z" fill="#D9D9D9"/>
<path d="M401.975 223.14L403.298 214.447L403.944 211.272L358.397 215.77L364.444 226.088L367.392 231.871L370.227 238.901L370.869 239.77L371.701 240.413L372.608 240.677L373.477 240.526L386.063 236.482L398.951 234.176L399.82 233.912L400.576 233.232L401.143 232.249L401.483 231.002L401.975 223.14Z" fill="#D9D9D9"/>
<path d="M353.332 250.769L353.899 249.748L354.064 249.143L311.606 253.301L319.203 260.444L323.058 264.677L326.989 270.12L327.82 270.724L328.69 270.951L329.559 270.762L330.353 270.195L341.2 260.066L352.614 251.487L353.332 250.769Z" fill="#D9D9D9"/>
<path d="M301.628 310.523L275.852 313.017L284.242 316.306L288.627 318.573L293.313 322.013L294.22 322.164L295.09 321.937L295.846 321.332L296.45 320.425L301.628 310.523Z" fill="#D9D9D9"/>
<path d="M274.81 387.02L263.001 388.192L267.499 388.268L272.488 389.326L273.357 389.061L274.113 388.419L274.68 387.436L274.81 387.02Z" fill="#D9D9D9"/>
<path d="M700.898 475.877L700.331 465.937M700.898 475.877L598.699 485.931M700.898 475.877L693.339 480.866L689.181 482.983L684.381 484.419L683.625 485.099L683.058 486.082L682.718 487.329L682.605 488.69L682.265 509.326L680.866 529.698L680.828 531.096L681.093 532.495L681.546 533.742L682.227 534.762L686.876 538.617L691.865 544.098L697.685 551.392M700.331 465.937L598.132 476.028M700.331 465.937L693.527 461.628L687.858 458.718L682.794 457.206L682 456.526L681.32 455.505L680.828 454.258L680.526 452.898L677.842 432.224L674.101 411.852L673.912 410.454L674.025 409.055L674.327 407.808L674.894 406.787L679.014 403.046L682.453 398.926L688.425 390.309M598.132 476.028L598.699 485.931M598.132 476.028L591.329 471.682L585.66 468.772L580.633 467.26L579.802 466.58L579.121 465.597L578.63 464.35L578.365 462.951L575.682 442.315L571.902 421.943L571.751 420.545L571.827 419.146L572.167 417.899L572.696 416.841L576.853 413.099L580.255 409.017L586.264 400.4M598.699 485.931L591.14 490.957L586.983 493.074L582.183 494.472L581.427 495.153L580.86 496.173L580.52 497.383L580.406 498.781L580.104 519.417L578.668 539.751V541.15L578.894 542.548L579.386 543.795L580.028 544.854L584.677 548.709L589.666 554.151L595.487 561.483M697.685 551.392L696.287 560.841L676.066 562.844M697.685 551.392L595.487 561.483M594.088 570.963L595.487 561.483M594.088 570.963L589.439 571.424L585.698 571.802L581.2 571.726L576.211 570.668L575.342 570.97L574.624 571.613L574.019 572.558L573.641 573.767L569.257 592.627L563.89 610.693L563.587 611.978L563.55 613.376L563.776 614.775L564.23 616.06L568.009 621.88L571.827 629.364L576.098 638.964M594.088 570.963L676.066 562.844M688.425 390.309L685.931 380.86M688.425 390.309L586.264 400.4M685.931 380.86L583.77 390.951M685.931 380.86L678.825 379.953L673.042 379.877L667.033 380.471M583.77 390.951L586.264 400.4M583.77 390.951L576.665 390.006L570.844 389.969M570.844 389.969L565.893 390.951L565.024 390.687L564.192 390.044L563.512 389.061L562.983 387.852L556.444 368.917L548.961 350.775L548.545 349.49L548.318 348.091L548.394 346.693L548.696 345.408L551.795 339.739L554.101 333.994L557.956 322.617M570.844 389.969L667.033 380.471M576.098 638.964L678.258 628.91M576.098 638.964L572.885 646.976M678.258 628.91L675.046 636.923L649.231 639.463M678.258 628.91L674.025 619.31L670.208 611.827L666.39 606.006L665.937 604.721L665.748 603.323L665.786 601.924L666.05 600.639L671.455 582.573L676.066 562.844M572.885 646.976L564.457 643.688L560.072 641.42L555.386 638.019L554.479 637.83L553.647 638.057L552.853 638.661L552.249 639.606L544.274 654.838L535.43 668.86L534.901 669.918L534.561 671.165L534.523 672.564L534.712 673.962L537.282 681.181L539.55 689.95L541.855 700.91M572.885 646.976L649.231 639.463M557.956 322.617L553.798 314.567M557.956 322.617L660.116 312.564M553.798 314.567L547.071 317.175L541.704 319.934L537.357 323.373L536.45 323.524L535.581 323.298L534.75 322.693L534.031 321.748L524.28 306.365L513.811 292.268L513.168 291.209L512.715 289.924L512.488 288.602L512.526 287.165L514.227 280.06L515.285 273.332L516.57 260.293M553.798 314.567L633.093 306.767M660.116 312.564L655.997 304.513L633.093 306.767M660.116 312.564L656.299 323.94L653.956 329.647L650.857 335.354L650.554 336.639L650.516 338L650.705 339.398L651.159 340.683L658.642 358.825L665.143 377.761L665.672 379.008L666.39 379.953L667.033 380.471M541.855 700.91L537.093 706.693M541.855 700.91L644.016 690.819M537.093 706.693L529.496 699.55L525.641 695.317L521.748 689.874L520.879 689.269L520.009 689.043L519.14 689.232L518.346 689.798L507.537 699.928L496.085 708.507L495.367 709.225L494.8 710.246L494.46 711.493L494.384 712.891L495.48 720.828L496.009 730.013L496.085 741.2M537.093 706.693L596.809 700.818M644.016 690.819L639.291 696.639L596.809 700.818M644.016 690.819L641.748 679.896L639.48 671.128L636.872 663.909L636.683 662.472L636.759 661.112L637.061 659.827L637.591 658.806L646.435 644.784L649.231 639.463M633.093 306.767L626.479 296.312L616.009 282.176L615.367 281.156L614.876 279.871L614.687 278.472V277.074L616.425 269.968L617.446 263.241L618.768 250.202M618.768 250.202L516.57 260.293M618.768 250.202L613.364 244.343L580.028 247.635M516.57 260.293L511.165 254.435M511.165 254.435L505.458 260.255L501.074 265.622L497.71 271.102L496.954 271.669L496.085 271.896L495.178 271.707L494.346 271.102L482.327 260.86L469.931 252.129L469.099 251.411L468.419 250.391L467.965 249.143L467.701 247.783L467.89 239.959L467.512 232.854L466.151 219.436M511.165 254.435L580.028 247.635M598.208 731.184L496.085 741.2M598.208 731.184L592.501 734.17L546.957 738.667M598.208 731.184L598.17 719.921L597.679 710.737L596.583 702.8L596.658 701.439L596.809 700.818M496.085 741.2L490.302 744.261M490.302 744.261L484.255 733.943L481.307 728.123L478.548 721.206L477.83 720.224L476.998 719.581L476.129 719.317L475.26 719.468L462.636 723.512L449.748 725.817L448.879 726.12L448.161 726.762L447.594 727.783L447.216 728.992L446.724 736.854L445.439 745.546L443.323 755.94L545.483 745.887L546.957 738.667M490.302 744.261L546.957 738.667M466.151 219.436L568.35 209.345M466.151 219.436L460.028 216.337M568.35 209.345L569.71 222.838L570.088 229.906L569.899 237.691L570.126 239.09L570.655 240.375L571.298 241.357L572.091 242.076L580.028 247.635M568.35 209.345L562.227 206.246L518.8 210.534M460.028 216.337L455.909 224.879L452.923 232.249L450.882 239.279L450.315 240.224L449.559 240.866L448.69 241.093L447.783 240.942L434.705 236.784L421.553 234.328L420.683 234.025L419.852 233.345L419.172 232.324L418.642 231.115L417.32 223.367L415.581 216.564L411.65 204.091M460.028 216.337L518.8 210.534M518.8 210.534L517.742 206.51L513.849 194.038M513.849 194.038L411.65 204.091M513.849 194.038L507.575 194L405.414 204.054L411.65 204.091M274.81 387.02L263.001 388.192L267.499 388.268L272.488 389.326L273.357 389.061L274.113 388.419L274.68 387.436L274.81 387.02ZM274.81 387.02L275.058 386.227M453.905 508.532L456.211 499.953L457.458 490.693L457.572 481.055L456.551 471.38L454.435 461.969L451.298 453.2L447.216 445.376L442.378 438.687L436.935 433.433L431.077 429.729L424.954 427.764L418.831 427.575L412.898 429.162L407.342 432.488L402.353 437.439L398.157 443.827L394.831 451.461L392.488 460.041L391.279 469.339L391.165 478.976L392.186 488.652L394.302 498.025L397.439 506.794L401.483 514.655L406.321 521.307L411.764 526.598L417.66 530.265L423.745 532.23L429.905 532.419L435.839 530.831L441.395 527.506L446.346 522.554L450.579 516.167L453.905 508.532ZM431.417 736.665L430.057 728.917L429.565 727.669L428.847 726.687L428.054 726.006L427.146 725.704L413.994 723.247L400.916 719.052L400.009 718.901L399.178 719.165L398.422 719.77L397.817 720.753L395.814 727.745L392.791 735.153L388.671 743.695L432.117 739.386L431.417 736.665ZM403.298 214.447L401.975 223.14L401.483 231.002L401.143 232.249L400.576 233.232L399.82 233.912L398.951 234.176L386.063 236.482L373.477 240.526L372.608 240.677L371.701 240.413L370.869 239.77L370.227 238.901L367.392 231.871L364.444 226.088L358.397 215.77L403.944 211.272L403.298 214.447ZM353.899 249.748L353.332 250.769L352.614 251.487L341.2 260.066L330.353 270.195L329.559 270.762L328.69 270.951L327.82 270.724L326.989 270.12L323.058 264.677L319.203 260.444L311.606 253.301L354.064 249.143L353.899 249.748ZM366.372 699.172L354.39 688.891L353.521 688.324L352.652 688.135L351.783 688.324L350.989 688.929L347.663 694.409L343.241 699.739L337.534 705.597L370.859 702.309L366.372 699.172ZM314.705 638.283L313.987 637.339L313.118 636.734L312.249 636.507L311.379 636.658L306.995 640.06L301.666 642.819L294.901 645.427L317.805 643.179L314.705 638.283ZM275.852 313.017L301.628 310.523L296.45 320.425L295.846 321.332L295.09 321.937L294.22 322.164L293.313 322.013L288.627 318.573L284.242 316.306L275.852 313.017Z" stroke="black" stroke-linecap="round" stroke-linejoin="round"/>
<path d="M513.849 194.038L517.742 206.51L518.8 210.534L562.227 206.246L568.35 209.345L569.71 222.838L570.088 229.906L569.899 237.691L570.126 239.09L570.655 240.375L571.298 241.357L572.091 242.076L580.028 247.635L613.364 244.343L618.768 250.202L617.446 263.241L616.425 269.968L614.687 277.074V278.472L614.876 279.871L615.367 281.156L616.009 282.176L626.479 296.312L633.093 306.767L655.997 304.513L660.116 312.564L656.299 323.94L653.956 329.647L650.857 335.354L650.554 336.639L650.516 338L650.705 339.398L651.159 340.683L658.642 358.825L665.143 377.761L665.672 379.008L666.39 379.953L667.033 380.471L673.042 379.877L678.825 379.953L685.931 380.86L688.425 390.309L682.453 398.926L679.014 403.046L674.894 406.787L674.327 407.808L674.025 409.055L673.912 410.454L674.101 411.852L677.842 432.224L680.526 452.898L680.828 454.258L681.32 455.505L682 456.526L682.794 457.206L687.858 458.718L693.527 461.628L700.331 465.937L700.898 475.877L693.339 480.866L689.181 482.983L684.381 484.419L683.625 485.099L683.058 486.082L682.718 487.329L682.605 488.69L682.265 509.326L680.866 529.698L680.828 531.096L681.093 532.495L681.546 533.742L682.227 534.762L686.876 538.617L691.865 544.098L697.685 551.392L696.287 560.841L676.066 562.844L671.455 582.573L666.05 600.639L665.786 601.924L665.748 603.323L665.937 604.721L666.39 606.006L670.208 611.827L674.025 619.31L678.258 628.91L675.046 636.923L649.231 639.463L646.435 644.784L637.591 658.806L637.061 659.827L636.759 661.112L636.683 662.472L636.872 663.909L639.48 671.128L641.748 679.896L644.016 690.819L639.291 696.639L596.809 700.818L596.658 701.439L596.583 702.8L597.679 710.737L598.17 719.921L598.208 731.184L592.501 734.17L546.957 738.667L545.483 745.887L443.323 755.94L437.049 755.902L433.156 743.43L432.117 739.386L388.671 743.695L382.548 740.595L381.187 727.178L380.809 720.035L380.998 712.249L380.772 710.85L380.28 709.603L379.6 708.583L378.806 707.865L370.859 702.309L337.534 705.597L332.129 699.739L333.452 686.699L334.472 679.972L336.211 672.866V671.468L336.022 670.107L335.531 668.784L334.888 667.764L324.419 653.628L317.805 643.179L294.901 645.427L290.781 637.376L294.598 626L296.942 620.293L300.041 614.586L300.343 613.301L300.381 611.94L300.192 610.542L299.738 609.257L292.255 591.115L285.754 572.18L285.225 570.932L284.507 569.987L283.822 569.458L278.12 570.025L272.072 569.987L264.967 569.08L262.472 559.632L268.444 551.014L271.883 546.895L276.003 543.153L276.57 542.132L276.872 540.885L276.986 539.487L276.797 538.088L273.055 517.717L270.372 497.043L270.069 495.682L269.578 494.435L268.898 493.414L268.104 492.734L263.039 491.222L257.37 488.312L250.567 484.003L250 474.063L257.559 469.074L261.716 466.957L266.516 465.521L267.272 464.841L267.839 463.858L268.179 462.611L268.293 461.25L268.633 440.614L270.031 420.243L270.069 418.844L269.805 417.446L269.351 416.274L268.671 415.178L264.022 411.323L259.033 405.843L253.213 398.548L254.611 389.099L263.001 388.192L274.81 387.02L275.058 386.227L279.442 367.367L284.847 349.301L285.112 348.016L285.15 346.617L284.961 345.219L284.507 343.934L280.69 338.113L276.872 330.63L272.639 321.03L275.852 313.017L301.628 310.523L304.425 305.156L313.307 291.134L313.836 290.113L314.139 288.828L314.214 287.468L314.025 286.031L311.417 278.813L309.15 270.044L306.882 259.121L311.606 253.301L354.064 249.143L354.239 248.501L354.315 247.14L353.219 239.203L352.727 230.019L352.614 218.794L358.397 215.77L403.944 211.272L405.414 204.054M513.849 194.038L411.65 204.091L405.414 204.054M513.849 194.038L507.575 194L405.414 204.054" stroke="black" stroke-width="2" stroke-linecap="round" stroke-linejoin="round"/>
</svg>
