<svg width="950" height="950" viewBox="0 0 950 950" fill="none" xmlns="http://www.w3.org/2000/svg">
<rect width="950" height="950" fill="white"/>
<path d="M183.709 217H129V733.433H183.709V621.763V328.67V217Z" fill="#D9D9D9"/>
<path d="M280.816 621.763V328.67H183.709V621.763H280.816Z" fill="#D9D9D9"/>
<path d="M331.118 586.456L438.812 586.504V363.93L331.118 363.977C293.5 363.93 280.816 328.67 280.816 328.67V621.763C280.816 621.763 293.5 586.456 331.118 586.456Z" fill="#D9D9D9"/>
<path d="M438.812 363.93V586.504C438.814 577.551 446.067 570.295 455.02 570.29C463.978 570.285 471.243 577.546 471.245 586.504V363.929C471.241 372.886 463.977 380.145 455.02 380.14C446.068 380.135 438.815 372.882 438.812 363.93Z" fill="#E0D2FF"/>
<path d="M471.245 586.504H575.394V363.929H471.245V586.504Z" fill="#D9D9D9"/>
<path d="M575.394 586.504L603.994 557.041V393.392L575.394 363.929V586.504Z" fill="#D9D9D9"/>
<path d="M603.994 393.392V557.041L669.913 557V393.392H603.994Z" fill="#D9D9D9"/>
<path d="M701.58 363.929H669.913V393.392V557V586.504H701.58V556.993V393.44V363.929Z" fill="#D9D9D9"/>
<path d="M701.58 556.993H820.005V530.692H749.055V417.968H820.005V393.44H701.58V556.993Z" fill="#D9D9D9"/>
<path d="M749.055 530.692H820.005V417.968H749.055V530.692Z" fill="#D9D9D9"/>
<path d="M280.816 621.763V328.67M280.816 621.763H183.709M280.816 621.763C280.816 621.763 293.5 586.456 331.118 586.456L438.812 586.504M438.812 586.504V363.93M438.812 586.504C438.814 577.551 446.067 570.295 455.02 570.29C463.978 570.285 471.243 577.546 471.245 586.504M438.812 363.93L331.118 363.977C293.5 363.93 280.816 328.67 280.816 328.67M438.812 363.93C438.815 372.882 446.068 380.135 455.02 380.14C463.977 380.145 471.241 372.886 471.245 363.929M280.816 328.67H183.709M183.709 621.763V733.433H129V217H183.709V328.67M183.709 621.763V328.67M471.245 586.504H575.394M471.245 586.504V363.929M471.245 363.929H575.394M575.394 586.504L603.994 557.041M575.394 586.504V363.929M575.394 363.929L603.994 393.392M603.994 557.041V393.392M603.994 557.041L669.913 557M603.994 393.392H669.913M669.913 393.392V557M669.913 393.392V363.929H701.58V393.44M669.913 557V586.504H701.58V556.993M701.58 556.993H820.005V530.692M701.58 556.993V393.44M820.005 530.692H749.055M820.005 530.692V417.968M820.005 530.692L749.055 417.968M749.055 530.692V417.968M749.055 530.692L820.005 417.968M749.055 417.968H820.005M820.005 417.968V393.44H701.58" stroke="black" stroke-linecap="round" stroke-linejoin="round"/>
<path d="M183.709 217H129V733.433H183.709V621.763H280.816C280.816 621.763 293.5 586.456 331.118 586.456L438.812 586.504C438.814 577.551 446.067 570.295 455.02 570.29C463.978 570.285 471.243 577.546 471.245 586.504H575.394L603.994 557.041L669.913 557V586.504H701.58V556.993H820.005V530.692V417.968V393.44H701.58V363.929H669.913V393.392H603.994L575.394 363.929H471.245C471.241 372.886 463.977 380.145 455.02 380.14C446.068 380.135 438.815 372.882 438.812 363.93L331.118 363.977C293.5 363.93 280.816 328.67 280.816 328.67H183.709V217Z" stroke="black" stroke-width="2" stroke-linecap="round" stroke-linejoin="round"/>
<line x1="70" y1="474.75" x2="880" y2="474.75" stroke="black" stroke-width="0.5" stroke-dasharray="24 8 4 8"/>
</svg>
