<svg width="950" height="950" viewBox="0 0 950 950" fill="none" xmlns="http://www.w3.org/2000/svg">
<rect width="950" height="950" fill="white"/>
<path fill-rule="evenodd" clip-rule="evenodd" d="M291.759 405.795V176H658.449V405.795L604.25 406.362L603.684 773.052H346.524L345.958 406.362L291.759 405.795Z" fill="#D9D9D9"/>
<path d="M241 176.076V772.712L346.524 773.052L345.958 406.362L291.759 405.795V176L241 176.076Z" fill="#B3B3B3"/>
<path d="M709.208 772.712V176.076L658.449 176V405.795L604.25 406.362L603.684 773.052L709.208 772.712Z" fill="#B3B3B3"/>
<path d="M291.259 405.795V406.29L291.754 406.295L345.458 406.857L346.024 772.55L241.5 772.213V176.575L291.259 176.501V405.795ZM347.024 772.552L346.458 406.862H603.75L603.184 772.552H347.024ZM604.184 772.55L604.75 406.857L658.454 406.295L658.949 406.29V405.795V176.501L708.708 176.575V772.213L604.184 772.55ZM657.949 176.5V405.3L604.25 405.862H604.248H345.96H345.958L292.259 405.3V176.5H657.949Z" stroke="black"/>
<path d="M709.208 176.076V772.712H241V176.076H709.208Z" stroke="black" stroke-width="2" stroke-linecap="round" stroke-linejoin="round"/>
<mask id="mask0_2006_188" style="mask-type:alpha" maskUnits="userSpaceOnUse" x="241" y="176" width="469" height="598">
<path d="M291.259 405.795V406.29L291.754 406.295L345.458 406.857L346.024 772.55L241.5 772.213V176.575L291.259 176.501V405.795ZM658.454 406.295L658.949 406.29V405.795V176.501L708.708 176.575V772.213L604.184 772.55L604.75 406.857L658.454 406.295Z" fill="#D9D9D9" stroke="black"/>
</mask>
<g mask="url(#mask0_2006_188)">
<line x1="152.823" y1="740.143" x2="859.93" y2="33.0366" stroke="black" stroke-width="0.5"/>
<line x1="152.823" y1="576.037" x2="859.93" y2="-131.07" stroke="black" stroke-width="0.5"/>
<line x1="152.823" y1="411.93" x2="859.93" y2="-295.177" stroke="black" stroke-width="0.5"/>
<line x1="152.823" y1="247.833" x2="859.93" y2="-459.274" stroke="black" stroke-width="0.5"/>
<line x1="152.823" y1="1232.46" x2="859.93" y2="525.357" stroke="black" stroke-width="0.5"/>
<line x1="152.823" y1="1068.36" x2="859.93" y2="361.25" stroke="black" stroke-width="0.5"/>
<line x1="152.823" y1="904.25" x2="859.93" y2="197.143" stroke="black" stroke-width="0.5"/>
</g>
</svg>
