<svg width="950" height="950" viewBox="0 0 950 950" fill="none" xmlns="http://www.w3.org/2000/svg">
<rect width="950" height="950" fill="white"/>
<path fill-rule="evenodd" clip-rule="evenodd" d="M84.6079 419.783L84.0031 416.797L378.542 167.764L845.389 429.685L865.987 532.375L571.449 781.408L104.602 519.487L84.6079 419.783ZM371.323 439.89L404.696 411.657L578.668 509.282L545.295 537.515L371.323 439.89Z" fill="white" stroke="black" stroke-width="1.99937" stroke-linecap="round" stroke-linejoin="round"/>
<path d="M384.135 308.967L285.943 392.003L371.323 439.89L404.696 411.657L384.135 308.967Z" fill="#D9D9D9"/>
<path d="M845.389 429.685L865.987 532.375L571.449 781.408L550.85 678.718L845.389 429.685Z" fill="#D9D9D9"/>
<path d="M384.135 308.967L285.943 392.003L371.323 439.89L404.696 411.657L384.135 308.967Z" stroke="black" stroke-linecap="round" stroke-linejoin="round"/>
<path d="M845.389 429.685L865.987 532.375L571.449 781.408L550.85 678.718L845.389 429.685Z" stroke="black" stroke-linecap="round" stroke-linejoin="round"/>
<path fill-rule="evenodd" clip-rule="evenodd" d="M84.6079 419.783L84.0031 416.797L378.542 167.764L845.389 429.685L865.987 532.375L571.449 781.408L104.602 519.487L84.6079 419.783Z" stroke="black" stroke-width="0.7" stroke-linecap="round" stroke-linejoin="round"/>
<path d="M84.0031 416.797L550.85 678.718L571.449 781.408" stroke="black" stroke-width="0.7" stroke-linecap="round" stroke-linejoin="round"/>
<path d="M384.135 308.967L285.943 392.003L545.295 537.515L643.487 454.479L384.135 308.967ZM384.135 308.967L404.696 411.657L371.323 439.89" stroke="black" stroke-width="0.7" stroke-linecap="round" stroke-linejoin="round"/>
<path d="M578.668 509.282L404.696 411.657" stroke="black" stroke-width="0.7" stroke-linecap="round" stroke-linejoin="round"/>
<path d="M550.85 678.718L845.389 429.685" stroke="black" stroke-width="0.7" stroke-linecap="round" stroke-linejoin="round"/>
</svg>
