<svg width="950" height="950" viewBox="0 0 950 950" fill="none" xmlns="http://www.w3.org/2000/svg">
<rect width="950" height="950" fill="white"/>
<path d="M129.309 250H82.1331V695.323H129.309V599.029V346.294V250Z" fill="#D9D9D9"/>
<path d="M213.045 599.029V346.294H129.309V599.029H213.045Z" fill="#D9D9D9"/>
<path d="M349.285 376.698V568.625C349.287 560.905 355.542 554.648 363.262 554.644C370.986 554.64 377.251 560.901 377.252 568.625V376.698C377.25 384.421 370.985 390.68 363.262 390.676C355.542 390.672 349.288 384.417 349.285 376.698Z" fill="#D9D9D9"/>
<path d="M377.252 568.625H467.061V376.698H377.252V568.625Z" fill="#D9D9D9"/>
<path d="M467.061 568.625L491.723 543.219V402.104L467.061 376.698V568.625Z" fill="#D9D9D9"/>
<path d="M491.723 402.104V543.219L548.565 543.184V402.104H491.723Z" fill="#D9D9D9"/>
<path d="M575.871 376.698H548.565V402.104V543.184V568.625H575.871V543.178V402.145V376.698Z" fill="#D9D9D9"/>
<path d="M575.871 543.178H677.99V521.266H616.81V424.061H677.99V402.145H575.871V543.178Z" fill="#D9D9D9"/>
<path d="M616.81 521.266H677.99V424.061H616.81V521.266Z" fill="#E0D2FF"/>
<path d="M256.42 568.583L349.285 568.625V376.698L256.42 376.739C223.982 376.698 213.045 346.294 213.045 346.294V599.029C213.045 599.029 223.982 568.583 256.42 568.583Z" fill="#D9D9D9"/>
<path d="M213.045 599.029V346.294M213.045 599.029H129.309M213.045 599.029C213.045 599.029 223.982 568.583 256.42 568.583L349.285 568.625M349.285 568.625V376.698M349.285 568.625C349.287 560.905 355.542 554.648 363.262 554.644C370.986 554.64 377.251 560.901 377.252 568.625M349.285 376.698L256.42 376.739C223.982 376.698 213.045 346.294 213.045 346.294M349.285 376.698C349.288 384.417 355.542 390.672 363.262 390.676C370.985 390.68 377.25 384.421 377.252 376.698M213.045 346.294H129.309M129.309 599.029V695.323H82.1331V250H129.309V346.294M129.309 599.029V346.294M377.252 568.625H467.061M377.252 568.625V376.698M377.252 376.698H467.061M467.061 568.625L491.723 543.219M467.061 568.625V376.698M467.061 376.698L491.723 402.104M491.723 543.219V402.104M491.723 543.219L548.565 543.184M491.723 402.104H548.565M548.565 402.104V543.184M548.565 402.104V376.698H575.871V402.145M548.565 543.184V568.625H575.871V543.178M575.871 543.178H677.99V521.266M575.871 543.178V402.145M677.99 521.266H616.81M677.99 521.266V424.061M677.99 521.266L616.81 424.061M616.81 521.266V424.061M616.81 521.266L677.99 424.061M616.81 424.061H677.99M677.99 424.061V402.145H575.871" stroke="black" stroke-linecap="round" stroke-linejoin="round"/>
<path fill-rule="evenodd" clip-rule="evenodd" d="M129.309 346.294H213.045Z" stroke="black" stroke-width="2" stroke-linecap="round" stroke-linejoin="round"/>
<path fill-rule="evenodd" clip-rule="evenodd" d="M491.723 402.104L467.06 376.698Z" stroke="black" stroke-width="2" stroke-linecap="round" stroke-linejoin="round"/>
<path fill-rule="evenodd" clip-rule="evenodd" d="M491.723 543.219L548.565 543.184Z" stroke="black" stroke-width="2" stroke-linecap="round" stroke-linejoin="round"/>
<line x1="658.413" y1="336.863" x2="658.413" y2="607.681" stroke="black" stroke-width="0.5" stroke-linecap="square" stroke-dasharray="24 8 4 8"/>
<path d="M658.87 358.191C659.26 357.8 659.26 357.167 658.87 356.777L652.506 350.413C652.115 350.022 651.482 350.022 651.092 350.413C650.701 350.803 650.701 351.436 651.092 351.827L656.748 357.484L651.092 363.141C650.701 363.531 650.701 364.164 651.092 364.555C651.482 364.945 652.115 364.945 652.506 364.555L658.87 358.191ZM574.68 358.484H658.163V356.484H574.68V358.484Z" fill="black"/>
<path d="M658.87 587.768C659.26 587.377 659.26 586.744 658.87 586.354L652.506 579.99C652.115 579.599 651.482 579.599 651.092 579.99C650.701 580.38 650.701 581.013 651.092 581.404L656.748 587.061L651.092 592.718C650.701 593.108 650.701 593.741 651.092 594.132C651.482 594.522 652.115 594.522 652.506 594.132L658.87 587.768ZM574.68 588.061H658.163V586.061H574.68V588.061Z" fill="black"/>
<path d="M651.481 329.438H648.896L656.373 309.074H658.919L666.396 329.438H663.811L657.725 312.296H657.566L651.481 329.438ZM652.436 321.483H662.856V323.671H652.436V321.483Z" fill="black"/>
<path d="M651.481 635.193H648.896L656.373 614.829H658.919L666.396 635.193H663.811L657.725 618.051H657.566L651.481 635.193ZM652.436 627.238H662.856V629.426H652.436V627.238Z" fill="black"/>
<path d="M134.734 625.965C134.734 640.252 146.316 651.834 160.603 651.834H406.36C418.266 651.834 427.917 661.486 427.917 673.392C427.917 661.486 437.569 651.834 449.475 651.834H652.117C666.404 651.834 677.986 640.252 677.986 625.965" stroke="black" stroke-width="3"/>
<path d="M399.684 702.38C398.716 702.38 397.837 702.198 397.049 701.833C396.26 701.462 395.633 700.928 395.169 700.232C394.705 699.53 394.473 698.681 394.473 697.687C394.473 696.812 394.646 696.103 394.99 695.559C395.335 695.009 395.796 694.578 396.373 694.267C396.949 693.955 397.586 693.723 398.282 693.57C398.984 693.411 399.69 693.285 400.399 693.193C401.328 693.073 402.08 692.984 402.657 692.924C403.24 692.858 403.664 692.749 403.929 692.596C404.201 692.444 404.337 692.178 404.337 691.801V691.721C404.337 690.74 404.069 689.978 403.532 689.434C403.001 688.891 402.196 688.619 401.115 688.619C399.995 688.619 399.117 688.864 398.48 689.355C397.844 689.845 397.397 690.369 397.138 690.926L394.911 690.13C395.309 689.202 395.839 688.48 396.502 687.963C397.171 687.439 397.9 687.074 398.689 686.869C399.485 686.657 400.267 686.551 401.036 686.551C401.526 686.551 402.09 686.61 402.726 686.73C403.369 686.842 403.989 687.078 404.586 687.436C405.189 687.793 405.689 688.334 406.087 689.056C406.485 689.779 406.684 690.747 406.684 691.96V702.022H404.337V699.954H404.218C404.059 700.285 403.793 700.64 403.422 701.018C403.051 701.396 402.557 701.717 401.941 701.982C401.324 702.248 400.572 702.38 399.684 702.38ZM400.042 700.272C400.97 700.272 401.752 700.09 402.388 699.725C403.031 699.361 403.515 698.89 403.84 698.313C404.171 697.737 404.337 697.13 404.337 696.494V694.346C404.238 694.465 404.019 694.575 403.681 694.674C403.349 694.767 402.965 694.85 402.527 694.923C402.096 694.989 401.676 695.049 401.265 695.102C400.86 695.148 400.532 695.188 400.28 695.221C399.67 695.301 399.1 695.43 398.57 695.609C398.046 695.781 397.622 696.043 397.297 696.394C396.979 696.739 396.82 697.21 396.82 697.806C396.82 698.622 397.122 699.238 397.725 699.656C398.335 700.067 399.107 700.272 400.042 700.272ZM410.967 702.022V686.749H413.234V689.056H413.393C413.671 688.301 414.175 687.687 414.904 687.217C415.633 686.746 416.455 686.511 417.37 686.511C417.542 686.511 417.758 686.514 418.016 686.521C418.275 686.527 418.47 686.537 418.603 686.551V688.937C418.523 688.917 418.341 688.887 418.056 688.847C417.778 688.801 417.483 688.778 417.171 688.778C416.429 688.778 415.766 688.934 415.183 689.245C414.606 689.55 414.148 689.974 413.81 690.518C413.479 691.055 413.313 691.668 413.313 692.357V702.022H410.967ZM421.703 702.022V681.659H424.049V689.176H424.248C424.421 688.91 424.659 688.572 424.964 688.161C425.276 687.744 425.72 687.373 426.297 687.048C426.88 686.716 427.669 686.551 428.663 686.551C429.949 686.551 431.082 686.872 432.064 687.515C433.045 688.158 433.81 689.07 434.36 690.249C434.911 691.429 435.186 692.821 435.186 694.426C435.186 696.043 434.911 697.445 434.36 698.632C433.81 699.811 433.048 700.726 432.073 701.376C431.099 702.019 429.975 702.34 428.703 702.34C427.722 702.34 426.936 702.178 426.346 701.853C425.756 701.522 425.302 701.147 424.984 700.73C424.666 700.305 424.421 699.954 424.248 699.676H423.97V702.022H421.703ZM424.01 694.386C424.01 695.539 424.179 696.557 424.517 697.438C424.855 698.313 425.349 698.999 425.998 699.497C426.648 699.987 427.443 700.232 428.385 700.232C429.366 700.232 430.184 699.974 430.841 699.457C431.503 698.933 432.001 698.231 432.332 697.349C432.67 696.461 432.839 695.473 432.839 694.386C432.839 693.312 432.673 692.344 432.342 691.482C432.017 690.614 431.523 689.928 430.86 689.424C430.204 688.914 429.379 688.659 428.385 688.659C427.43 688.659 426.628 688.901 425.978 689.384C425.329 689.862 424.838 690.531 424.507 691.393C424.175 692.248 424.01 693.246 424.01 694.386ZM438.775 702.022V686.749H441.042V689.056H441.201C441.48 688.301 441.984 687.687 442.713 687.217C443.442 686.746 444.264 686.511 445.179 686.511C445.351 686.511 445.566 686.514 445.825 686.521C446.083 686.527 446.279 686.537 446.412 686.551V688.937C446.332 688.917 446.15 688.887 445.865 688.847C445.586 688.801 445.291 688.778 444.98 688.778C444.237 688.778 443.574 688.934 442.991 689.245C442.414 689.55 441.957 689.974 441.619 690.518C441.288 691.055 441.122 691.668 441.122 692.357V702.022H438.775ZM455.132 702.34C453.66 702.34 452.391 702.016 451.323 701.366C450.263 700.71 449.444 699.795 448.868 698.622C448.297 697.442 448.012 696.07 448.012 694.505C448.012 692.941 448.297 691.562 448.868 690.369C449.444 689.169 450.246 688.234 451.274 687.565C452.308 686.889 453.514 686.551 454.893 686.551C455.689 686.551 456.474 686.683 457.25 686.948C458.025 687.213 458.731 687.644 459.368 688.241C460.004 688.831 460.511 689.613 460.889 690.588C461.267 691.562 461.456 692.762 461.456 694.187V695.181H449.683V693.153H459.069C459.069 692.291 458.897 691.522 458.552 690.846C458.214 690.17 457.73 689.636 457.1 689.245C456.477 688.854 455.742 688.659 454.893 688.659C453.958 688.659 453.15 688.891 452.467 689.355C451.791 689.812 451.27 690.409 450.906 691.144C450.541 691.88 450.359 692.669 450.359 693.511V694.863C450.359 696.017 450.558 696.994 450.956 697.796C451.36 698.592 451.92 699.198 452.636 699.616C453.352 700.027 454.184 700.232 455.132 700.232C455.748 700.232 456.305 700.146 456.802 699.974C457.306 699.795 457.74 699.53 458.105 699.178C458.469 698.82 458.751 698.376 458.95 697.846L461.217 698.482C460.978 699.251 460.577 699.927 460.014 700.511C459.45 701.088 458.754 701.538 457.926 701.863C457.097 702.181 456.166 702.34 455.132 702.34Z" fill="black"/>
<path d="M804.257 424.061C817.103 410.561 835.243 402.147 855.349 402.147C875.455 402.147 893.596 410.561 906.442 424.061V521.266C893.596 534.766 875.455 543.18 855.349 543.18C835.453 543.18 817.481 534.94 804.66 521.686L804.257 424.061Z" fill="#E0D2FF"/>
<path d="M906.442 424.061H907.442C907.442 423.804 907.343 423.558 907.166 423.372L906.442 424.061ZM804.257 424.061L803.533 423.372C803.355 423.559 803.256 423.807 803.257 424.065L804.257 424.061ZM804.66 521.686L803.66 521.69C803.661 521.948 803.762 522.196 803.941 522.381L804.66 521.686ZM906.442 521.266L907.166 521.955C907.343 521.77 907.442 521.523 907.442 521.266H906.442ZM804.982 424.75C817.646 411.441 835.528 403.147 855.349 403.147V401.147C834.958 401.147 816.559 409.682 803.533 423.372L804.982 424.75ZM803.257 424.065L803.66 521.69L805.66 521.682L805.257 424.057L803.257 424.065ZM905.717 520.577C893.052 533.886 875.17 542.18 855.349 542.18V544.18C875.74 544.18 894.139 535.645 907.166 521.955L905.717 520.577ZM905.442 424.061V521.266H907.442V424.061H905.442ZM855.349 542.18C835.735 542.18 818.019 534.058 805.379 520.991L803.941 522.381C816.942 535.822 835.171 544.18 855.349 544.18V542.18ZM855.349 403.147C875.17 403.147 893.052 411.441 905.717 424.75L907.166 423.372C894.139 409.682 875.74 401.147 855.349 401.147V403.147Z" fill="black"/>
<path d="M833.33 378.484H830.745L838.222 358.12H840.767L848.245 378.484H845.66L839.574 361.342H839.415L833.33 378.484ZM834.285 370.529H844.705V372.717H834.285V370.529ZM859.848 367.208V369.396H850.939V367.208H859.848ZM865.131 378.484H862.546L870.023 358.12H872.568L880.046 378.484H877.46L871.375 361.342H871.216L865.131 378.484ZM866.085 370.529H876.506V372.717H866.085V370.529Z" fill="black"/>
<line x1="792.78" y1="472.022" x2="918.001" y2="472.742" stroke="black" stroke-width="0.5" stroke-dasharray="24 8 4 8"/>
<line x1="855.64" y1="388.79" x2="855.64" y2="555.755" stroke="black" stroke-width="0.5" stroke-dasharray="24 8 4 8"/>
<mask id="mask0_2022_70" style="mask-type:alpha" maskUnits="userSpaceOnUse" x="803" y="401" width="104" height="143">
<path d="M804.257 424.061C817.103 410.561 835.243 402.147 855.349 402.147C875.455 402.147 893.596 410.561 906.442 424.061V521.266C893.596 534.766 875.455 543.18 855.349 543.18C835.453 543.18 817.481 534.94 804.66 521.686L804.257 424.061Z" fill="#E0D2FF"/>
<path d="M906.442 424.061H906.942C906.942 423.933 906.892 423.809 906.804 423.716L906.442 424.061ZM804.257 424.061L803.895 423.716C803.806 423.81 803.757 423.934 803.757 424.063L804.257 424.061ZM804.66 521.686L804.16 521.688C804.16 521.817 804.211 521.941 804.3 522.033L804.66 521.686ZM906.442 521.266L906.804 521.611C906.892 521.518 906.942 521.394 906.942 521.266H906.442ZM804.619 424.406C817.375 411.001 835.386 402.647 855.349 402.647V401.647C835.101 401.647 816.831 410.122 803.895 423.716L804.619 424.406ZM803.757 424.063L804.16 521.688L805.16 521.684L804.757 424.059L803.757 424.063ZM906.079 520.921C893.324 534.326 875.313 542.68 855.349 542.68V543.68C875.598 543.68 893.868 535.205 906.804 521.611L906.079 520.921ZM905.942 424.061V521.266H906.942V424.061H905.942ZM855.349 542.68C835.594 542.68 817.75 534.499 805.019 521.338L804.3 522.033C817.212 535.381 835.312 543.68 855.349 543.68V542.68ZM855.349 402.647C875.313 402.647 893.324 411.001 906.079 424.406L906.804 423.716C893.868 410.122 875.598 401.647 855.349 401.647V402.647Z" fill="black"/>
</mask>
<g mask="url(#mask0_2022_70)">
<line x1="758.165" y1="569.057" x2="953.134" y2="374.088" stroke="black" stroke-width="0.5"/>
<line x1="758.165" y1="523.808" x2="953.134" y2="328.839" stroke="black" stroke-width="0.5"/>
<line x1="758.165" y1="478.559" x2="953.134" y2="283.59" stroke="black" stroke-width="0.5"/>
<line x1="758.165" y1="433.313" x2="953.134" y2="238.344" stroke="black" stroke-width="0.5"/>
<line x1="758.165" y1="704.803" x2="953.134" y2="509.834" stroke="black" stroke-width="0.5"/>
<line x1="758.165" y1="659.554" x2="953.134" y2="464.586" stroke="black" stroke-width="0.5"/>
<line x1="758.165" y1="614.306" x2="953.134" y2="419.337" stroke="black" stroke-width="0.5"/>
</g>
<line x1="31" y1="473.564" x2="729" y2="473.564" stroke="black" stroke-width="0.5" stroke-dasharray="24 8 4 8"/>
</svg>
