<svg width="950" height="950" viewBox="0 0 950 950" fill="none" xmlns="http://www.w3.org/2000/svg">
<rect width="950" height="950" fill="white"/>
<path d="M419.082 144.195L720.228 181.867V637.893L530.66 805.009L527.736 805.042L229.001 767.705L229.378 311.149L414.594 147.737L419.082 144.195Z" fill="white" stroke="black" stroke-width="2"/>
<path d="M720.026 182.108L720.026 637.984L530.5 805.102V349.226L720.026 182.108Z" fill="#D9D9D9" stroke="black" stroke-linecap="round" stroke-linejoin="round"/>
<path d="M324.265 662.95L324.907 665.406L326.759 672.625L330.803 681.923L336.321 690.54L343.124 698.25L351.024 704.827L359.717 710.005L369.014 713.709L378.614 715.75L388.176 716.09L397.474 714.767L406.205 711.781L414.066 707.208L420.869 701.198L426.387 693.979L430.431 685.702L432.926 676.632L433.795 667.069V609L431.565 606.559L426.047 597.904L422.003 588.606L419.509 578.931L418.677 569.18V423.293L414.066 418.074L406.205 411.535L397.474 406.32L388.176 402.654L378.614 400.613L369.014 400.235L359.717 401.557L351.024 404.581L343.087 409.192L336.094 415.466L330.803 422.383L326.759 430.66L324.265 439.693L323.433 449.255V653.161L324.265 662.95Z" fill="#BBA7E8"/>
<path d="M420.869 425.784L419.509 424.235L418.677 423.293V569.18L419.509 578.931L422.003 588.606L426.047 597.904L431.565 606.559L433.795 609V463.164L432.926 453.413L430.469 443.737L426.387 434.439L420.869 425.784Z" fill="#E0D2FF"/>
<path d="M433.795 609L431.565 606.559L426.047 597.904L422.003 588.606L419.509 578.931L418.677 569.18V423.293M433.795 609V463.164L432.926 453.413L430.469 443.737L426.387 434.439L420.869 425.784L419.509 424.235L418.677 423.293M433.795 609V667.069L432.926 676.632L430.431 685.702L426.387 693.979L420.869 701.198L414.066 707.208L406.205 711.781L397.474 714.767L388.176 716.09L378.614 715.75L369.014 713.709L359.717 710.005L351.024 704.827L343.124 698.25L336.321 690.54L330.803 681.923L326.759 672.625L324.907 665.406L324.265 662.95L323.433 653.161V449.255L324.265 439.693L326.759 430.66L330.803 422.383L336.094 415.466L343.087 409.192L351.024 404.581L359.717 401.557L369.014 400.235L378.614 400.613L388.176 402.654L397.474 406.32L406.205 411.535L414.066 418.074L418.677 423.293" stroke="black" stroke-linecap="round" stroke-linejoin="round"/>
<path fill-rule="evenodd" clip-rule="evenodd" d="M229.058 768.323L228.151 768.209V311L530.551 349.098V806.307L229.058 768.323Z" stroke="black" stroke-width="0.7" stroke-linecap="round" stroke-linejoin="round"/>
<path d="M228.151 311L418.677 143L721.077 181.098L530.551 349.098" stroke="black" stroke-width="0.7" stroke-linecap="round" stroke-linejoin="round"/>
<path fill-rule="evenodd" clip-rule="evenodd" d="M324.907 665.406L324.265 662.95L323.433 653.161V449.255L324.265 439.693L326.759 430.66L330.803 422.383L336.094 415.466L343.087 409.192L351.024 404.581L359.717 401.558L369.014 400.235L378.614 400.613L388.176 402.654L397.474 406.32L406.205 411.535L414.066 418.074L419.509 424.235L420.869 425.784L426.387 434.439L430.469 443.737L432.926 453.413L433.795 463.164V476.846V667.069L432.926 676.632L430.431 685.702L426.387 693.98L420.869 701.198L414.066 707.208L406.205 711.781L397.474 714.767L388.176 716.09L378.614 715.75L369.014 713.709L359.717 710.005L351.024 704.827L343.124 698.25L336.321 690.54L330.803 681.923L326.759 672.625L324.907 665.406Z" stroke="black" stroke-width="0.7" stroke-linecap="round" stroke-linejoin="round"/>
<path d="M433.795 609.054L431.565 606.559L426.047 597.904L422.003 588.606L419.509 578.931L418.677 569.18V423.29" stroke="black" stroke-width="0.7" stroke-linecap="round" stroke-linejoin="round"/>
<path d="M530.551 806.307L721.077 638.307V181.098" stroke="black" stroke-width="0.7" stroke-linecap="round" stroke-linejoin="round"/>
</svg>
