<svg width="950" height="950" viewBox="0 0 950 950" fill="none" xmlns="http://www.w3.org/2000/svg">
<rect width="950" height="950" fill="white"/>
<path d="M216.465 581.063L467.673 331.16L511.997 236.75L260.749 486.607L216.465 581.063Z" fill="#D9D9D9"/>
<path d="M548.792 729.023V527.558L800 277.655V479.166L548.792 729.023Z" fill="#D9D9D9"/>
<path d="M216.465 581.063L467.673 331.16L511.997 236.75L260.749 486.607L216.465 581.063Z" stroke="black" stroke-linecap="round" stroke-linejoin="round"/>
<path d="M548.792 729.023V527.558L800 277.655V479.166L548.792 729.023Z" stroke="black" stroke-linecap="round" stroke-linejoin="round"/>
<path d="M150 470.857V672.368L548.792 729.023L800 479.166L800 277.655L689.251 261.905L600.604 350.06L467.673 331.16L511.997 236.75L401.208 221L150 470.857Z" stroke="black" stroke-width="1.99937" stroke-linecap="round" stroke-linejoin="round"/>
<path d="M438.003 511.807L689.251 261.905L800 277.655L548.792 527.558" stroke="black" stroke-width="0.7" stroke-linecap="round" stroke-linejoin="round"/>
<path d="M150 470.857V672.368L548.792 729.023V527.558L438.003 511.807L482.327 618.817L216.465 581.063M150 470.857L401.208 221L511.997 236.75L467.673 331.16L216.465 581.063M150 470.857L260.749 486.607L216.465 581.063" stroke="black" stroke-width="0.7" stroke-linecap="round" stroke-linejoin="round"/>
<path d="M260.749 486.607L511.997 236.75" stroke="black" stroke-width="0.7" stroke-linecap="round" stroke-linejoin="round"/>
<path d="M467.673 331.16L600.604 350.06" stroke="black" stroke-width="0.7" stroke-linecap="round" stroke-linejoin="round"/>
<path d="M548.792 729.023L800 479.166V277.655" stroke="black" stroke-width="0.7" stroke-linecap="round" stroke-linejoin="round"/>
</svg>
