<svg width="950" height="950" viewBox="0 0 950 950" fill="none" xmlns="http://www.w3.org/2000/svg">
<rect width="950" height="950" fill="white"/>
<path d="M441 585.09L482.386 506.891L716.943 300L675.595 378.198L441 585.09Z" fill="#D9D9D9"/>
<path d="M544.446 598.091L779.003 391.238V474.652L544.446 681.506V598.091Z" fill="#D9D9D9"/>
<path d="M441 585.09L482.386 506.891L716.943 300L675.595 378.198L441 585.09Z" stroke="black" stroke-linecap="round" stroke-linejoin="round"/>
<path d="M544.446 598.091L779.003 391.238V474.652L544.446 681.506V598.091Z" stroke="black" stroke-linecap="round" stroke-linejoin="round"/>
<path d="M234.06 475.854L468.617 269L716.857 300.257L675.509 378.455L778.917 391.494V474.909L544.359 681.762L172 634.858V551.444L240.939 490.632L234.06 475.854Z" stroke="black" stroke-width="1.99937" stroke-linecap="round" stroke-linejoin="round"/>
<path d="M440.913 585.346L482.299 507.148L234.06 475.854L468.617 269L716.857 300.257L675.509 378.455L440.913 585.346ZM440.913 585.346L544.359 598.348L778.917 391.494V474.909L544.359 681.762L172 634.858V551.444L240.939 490.631" stroke="black" stroke-width="0.7" stroke-linecap="round" stroke-linejoin="round"/>
<path d="M172 551.444L275.408 564.483L234.06 475.854" stroke="black" stroke-width="0.7" stroke-linecap="round" stroke-linejoin="round"/>
<path d="M482.299 507.148L716.857 300.257" stroke="black" stroke-width="0.7" stroke-linecap="round" stroke-linejoin="round"/>
<path d="M544.359 681.762V598.348" stroke="black" stroke-width="0.7" stroke-linecap="round" stroke-linejoin="round"/>
<path d="M675.509 378.455L778.917 391.494" stroke="black" stroke-width="0.7" stroke-linecap="round" stroke-linejoin="round"/>
</svg>
