<svg width="950" height="950" viewBox="0 0 950 950" fill="none" xmlns="http://www.w3.org/2000/svg">
<rect width="950" height="950" fill="white"/>
<path fill-rule="evenodd" clip-rule="evenodd" d="M206.907 318.787L206 332.734L206.907 346.643L209.628 360.324L214.126 373.553L220.287 386.101L228.035 397.704L237.257 408.173L247.764 417.395L259.367 425.143L271.877 431.304L285.106 435.802L298.787 438.523L312.734 439.43L326.643 438.523L340.362 435.802L353.553 431.304L366.063 425.143L377.704 417.395L388.173 408.173L397.395 397.704L405.143 386.101L411.304 373.553L415.802 360.324L418.523 346.643L419.43 332.734L418.523 318.787L415.802 305.106L411.304 291.877L407.985 285.138L405.143 279.367L397.395 267.764L388.173 257.257L377.704 248.072L366.063 240.324L353.553 234.126L340.362 229.628L326.643 226.907L312.734 226L298.787 226.907L285.105 229.628L271.877 234.126L259.367 240.324L247.764 248.072L237.257 257.257L228.035 267.764L220.287 279.367L214.126 291.877L209.628 305.106L206.907 318.787ZM251.619 365.805L247.008 355.298L244.211 344.148L243.266 332.734L244.211 321.282L247.008 310.17L251.619 299.663L257.893 290.063L265.679 281.597L274.712 274.567L284.803 269.124L295.688 265.383L306.989 263.493H318.441L329.78 265.383L340.627 269.124L350.718 274.567L359.789 281.597L367.537 290.063L373.811 299.663L378.422 310.17L381.257 321.282L382.202 332.734L381.257 344.148L378.422 355.298L373.811 365.805L367.537 375.405L359.789 383.833L350.718 390.901L340.627 396.343L329.78 400.085L318.441 401.937H306.989L295.688 400.085L284.803 396.343L274.712 390.901L265.679 383.833L257.893 375.405L251.619 365.805Z" fill="#D9D9D9"/>
<path d="M312.734 439.43L327.512 441.622L341.912 445.666L355.707 451.487L368.633 459.008L380.539 468.079L391.197 478.586L400.457 490.34L408.129 503.153L414.139 516.835L418.409 531.197L420.791 545.975L421.32 560.904L419.959 575.795L416.746 590.422L411.682 604.52L404.917 617.824L396.526 630.221L384.356 643.978L389.194 639.178L394.976 635.512L401.402 633.282L408.205 632.526H713.099L719.902 633.282L726.328 635.512L732.11 639.178L736.948 643.978L740.576 649.761L742.844 656.224L743.6 662.989V433.345L742.693 420.797L740.047 408.513L735.625 396.759L729.616 385.723L722.057 375.632L713.175 366.75L703.121 359.228L692.085 353.181L680.293 348.797L668.009 346.113L655.461 345.206H523.594L508.665 344.45L493.924 342.069L479.487 338.139L465.54 332.734L452.274 325.855L439.802 317.616L428.274 308.091L417.805 297.433L407.985 285.138L411.304 291.877L415.802 305.106L418.523 318.787L419.43 332.734L418.523 346.643L415.802 360.324L411.304 373.553L405.143 386.101L397.395 397.704L388.173 408.173L377.704 417.395L366.063 425.143L353.553 431.304L340.362 435.802L326.643 438.523L312.734 439.43Z" fill="#D9D9D9"/>
<path d="M743.6 723.991V662.989L742.844 656.224L740.576 649.761L736.948 643.978L732.11 639.178L726.328 635.512L719.902 633.282L713.099 632.526H408.205L401.402 633.282L394.976 635.512L389.194 639.178L384.356 643.978L380.728 649.761L378.46 656.224L377.704 662.989V723.991H743.6Z" fill="#D9D9D9"/>
<path d="M312.734 439.43L298.787 438.523L285.106 435.802L271.877 431.304L259.367 425.143L247.764 417.395L237.257 408.173L228.035 397.704L220.287 386.101L214.126 373.553L209.628 360.324L206.907 346.643L206 332.734L206.907 318.787L209.628 305.106L214.126 291.877L220.287 279.367L228.035 267.764L237.257 257.257L247.764 248.072L259.367 240.324L271.877 234.126L285.105 229.628L298.787 226.907L312.734 226L326.643 226.907L340.362 229.628L353.553 234.126L366.063 240.324L377.704 248.072L388.173 257.257L397.395 267.764L405.143 279.367L407.985 285.138M312.734 439.43L327.512 441.622L341.912 445.666L355.707 451.487L368.633 459.008L380.539 468.079L391.197 478.586L400.457 490.34L408.129 503.153L414.139 516.835L418.409 531.197L420.791 545.975L421.32 560.904L419.959 575.795L416.746 590.422L411.682 604.52L404.917 617.824L396.526 630.221L384.356 643.978M312.734 439.43L326.643 438.523L340.362 435.802L353.553 431.304L366.063 425.143L377.704 417.395L388.173 408.173L397.395 397.704L405.143 386.101L411.304 373.553L415.802 360.324L418.523 346.643L419.43 332.734L418.523 318.787L415.802 305.106L411.304 291.877L407.985 285.138M743.6 433.345L742.693 420.797L740.047 408.513L735.625 396.759L729.616 385.723L722.057 375.632L713.175 366.75L703.121 359.228L692.085 353.181L680.293 348.797L668.009 346.113L655.461 345.206H523.594L508.665 344.45L493.924 342.069L479.487 338.139L465.54 332.734L452.274 325.855L439.802 317.616L428.274 308.091L417.805 297.433L407.985 285.138M743.6 433.345V723.991M743.6 433.345V662.989M743.6 723.991H377.704V662.989L378.46 656.224L380.728 649.761L384.356 643.978M743.6 723.991V662.989M384.356 643.978L389.194 639.178L394.976 635.512L401.402 633.282L408.205 632.526H713.099L719.902 633.282L726.328 635.512L732.11 639.178L736.948 643.978L740.576 649.761L742.844 656.224L743.6 662.989M244.211 344.148L243.266 332.734L244.211 321.282L247.008 310.17L251.619 299.663L257.893 290.063L265.679 281.597L274.712 274.567L284.803 269.124L295.688 265.383L306.989 263.493H318.441L329.78 265.383L340.627 269.124L350.718 274.567L359.789 281.597L367.537 290.063L373.811 299.663L378.422 310.17L381.257 321.282L382.202 332.734L381.257 344.148L378.422 355.298L373.811 365.805L367.537 375.405L359.789 383.833L350.718 390.901L340.627 396.343L329.78 400.085L318.441 401.937H306.989L295.688 400.085L284.803 396.343L274.712 390.901L265.679 383.833L257.893 375.405L251.619 365.805L247.008 355.298L244.211 344.148Z" stroke="black" stroke-linecap="round" stroke-linejoin="round"/>
<path d="M743.6 433.345L742.693 420.797L740.047 408.513L735.625 396.759L729.616 385.723L722.057 375.632L713.175 366.75L703.121 359.228L692.085 353.181L680.293 348.797L668.009 346.113L655.461 345.206H523.594L508.665 344.45L493.924 342.069L479.487 338.139L465.54 332.734L452.274 325.855L439.802 317.616L428.274 308.091L417.805 297.433L407.985 285.138L405.143 279.367L397.395 267.764L388.173 257.257L377.704 248.072L366.063 240.324L353.553 234.126L340.362 229.628L326.643 226.907L312.734 226L298.787 226.907L285.105 229.628L271.877 234.126L259.367 240.324L247.764 248.072L237.257 257.257L228.035 267.764L220.287 279.367L214.126 291.877L209.628 305.106L206.907 318.787L206 332.734L206.907 346.643L209.628 360.324L214.126 373.553L220.287 386.101L228.035 397.704L237.257 408.173L247.764 417.395L259.367 425.143L271.877 431.304L285.106 435.802L298.787 438.523L312.734 439.43L327.512 441.622L341.912 445.666L355.707 451.487L368.633 459.008L380.539 468.079L391.197 478.586L400.457 490.34L408.129 503.153L414.139 516.835L418.409 531.197L420.791 545.975L421.32 560.904L419.959 575.795L416.746 590.422L411.682 604.52L404.917 617.824L396.526 630.221L384.356 643.978L380.728 649.761L378.46 656.224L377.704 662.989V723.991H743.6M743.6 433.345V723.991M743.6 433.345V662.989V723.991M244.211 344.148L243.266 332.734L244.211 321.282L247.008 310.17L251.619 299.663L257.893 290.063L265.679 281.597L274.712 274.567L284.803 269.124L295.688 265.383L306.989 263.493H318.441L329.78 265.383L340.627 269.124L350.718 274.567L359.789 281.597L367.537 290.063L373.811 299.663L378.422 310.17L381.257 321.282L382.202 332.734L381.257 344.148L378.422 355.298L373.811 365.805L367.537 375.405L359.789 383.833L350.718 390.901L340.627 396.343L329.78 400.085L318.441 401.937H306.989L295.688 400.085L284.803 396.343L274.712 390.901L265.679 383.833L257.893 375.405L251.619 365.805L247.008 355.298L244.211 344.148Z" stroke="black" stroke-width="2" stroke-linecap="round" stroke-linejoin="round"/>
<path d="M375.5 464.686L365.028 469.552L374.478 476.188L375.5 464.686ZM314 554L371.146 472.626L369.509 471.477L312.363 552.851L314 554Z" fill="black"/>
<path d="M467.705 333.39L478.177 328.525L468.727 321.888L467.705 333.39ZM473.695 326.6L531 245L529.363 243.851L472.059 325.45L473.695 326.6Z" fill="black"/>
<path d="M715.659 369.635L704.41 372.242L712.293 380.68L715.659 369.635ZM640.341 441.365L709.765 376.509L708.399 375.048L638.976 439.904L640.341 441.365Z" fill="black"/>
</svg>
