<svg width="950" height="950" viewBox="0 0 950 950" fill="none" xmlns="http://www.w3.org/2000/svg">
<rect width="950" height="950" fill="white"/>
<path d="M245.832 724.165L245 713.696V515.951L245.832 505.935L248.288 496.6L252.37 488.247L257.888 480.991L274 465.266V279.466L405.641 151L704.942 232.335L704.942 667.51L573.301 795.976L403.94 749.942L367.117 785.356L360.238 791.29L352.187 795.75L343.154 798.66L333.365 799.945L323.085 799.529L312.502 797.488L301.957 793.784L291.639 788.606L281.85 782.03L272.817 774.206L264.767 765.324L257.888 755.649L252.37 745.406L248.288 734.824L245.832 724.165Z" fill="white" stroke="black" stroke-width="2" stroke-linecap="round" stroke-linejoin="round"/>
<path d="M572.761 795.976V360.802L704.402 232.335V667.51L572.761 795.976Z" fill="#D9D9D9" stroke="black" stroke-linecap="round" stroke-linejoin="round"/>
<path d="M245 713.696L245.832 724.165L248.288 734.824L252.37 745.406L257.888 755.649L264.767 765.324L272.817 774.206L281.85 782.03L291.639 788.606L301.957 793.784L312.502 797.488L323.085 799.529L333.365 799.945L343.154 798.66L352.187 795.75L360.238 791.29L367.117 785.356L372.672 778.099L376.717 769.709L379.211 760.411L380.005 750.395V552.65L379.211 542.181L376.717 531.523L372.672 520.94L367.117 510.66L360.238 500.984L352.187 492.14L343.154 484.317L333.365 477.74L323.085 472.524L312.502 468.858L301.957 466.78L291.639 466.402L281.85 467.649L272.817 470.559L264.767 475.057L257.888 480.991L252.37 488.247L248.288 496.6L245.832 505.935L245 515.951V713.696Z" fill="#E0D2FF"/>
<path d="M257.888 480.991L264.767 475.057L272.817 470.559L281.85 467.649L291.639 466.402L301.957 466.78L312.502 468.858L323.085 472.524L333.365 477.74L343.154 484.317L352.187 492.14L360.238 500.984L367.117 510.66L372.672 520.94L376.717 531.523L379.211 542.181L380.005 552.65V750.395L379.211 760.411L376.717 769.709L372.672 778.099L367.117 785.356L472.414 682.591L477.97 675.334L482.014 666.943L484.471 657.646L485.302 647.63V449.847L484.509 439.416L482.014 428.757L477.97 418.175L472.414 407.895L465.535 398.219L457.485 389.375L448.452 381.551L438.663 374.937L428.383 369.759L417.8 366.093L407.255 364.014L396.937 363.598L387.148 364.883L378.115 367.794L370.518 372.027L370.065 372.291L363.186 378.225L257.888 480.991Z" fill="#BBA7E8"/>
<path d="M257.888 480.991L252.37 488.247L248.288 496.6L245.832 505.935L245 515.951V713.696L245.832 724.165L248.288 734.824L252.37 745.406L257.888 755.649L264.767 765.324L272.817 774.206L281.85 782.03L291.639 788.606L301.957 793.784L312.502 797.488L323.085 799.529L333.365 799.945L343.154 798.66L352.187 795.75L360.238 791.29L367.117 785.356M257.888 480.991L264.767 475.057L272.817 470.559L281.85 467.649L291.639 466.402L301.957 466.78L312.502 468.858L323.085 472.524L333.365 477.74L343.154 484.317L352.187 492.14L360.238 500.984L367.117 510.66L372.672 520.94L376.717 531.523L379.211 542.181L380.005 552.65V750.395L379.211 760.411L376.717 769.709L372.672 778.099L367.117 785.356M257.888 480.991L363.186 378.225L370.065 372.291L370.518 372.027L378.115 367.794L387.148 364.883L396.937 363.598L407.255 364.014L417.8 366.093L428.383 369.759L438.663 374.937L448.452 381.551L457.485 389.375L465.535 398.219L472.414 407.895L477.97 418.175L482.014 428.757L484.509 439.416L485.302 449.847V647.63L484.471 657.646L482.014 666.943L477.97 675.334L472.414 682.591L367.117 785.356" stroke="black" stroke-linecap="round" stroke-linejoin="round"/>
<path fill-rule="evenodd" clip-rule="evenodd" d="M247.721 732.367L245.832 724.165L245 713.696V515.951L245.832 505.935L248.288 496.6L252.37 488.247L257.888 480.991L264.767 475.057L272.817 470.559L281.85 467.649L291.639 466.402L301.957 466.78L312.502 468.858L323.085 472.524L333.365 477.74L343.154 484.317L352.187 492.14L360.238 500.984L367.117 510.66L371.236 518.295L372.672 520.94L376.717 531.523L379.211 542.181L380.005 552.65V750.395L379.211 760.411L376.717 769.709L372.672 778.099L367.117 785.356L360.238 791.29L352.187 795.75L343.154 798.66L333.365 799.945L323.085 799.529L312.502 797.488L301.957 793.784L291.639 788.606L281.85 782.03L272.817 774.206L264.767 765.324L257.888 755.649L252.37 745.406L248.288 734.824L247.721 732.367Z" stroke="black" stroke-width="0.7" stroke-linecap="round" stroke-linejoin="round"/>
<path d="M257.888 480.991L363.186 378.225L370.065 372.291L370.518 372.027L378.115 367.794L387.148 364.883L396.937 363.598L407.255 364.014L411.337 364.808L417.8 366.093L428.383 369.759L438.663 374.937L448.452 381.551L454.461 386.729L457.485 389.375L465.535 398.219L472.414 407.895L477.592 417.419L477.97 418.175L482.014 428.757L484.509 439.416L485.302 449.847V645.476V647.63L484.471 657.646L482.014 666.943L477.97 675.334L472.414 682.591L367.117 785.356" stroke="black" stroke-width="0.7" stroke-linecap="round" stroke-linejoin="round"/>
<path d="M403.4 749.942L572.761 795.976V360.802L273.46 279.466V465.797" stroke="black" stroke-width="0.7" stroke-linecap="round" stroke-linejoin="round"/>
<path d="M273.46 279.466L405.101 151L704.402 232.335L572.761 360.802" stroke="black" stroke-width="0.7" stroke-linecap="round" stroke-linejoin="round"/>
<path d="M572.761 795.976L704.402 667.51V232.335" stroke="black" stroke-width="0.7" stroke-linecap="round" stroke-linejoin="round"/>
</svg>
