<svg width="950" height="950" viewBox="0 0 950 950" fill="none" xmlns="http://www.w3.org/2000/svg">
<rect width="950" height="950" fill="white"/>
<mask id="path-1-inside-1_2006_227" fill="white">
<path fill-rule="evenodd" clip-rule="evenodd" d="M345.707 174.529H605.323L605.096 497.943L476.176 575.915H474.816L346.312 498.472L345.707 174.529Z"/>
<path d="M706.954 775.776V174L605.323 174.529L605.096 497.943L476.176 575.915H474.816L346.312 498.472L345.707 174.529L244.038 174V775.776H706.954Z"/>
</mask>
<path fill-rule="evenodd" clip-rule="evenodd" d="M345.707 174.529H605.323L605.096 497.943L476.176 575.915H474.816L346.312 498.472L345.707 174.529Z" fill="#D9D9D9"/>
<path d="M706.954 775.776V174L605.323 174.529L605.096 497.943L476.176 575.915H474.816L346.312 498.472L345.707 174.529L244.038 174V775.776H706.954Z" fill="#B3B3B3"/>
<path d="M605.096 497.943L605.355 498.371L605.596 498.225L605.596 497.944L605.096 497.943ZM476.176 575.915V576.415H476.316L476.435 576.343L476.176 575.915ZM474.816 575.915L474.558 576.343L474.677 576.415H474.816V575.915ZM346.312 498.472L345.812 498.473L345.812 498.755L346.054 498.901L346.312 498.472ZM604.823 174.529L604.596 497.943L605.596 497.944L605.823 174.529L604.823 174.529ZM604.837 497.515L475.918 575.487L476.435 576.343L605.355 498.371L604.837 497.515ZM476.176 575.415H474.816V576.415H476.176V575.415ZM475.074 575.487L346.57 498.044L346.054 498.901L474.558 576.343L475.074 575.487ZM346.812 498.472L346.207 174.528L345.207 174.53L345.812 498.473L346.812 498.472ZM346.313 498.972L605.097 498.443L605.095 497.443L346.311 497.972L346.313 498.972ZM244.038 775.776H243.038C243.038 776.329 243.486 776.776 244.038 776.776V775.776ZM706.954 775.776V776.776C707.507 776.776 707.954 776.329 707.954 775.776H706.954ZM706.954 174H707.954C707.954 173.734 707.848 173.479 707.66 173.291C707.471 173.103 707.215 172.999 706.949 173L706.954 174ZM244.038 174L244.043 173C243.777 172.999 243.521 173.103 243.333 173.291C243.144 173.479 243.038 173.734 243.038 174H244.038ZM345.707 174.529L345.702 175.529H345.707V174.529ZM605.323 174.529V175.529L605.328 175.529L605.323 174.529ZM707.954 775.776V174H705.954V775.776H707.954ZM345.707 175.529H605.323V173.529H345.707V175.529ZM243.038 174V775.776H245.038V174H243.038ZM244.033 175L345.702 175.529L345.712 173.529L244.043 173L244.033 175ZM605.328 175.529L706.96 175L706.949 173L605.318 173.529L605.328 175.529ZM706.954 774.776H244.038V776.776H706.954V774.776Z" fill="black" mask="url(#path-1-inside-1_2006_227)"/>
<path fill-rule="evenodd" clip-rule="evenodd" d="M244.038 775.285V775.776H706.954V174H244.038V775.285Z" stroke="black" stroke-width="2" stroke-linecap="round" stroke-linejoin="round"/>
<mask id="mask0_2006_227" style="mask-type:alpha" maskUnits="userSpaceOnUse" x="244" y="174" width="463" height="602">
<path fill-rule="evenodd" clip-rule="evenodd" d="M346.312 498.472L474.816 575.915H476.176L605.096 497.943L605.323 174.529L706.992 174.605V775.436H244V174.605L345.707 174.529L346.312 498.472Z" fill="#E1E1E1"/>
</mask>
<g mask="url(#mask0_2006_227)">
<line x1="159.823" y1="841.143" x2="866.93" y2="134.037" stroke="black" stroke-width="0.5"/>
<line x1="159.823" y1="677.037" x2="866.93" y2="-30.07" stroke="black" stroke-width="0.5"/>
<line x1="159.823" y1="512.93" x2="866.93" y2="-194.177" stroke="black" stroke-width="0.5"/>
<line x1="159.823" y1="348.833" x2="866.93" y2="-358.274" stroke="black" stroke-width="0.5"/>
<line x1="159.823" y1="1333.46" x2="866.93" y2="626.357" stroke="black" stroke-width="0.5"/>
<line x1="159.823" y1="1169.36" x2="866.93" y2="462.25" stroke="black" stroke-width="0.5"/>
<line x1="159.823" y1="1005.25" x2="866.93" y2="298.143" stroke="black" stroke-width="0.5"/>
</g>
</svg>
