<svg width="950" height="950" viewBox="0 0 950 950" fill="none" xmlns="http://www.w3.org/2000/svg">
<rect width="950" height="950" fill="white"/>
<path d="M110.759 535.97L84 428.783L380.05 183L838.318 413.589L865.002 520.814L569.027 766.559L110.759 535.97Z" stroke="black" stroke-width="1.99937" stroke-linecap="round" stroke-linejoin="round"/>
<path d="M281.783 391.479L280.309 383.995L280.535 376.209L282.539 368.31L286.205 360.449L291.458 352.814L298.186 345.557L306.274 338.868L315.496 332.858L325.663 327.68L336.51 323.485L347.924 320.31L359.49 318.232L371.055 317.324L382.28 317.627L393.014 319.063L402.917 321.671L411.836 325.337L616.233 428.216L623.943 432.865L630.293 438.458L635.093 444.808L638.268 451.876L639.742 459.246L639.515 467.032L637.512 474.931L633.846 482.792L628.592 490.427L621.865 497.683L613.776 504.373L604.554 510.383L598.961 513.217L438.595 432.524L429.676 428.82L419.735 426.25L409.039 424.776L397.776 424.512L386.249 425.419L374.646 427.46L363.307 430.635L352.422 434.868L347.811 437.211L303.817 415.063L296.107 410.376L289.757 404.783L284.957 398.433L281.783 391.479Z" fill="#D9D9D9"/>
<path d="M569.027 766.559L542.305 659.409L838.318 413.589L865.002 520.814L569.027 766.559Z" fill="#D9D9D9"/>
<path d="M281.783 391.479L280.309 383.995L280.535 376.209L282.539 368.31L286.205 360.449L291.458 352.814L298.186 345.557L306.274 338.868L315.496 332.858L325.663 327.68L336.51 323.485L347.924 320.31L359.49 318.232L371.055 317.324L382.28 317.627L393.014 319.063L402.917 321.671L411.836 325.337L616.233 428.216L623.943 432.865L630.293 438.458L635.093 444.808L638.268 451.876L639.742 459.246L639.515 467.032L637.512 474.931L633.846 482.792L628.592 490.427L621.865 497.683L613.776 504.373L604.554 510.383L598.961 513.217L438.595 432.524L429.676 428.82L419.735 426.25L409.039 424.776L397.776 424.512L386.249 425.419L374.646 427.46L363.307 430.635L352.422 434.868L347.811 437.211L303.817 415.063L296.107 410.376L289.757 404.783L284.957 398.433L281.783 391.479Z" stroke="black" stroke-linecap="round" stroke-linejoin="round"/>
<path d="M569.027 766.559L542.305 659.409L838.318 413.589L865.002 520.814L569.027 766.559Z" stroke="black" stroke-linecap="round" stroke-linejoin="round"/>
<path d="M542.306 659.409L84 428.783L110.759 535.97L569.027 766.559M542.306 659.409L569.027 766.559M542.306 659.409L838.318 413.589L865.002 520.814L569.027 766.559" stroke="black" stroke-width="0.7" stroke-linecap="round" stroke-linejoin="round"/>
<path d="M84 428.783L380.05 183L838.318 413.589" stroke="black" stroke-width="0.7" stroke-linecap="round" stroke-linejoin="round"/>
<path fill-rule="evenodd" clip-rule="evenodd" d="M281.367 389.287L280.309 383.995L280.535 376.209L282.539 368.31L286.205 360.449L291.458 352.814L298.186 345.557L306.274 338.868L315.496 332.858L325.663 327.68L336.51 323.485L347.924 320.31L359.49 318.232L371.055 317.324L382.28 317.627L393.014 319.063L402.917 321.671L411.836 325.337L616.233 428.216L623.943 432.865L630.293 438.458L635.093 444.808L638.268 451.876L639.742 459.246L639.515 467.032L637.512 474.931L633.846 482.792L628.592 490.427L621.865 497.683L613.776 504.373L604.554 510.383L594.387 515.561L583.502 519.756L572.164 522.969L560.561 525.009L548.995 525.917L537.77 525.652L527.036 524.178L517.134 521.57L508.214 517.904L303.817 415.063L296.107 410.376L289.757 404.783L284.957 398.433L281.783 391.479L281.367 389.287Z" stroke="black" stroke-width="0.7" stroke-linecap="round" stroke-linejoin="round"/>
<path d="M347.811 437.211L352.422 434.868L363.307 430.635L374.646 427.46L386.249 425.419L397.776 424.512L409.039 424.776L419.735 426.25L429.676 428.82L438.595 432.524L598.961 513.217" stroke="black" stroke-width="0.7" stroke-linecap="round" stroke-linejoin="round"/>
</svg>
