<svg width="450" height="450" viewBox="0 0 450 450" fill="none" xmlns="http://www.w3.org/2000/svg">
<rect width="450" height="450" fill="white"/>
<rect x="60" y="130" width="330" height="190" stroke="black" stroke-width="10"/>
<mask id="mask0_2001_146" style="mask-type:alpha" maskUnits="userSpaceOnUse" x="55" y="125" width="340" height="200">
<rect x="55" y="125" width="340" height="200" fill="#D9D9D9"/>
</mask>
<g mask="url(#mask0_2001_146)">
<line x1="226" y1="363.968" x2="226" y2="86.0314" stroke="black" stroke-width="5"/>
<line x1="262" y1="363.968" x2="262" y2="86.0314" stroke="black" stroke-width="5"/>
<line x1="298" y1="363.968" x2="298" y2="86.0314" stroke="black" stroke-width="5"/>
<line x1="334" y1="363.968" x2="334" y2="86.0314" stroke="black" stroke-width="5"/>
<line x1="370" y1="363.968" x2="370" y2="86.0314" stroke="black" stroke-width="5"/>
<line x1="82" y1="363.968" x2="82" y2="86.0314" stroke="black" stroke-width="5"/>
<line x1="154" y1="363.968" x2="154" y2="86.0314" stroke="black" stroke-width="5"/>
<line x1="190" y1="363.968" x2="190" y2="86.0314" stroke="black" stroke-width="5"/>
<line x1="118" y1="363.968" x2="118" y2="86.0314" stroke="black" stroke-width="5"/>
<line x1="395" y1="155.5" x2="55" y2="155.5" stroke="black" stroke-width="5"/>
<line x1="395" y1="299.5" x2="55" y2="299.5" stroke="black" stroke-width="5"/>
<line x1="395" y1="263.5" x2="55" y2="263.5" stroke="black" stroke-width="5"/>
<line x1="395" y1="227.5" x2="55" y2="227.5" stroke="black" stroke-width="5"/>
<line x1="395" y1="191.5" x2="55" y2="191.5" stroke="black" stroke-width="5"/>
</g>
</svg>
