<svg width="600" height="600" viewBox="0 0 600 600" fill="none" xmlns="http://www.w3.org/2000/svg">
<rect width="600" height="600" fill="white"/>
<line x1="160.073" y1="508.132" x2="230.784" y2="437.421" stroke="#F21C26" stroke-width="8"/>
<path d="M372.205 437.421C333.153 476.474 269.836 476.474 230.784 437.421C191.732 398.369 191.732 335.052 230.784 296" stroke="#F21C26" stroke-width="8"/>
<path d="M302.363 46L290.816 66H313.91L302.363 46ZM304.363 366L304.363 64H300.363L300.363 366H304.363Z" fill="black"/>
<path d="M435.45 458.367L425.603 437.477L412.436 456.45L435.45 458.367ZM301.222 367.643L329.36 387.171L331.64 383.885L303.503 364.357L301.222 367.643ZM329.36 387.171L419.522 449.747L421.803 446.461L331.64 383.885L329.36 387.171Z" fill="black"/>
<path d="M87 492.96L110.093 492.751L98.365 472.856L87 492.96ZM301.347 364.277L101.49 482.096L103.522 485.542L303.378 367.723L301.347 364.277Z" fill="black"/>
<path d="M111.29 441.364L114.665 449.392L120.699 441.364H124.176L116.199 451.182L120.903 461H117.426L114 453.381L108.017 461H104.54L112.415 451.182L107.812 441.364H111.29Z" fill="black"/>
<path d="M127.363 433L117.363 427.226V438.774L127.363 433ZM104.363 434H118.363V432H104.363V434Z" fill="black"/>
<path d="M384.413 464.182H387.438L391.827 474.366H392.083L399.796 464.182H402.822L392.807 477.009L391.316 486H388.674L390.165 477.009L384.413 464.182Z" fill="black"/>
<path d="M405.363 457L395.363 451.226V462.774L405.363 457ZM382.363 458H396.363V456H382.363V458Z" fill="black"/>
<path d="M322.042 158L322.382 156.082L337.042 138.526H325.152L325.536 136.182H340.578L340.28 138.099L325.578 155.656H337.468L337.084 158H322.042Z" fill="black"/>
<path d="M344.363 129L334.363 123.226V134.774L344.363 129ZM321.363 130H335.363V128H321.363V130Z" fill="black"/>
<circle cx="302.363" cy="366" r="70" fill="#0E5E99" fill-opacity="0.4" stroke="#0E5E99" stroke-width="8"/>
<line x1="302.363" y1="293.003" x2="302.363" y2="119" stroke="#0E5E99" stroke-width="8"/>
<path d="M435.45 458.367L425.603 437.477L412.436 456.45L435.45 458.367ZM329.36 387.171L419.522 449.747L421.803 446.461L331.64 383.885L329.36 387.171Z" fill="black"/>
<path d="M87 492.96L110.093 492.751L98.365 472.856L87 492.96ZM255.984 391.019L101.49 482.096L103.522 485.542L258.016 394.465L255.984 391.019Z" fill="black"/>
<path d="M323.461 355H321.06L331.143 336.091H333.506L337.31 355H334.91L331.918 339.082H331.771L323.461 355ZM325.566 347.614H335.242L334.91 349.645H325.234L325.566 347.614Z" fill="black"/>
<path d="M280.863 221.298C279.257 221.298 277.89 220.862 276.761 219.988C275.632 219.107 274.769 217.832 274.172 216.163C273.576 214.487 273.277 212.463 273.277 210.091C273.277 207.733 273.576 205.719 274.172 204.05C274.776 202.374 275.642 201.096 276.772 200.215C277.908 199.327 279.272 198.884 280.863 198.884C282.453 198.884 283.814 199.327 284.943 200.215C286.079 201.096 286.946 202.374 287.542 204.05C288.146 205.719 288.448 207.733 288.448 210.091C288.448 212.463 288.15 214.487 287.553 216.163C286.956 217.832 286.093 219.107 284.964 219.988C283.835 220.862 282.468 221.298 280.863 221.298ZM280.863 218.955C282.453 218.955 283.689 218.187 284.57 216.653C285.451 215.119 285.891 212.932 285.891 210.091C285.891 208.202 285.689 206.593 285.284 205.265C284.886 203.937 284.311 202.925 283.558 202.229C282.812 201.533 281.914 201.185 280.863 201.185C279.286 201.185 278.054 201.962 277.166 203.518C276.278 205.066 275.834 207.257 275.834 210.091C275.834 211.98 276.033 213.585 276.431 214.906C276.828 216.227 277.4 217.232 278.146 217.921C278.899 218.61 279.804 218.955 280.863 218.955Z" fill="#0E5E99"/>
<path d="M236.319 482.182V504H233.677V484.952H233.549L228.222 488.489V485.804L233.677 482.182H236.319Z" fill="#F21C26"/>
</svg>
