<svg width="1000" height="500" viewBox="0 0 1000 500" fill="none" xmlns="http://www.w3.org/2000/svg">
<rect width="1000" height="500" fill="white"/>
<path d="M276 296H186M96 296H186M186 296V420" stroke="#F21C26" stroke-width="8"/>
<path d="M96 279H186M276 279H186M186 279V155" stroke="#0E5E99" stroke-width="8"/>
<path d="M185.998 285.516C184.894 285.516 183.998 286.412 183.998 287.516C183.998 288.621 184.894 289.516 185.998 289.516V285.516ZM345.998 287.516L325.998 275.969V299.063L345.998 287.516ZM185.998 289.516H327.998V285.516H185.998V289.516Z" fill="black"/>
<path d="M186 92L174.453 112H197.547L186 92ZM188 288L188 110H184L184 288H188Z" fill="black"/>
<path d="M215.927 92.3636L219.302 100.392L225.336 92.3636H228.813L220.836 102.182L225.541 112H222.063L218.637 104.381L212.654 112H209.177L217.052 102.182L212.45 92.3636H215.927Z" fill="black"/>
<path d="M232 84L222 78.2265V89.7735L232 84ZM209 85H223V83H209V85Z" fill="black"/>
<path d="M312.679 265L313.02 263.082L327.679 245.526H315.79L316.173 243.182H331.216L330.918 245.099L316.216 262.656H328.105L327.722 265H312.679Z" fill="black"/>
<path d="M335 236L325 230.226V241.774L335 236ZM312 237H326V235H312V237Z" fill="black"/>
<path d="M205.884 263H203.483L213.565 244.091H215.929L219.733 263H217.332L214.341 247.082H214.193L205.884 263ZM207.989 255.614H217.665L217.332 257.645H207.656L207.989 255.614Z" fill="black"/>
<path d="M206.375 201.298C204.77 201.298 203.403 200.862 202.273 199.988C201.144 199.107 200.281 197.832 199.685 196.163C199.088 194.487 198.79 192.463 198.79 190.091C198.79 187.733 199.088 185.719 199.685 184.05C200.288 182.374 201.155 181.096 202.284 180.215C203.42 179.327 204.784 178.884 206.375 178.884C207.966 178.884 209.326 179.327 210.455 180.215C211.592 181.096 212.458 182.374 213.055 184.05C213.658 185.719 213.96 187.733 213.96 190.091C213.96 192.463 213.662 194.487 213.065 196.163C212.469 197.832 211.606 199.107 210.477 199.988C209.347 200.862 207.98 201.298 206.375 201.298ZM206.375 198.955C207.966 198.955 209.202 198.187 210.082 196.653C210.963 195.119 211.403 192.932 211.403 190.091C211.403 188.202 211.201 186.593 210.796 185.265C210.398 183.937 209.823 182.925 209.07 182.229C208.325 181.533 207.426 181.185 206.375 181.185C204.798 181.185 203.566 181.962 202.678 183.518C201.79 185.066 201.347 187.257 201.347 190.091C201.347 191.98 201.545 193.585 201.943 194.906C202.341 196.227 202.913 197.232 203.658 197.921C204.411 198.61 205.317 198.955 206.375 198.955Z" fill="#0E5E99"/>
<path d="M206.929 336.182V358H204.287V338.952H204.159L198.832 342.489V339.804L204.287 336.182H206.929Z" fill="#F21C26"/>
<path d="M736 432V306.5" stroke="#F21C26" stroke-width="8"/>
<line x1="736" y1="307" x2="736" y2="272" stroke="#F48489" stroke-width="8"/>
<path d="M673.642 208.27L585.78 274.655C585.091 275.176 585.342 276.266 586.189 276.434L805.56 319.913C805.84 319.968 806.13 319.902 806.358 319.73L894.22 253.345C894.909 252.824 894.658 251.734 893.811 251.566L674.44 208.087C674.16 208.032 673.87 208.098 673.642 208.27Z" fill="#F21C26" fill-opacity="0.26" stroke="#F21C26" stroke-width="8"/>
<path d="M673.642 191.81L585.78 258.195C585.091 258.716 585.342 259.806 586.189 259.974L805.56 303.453C805.84 303.508 806.13 303.442 806.358 303.27L894.22 236.885C894.909 236.365 894.658 235.274 893.811 235.106L674.44 191.627C674.16 191.572 673.87 191.638 673.642 191.81Z" fill="#0E5E99" fill-opacity="0.4" stroke="#0E5E99" stroke-width="8"/>
<line x1="736" y1="251" x2="736" y2="121" stroke="#0E5E99" stroke-width="8"/>
<path d="M737.208 257.594C738.088 256.927 738.261 255.672 737.594 254.792C736.927 253.912 735.672 253.739 734.792 254.406L737.208 257.594ZM627.615 338.15L650.529 335.272L636.579 316.867L627.615 338.15ZM734.792 254.406L640.752 325.683L643.168 328.871L737.208 257.594L734.792 254.406Z" fill="black"/>
<path d="M736.389 254.038C735.305 253.823 734.253 254.528 734.038 255.611C733.823 256.695 734.528 257.747 735.611 257.962L736.389 254.038ZM922.373 292.946L905 277.731L900.51 300.384L922.373 292.946ZM735.611 257.962L904.328 291.408L905.106 287.484L736.389 254.038L735.611 257.962Z" fill="black"/>
<path d="M736 80L724.453 100H747.547L736 80ZM738 256V98H734V256H738Z" fill="black"/>
<path d="M780.927 84.3636L784.302 92.392L790.336 84.3636H793.813L785.836 94.1818L790.541 104H787.063L783.637 96.3807L777.654 104H774.177L782.052 94.1818L777.45 84.3636H780.927Z" fill="black"/>
<path d="M797 76L787 70.2265V81.7735L797 76ZM774 77H788V75H774V77Z" fill="black"/>
<path d="M601.05 348.182H604.076L608.465 358.366H608.72L616.434 348.182H619.459L609.445 361.009L607.953 370H605.311L606.803 361.009L601.05 348.182Z" fill="black"/>
<path d="M622 341L612 335.226V346.774L622 341ZM599 342H613V340H599V342Z" fill="black"/>
<path d="M912.679 339L913.02 337.082L927.679 319.526H915.79L916.173 317.182H931.216L930.918 319.099L916.216 336.656H928.105L927.722 339H912.679Z" fill="black"/>
<path d="M935 310L925 304.226V315.774L935 310ZM912 311H926V309H912V311Z" fill="black"/>
<path d="M773.884 251H771.483L781.565 232.091H783.929L787.733 251H785.332L782.341 235.082H782.193L773.884 251ZM775.989 243.614H785.665L785.332 245.645H775.656L775.989 243.614Z" fill="black"/>
<path d="M645.375 188.298C643.77 188.298 642.403 187.862 641.273 186.988C640.144 186.107 639.281 184.832 638.685 183.163C638.088 181.487 637.79 179.463 637.79 177.091C637.79 174.733 638.088 172.719 638.685 171.05C639.288 169.374 640.155 168.096 641.284 167.215C642.421 166.327 643.784 165.884 645.375 165.884C646.966 165.884 648.326 166.327 649.455 167.215C650.592 168.096 651.458 169.374 652.055 171.05C652.658 172.719 652.96 174.733 652.96 177.091C652.96 179.463 652.662 181.487 652.065 183.163C651.469 184.832 650.606 186.107 649.477 186.988C648.347 187.862 646.98 188.298 645.375 188.298ZM645.375 185.955C646.966 185.955 648.202 185.187 649.082 183.653C649.963 182.119 650.403 179.932 650.403 177.091C650.403 175.202 650.201 173.593 649.796 172.265C649.398 170.937 648.823 169.925 648.07 169.229C647.325 168.533 646.426 168.185 645.375 168.185C643.798 168.185 642.566 168.962 641.678 170.518C640.791 172.066 640.347 174.257 640.347 177.091C640.347 178.98 640.546 180.585 640.943 181.906C641.341 183.227 641.913 184.232 642.658 184.921C643.411 185.61 644.317 185.955 645.375 185.955Z" fill="#0E5E99"/>
<path d="M768.929 387.182V409H766.287V389.952H766.159L760.832 393.489V390.804L766.287 387.182H768.929Z" fill="#F21C26"/>
</svg>
