<svg width="1500" height="550" viewBox="0 0 1500 550" fill="none" xmlns="http://www.w3.org/2000/svg">
<rect width="1500" height="550" fill="white"/>
<path d="M120 284H194V358H120V284Z" fill="#ACC4E6"/>
<path d="M120 284H194M120 284V358M120 284L194 358M194 284V358M194 284L120 358M194 358H120" stroke="#0E5E99" stroke-width="8"/>
<line x1="157" y1="284" x2="157" y2="158" stroke="#0E5E99" stroke-width="8"/>
<path d="M160.626 319.31C159.692 317.308 157.313 316.441 155.31 317.374C153.308 318.308 152.441 320.687 153.374 322.69L160.626 319.31ZM153.374 322.69L204.063 431.459L211.314 428.079L160.626 319.31L153.374 322.69Z" fill="#F21C26"/>
<path d="M129.098 320H126.698L136.78 301.091H139.144L142.948 320H140.547L137.556 304.082H137.408L129.098 320ZM131.203 312.614H140.88L140.547 314.645H130.871L131.203 312.614Z" fill="black"/>
<path d="M134.375 203.298C132.77 203.298 131.403 202.862 130.273 201.988C129.144 201.107 128.281 199.832 127.685 198.163C127.088 196.487 126.79 194.463 126.79 192.091C126.79 189.733 127.088 187.719 127.685 186.05C128.288 184.374 129.155 183.096 130.284 182.215C131.42 181.327 132.784 180.884 134.375 180.884C135.966 180.884 137.326 181.327 138.455 182.215C139.592 183.096 140.458 184.374 141.055 186.05C141.658 187.719 141.96 189.733 141.96 192.091C141.96 194.463 141.662 196.487 141.065 198.163C140.469 199.832 139.606 201.107 138.477 201.988C137.347 202.862 135.98 203.298 134.375 203.298ZM134.375 200.955C135.966 200.955 137.202 200.187 138.082 198.653C138.963 197.119 139.403 194.932 139.403 192.091C139.403 190.202 139.201 188.593 138.796 187.265C138.398 185.937 137.823 184.925 137.07 184.229C136.325 183.533 135.426 183.185 134.375 183.185C132.798 183.185 131.566 183.962 130.678 185.518C129.79 187.066 129.347 189.257 129.347 192.091C129.347 193.98 129.545 195.585 129.943 196.906C130.341 198.227 130.913 199.232 131.658 199.921C132.411 200.61 133.317 200.955 134.375 200.955Z" fill="#0E5E99"/>
<path d="M185.929 409.182V431H183.287V411.952H183.159L177.832 415.489V412.804L183.287 409.182H185.929Z" fill="#F21C26"/>
<path d="M157 318.516C155.895 318.516 155 319.412 155 320.516C155 321.621 155.895 322.516 157 322.516V318.516ZM317 320.516L297 308.969V332.063L317 320.516ZM157 322.516H299V318.516H157V322.516Z" fill="black"/>
<path d="M157.002 101L145.455 121H168.549L157.002 101ZM159.002 321L159.002 119H155.002L155.002 321H159.002Z" fill="black"/>
<path d="M264.05 347.182H267.076L271.465 357.366H271.72L279.434 347.182H282.459L272.445 360.009L270.953 369H268.311L269.803 360.009L264.05 347.182Z" fill="black"/>
<path d="M285 340L275 334.226V345.774L285 340ZM262 341H276V339H262V341Z" fill="black"/>
<path d="M178.679 151L179.02 149.082L193.679 131.526H181.79L182.173 129.182H197.216L196.918 131.099L182.216 148.656H194.105L193.722 151H178.679Z" fill="black"/>
<path d="M201 122L191 116.226V127.774L201 122ZM178 123H192V121H178V123Z" fill="black"/>
<line x1="513" y1="321" x2="843" y2="321" stroke="#F21C26" stroke-width="8"/>
<rect x="578" y="282" width="200" height="78" rx="1" fill="#ACC4E6" stroke="#0E5E99" stroke-width="8"/>
<line x1="678" y1="282" x2="678" y2="152" stroke="#0E5E99" stroke-width="8"/>
<path d="M657.5 204.298C655.895 204.298 654.528 203.862 653.398 202.988C652.269 202.107 651.406 200.832 650.81 199.163C650.213 197.487 649.915 195.463 649.915 193.091C649.915 190.733 650.213 188.719 650.81 187.05C651.413 185.374 652.28 184.096 653.409 183.215C654.545 182.327 655.909 181.884 657.5 181.884C659.091 181.884 660.451 182.327 661.58 183.215C662.717 184.096 663.583 185.374 664.18 187.05C664.783 188.719 665.085 190.733 665.085 193.091C665.085 195.463 664.787 197.487 664.19 199.163C663.594 200.832 662.731 202.107 661.602 202.988C660.472 203.862 659.105 204.298 657.5 204.298ZM657.5 201.955C659.091 201.955 660.327 201.187 661.207 199.653C662.088 198.119 662.528 195.932 662.528 193.091C662.528 191.202 662.326 189.593 661.921 188.265C661.523 186.937 660.948 185.925 660.195 185.229C659.45 184.533 658.551 184.185 657.5 184.185C655.923 184.185 654.691 184.962 653.803 186.518C652.915 188.066 652.472 190.257 652.472 193.091C652.472 194.98 652.67 196.585 653.068 197.906C653.466 199.227 654.038 200.232 654.783 200.921C655.536 201.61 656.442 201.955 657.5 201.955Z" fill="#0E5E99"/>
<path d="M831.956 289.182V311H829.314V291.952H829.186L823.86 295.489V292.804L829.314 289.182H831.956Z" fill="#F21C26"/>
<path d="M678 71L666.453 91H689.547L678 71ZM680 145V89H676V145H680Z" fill="black"/>
<path d="M429 321L449 332.547V309.453L429 321ZM503 319H447V323H503V319Z" fill="black"/>
<path d="M450.927 279.364L454.302 287.392L460.336 279.364H463.813L455.836 289.182L460.541 299H457.063L453.637 291.381L447.654 299H444.177L452.052 289.182L447.45 279.364H450.927Z" fill="black"/>
<path d="M467 271L457 265.226V276.774L467 271ZM444 272H458V270H444V272Z" fill="black"/>
<path d="M706.679 122L707.02 120.082L721.679 102.526H709.79L710.173 100.182H725.216L724.918 102.099L710.216 119.656H722.105L721.722 122H706.679Z" fill="black"/>
<path d="M729 93L719 87.2265V98.7735L729 93ZM706 94H720V92H706V94Z" fill="black"/>
<path d="M1446.21 96.3385L1371 153.509" stroke="#F21C26" stroke-width="8"/>
<path fill-rule="evenodd" clip-rule="evenodd" d="M1376 234.503C1376 234.816 1375.85 235.111 1375.6 235.3L1170 391V311L1108 269L1313.43 113.433C1313.77 113.174 1314.24 113.162 1314.59 113.402L1376 155V234.503Z" fill="#ACC4E6"/>
<path d="M1108 349L1170 391L1139 330L1108 349Z" fill="#ACC4E6"/>
<path d="M1108 349L1170 391L1139 330L1108 349Z" fill="#CBDAEF"/>
<path d="M1170 391V311L1139 330L1170 391Z" fill="#ACC4E6"/>
<path d="M1170 391V311L1139 330L1170 391Z" fill="#CBDAEF"/>
<path d="M1170 311L1108 269L1139 330L1170 311Z" fill="#ACC4E6"/>
<path d="M1170 311L1108 269L1139 330L1170 311Z" fill="#CBDAEF"/>
<path d="M1108 269V349L1139 330L1108 269Z" fill="#ACC4E6"/>
<path d="M1108 269V349L1139 330L1108 269Z" fill="#CBDAEF"/>
<path d="M1108 349L1170 391M1108 349V269M1108 349L1139 330M1170 391V311M1170 391L1375.6 235.3C1375.85 235.111 1376 234.816 1376 234.503V155M1170 391L1139 330M1170 311L1108 269M1170 311L1376 155M1170 311L1139 330M1108 269L1313.43 113.433C1313.77 113.174 1314.24 113.162 1314.59 113.402L1376 155M1108 269L1139 330" stroke="#0E5E99" stroke-width="8"/>
<line x1="1238" y1="227.004" x2="1238" y2="101" stroke="#0E5E99" stroke-width="8"/>
<path d="M1003.58 432.816L1138.92 329.936" stroke="#F21C26" stroke-width="8"/>
<path d="M1171.5 204.298C1169.89 204.298 1168.53 203.862 1167.4 202.988C1166.27 202.107 1165.41 200.832 1164.81 199.163C1164.21 197.487 1163.91 195.463 1163.91 193.091C1163.91 190.733 1164.21 188.719 1164.81 187.05C1165.41 185.374 1166.28 184.096 1167.41 183.215C1168.55 182.327 1169.91 181.884 1171.5 181.884C1173.09 181.884 1174.45 182.327 1175.58 183.215C1176.72 184.096 1177.58 185.374 1178.18 187.05C1178.78 188.719 1179.09 190.733 1179.09 193.091C1179.09 195.463 1178.79 197.487 1178.19 199.163C1177.59 200.832 1176.73 202.107 1175.6 202.988C1174.47 203.862 1173.11 204.298 1171.5 204.298ZM1171.5 201.955C1173.09 201.955 1174.33 201.187 1175.21 199.653C1176.09 198.119 1176.53 195.932 1176.53 193.091C1176.53 191.202 1176.33 189.593 1175.92 188.265C1175.52 186.937 1174.95 185.925 1174.2 185.229C1173.45 184.533 1172.55 184.185 1171.5 184.185C1169.92 184.185 1168.69 184.962 1167.8 186.518C1166.92 188.066 1166.47 190.257 1166.47 193.091C1166.47 194.98 1166.67 196.585 1167.07 197.906C1167.47 199.227 1168.04 200.232 1168.78 200.921C1169.54 201.61 1170.44 201.955 1171.5 201.955Z" fill="#0E5E99"/>
<path d="M1052.96 358.182V380H1050.31V360.952H1050.19L1044.86 364.489V361.804L1050.31 358.182H1052.96Z" fill="#F21C26"/>
<path d="M1238 37L1226.45 57H1249.55L1238 37ZM1240 227V55H1236V227H1240Z" fill="black"/>
<path d="M1389.29 360.205L1379.74 339.178L1366.3 357.962L1389.29 360.205ZM1270.39 277.627L1373.48 351.36L1375.81 348.107L1272.72 274.373L1270.39 277.627Z" fill="black"/>
<path d="M915 500.569L937.91 497.658L923.934 479.273L915 500.569ZM930.54 491.268L1003.78 435.592L1001.36 432.408L928.119 488.084L930.54 491.268Z" fill="black"/>
<path d="M965.927 484.364L969.302 492.392L975.336 484.364H978.813L970.836 494.182L975.541 504H972.063L968.637 496.381L962.654 504H959.177L967.052 494.182L962.45 484.364H965.927Z" fill="black"/>
<path d="M982 476L972 470.226V481.774L982 476ZM959 477H973V475H959V477Z" fill="black"/>
<path d="M1256.68 77L1257.02 75.0824L1271.68 57.5256H1259.79L1260.17 55.1818H1275.22L1274.92 57.0994L1260.22 74.6562H1272.11L1271.72 77H1256.68Z" fill="black"/>
<path d="M1279 48L1269 42.2265V53.7735L1279 48ZM1256 49H1270V47H1256V49Z" fill="black"/>
<path d="M1372.05 308.182H1375.08L1379.46 318.366H1379.72L1387.43 308.182H1390.46L1380.44 321.009L1378.95 330H1376.31L1377.8 321.009L1372.05 308.182Z" fill="black"/>
<path d="M1393 301L1383 295.226V306.774L1393 301ZM1370 302H1384V300H1370V302Z" fill="black"/>
</svg>
