<svg width="1500" height="550" viewBox="0 0 1500 550" fill="none" xmlns="http://www.w3.org/2000/svg">
<rect width="1500" height="550" fill="white"/>
<line x1="190.032" y1="348.119" x2="257.953" y2="331.184" stroke="#F21C26" stroke-width="8"/>
<circle cx="153" cy="355" r="38" fill="#ACC4E6" stroke="#0E5E99" stroke-width="8"/>
<path d="M134.185 323.5C138.625 319.462 144.525 317 151 317C164.807 317 176 328.193 176 342C176 355.807 164.807 367 151 367C144.525 367 138.625 364.538 134.185 360.5" stroke="#F21C26" stroke-width="2"/>
<line x1="153" y1="317" x2="153" y2="197" stroke="#0E5E99" stroke-width="8"/>
<path d="M132.098 369H129.698L139.78 350.091H142.144L145.948 369H143.547L140.556 353.082H140.408L132.098 369ZM134.203 361.614H143.88L143.547 363.645H133.871L134.203 361.614Z" fill="black"/>
<path d="M172.5 241.298C170.895 241.298 169.528 240.862 168.398 239.988C167.269 239.107 166.406 237.832 165.81 236.163C165.213 234.487 164.915 232.463 164.915 230.091C164.915 227.733 165.213 225.719 165.81 224.05C166.413 222.374 167.28 221.096 168.409 220.215C169.545 219.327 170.909 218.884 172.5 218.884C174.091 218.884 175.451 219.327 176.58 220.215C177.717 221.096 178.583 222.374 179.18 224.05C179.783 225.719 180.085 227.733 180.085 230.091C180.085 232.463 179.787 234.487 179.19 236.163C178.594 237.832 177.731 239.107 176.602 239.988C175.472 240.862 174.105 241.298 172.5 241.298ZM172.5 238.955C174.091 238.955 175.327 238.187 176.207 236.653C177.088 235.119 177.528 232.932 177.528 230.091C177.528 228.202 177.326 226.593 176.921 225.265C176.523 223.937 175.948 222.925 175.195 222.229C174.45 221.533 173.551 221.185 172.5 221.185C170.923 221.185 169.691 221.962 168.803 223.518C167.915 225.066 167.472 227.257 167.472 230.091C167.472 231.98 167.67 233.585 168.068 234.906C168.466 236.227 169.038 237.232 169.783 237.921C170.536 238.61 171.442 238.955 172.5 238.955Z" fill="#0E5E99"/>
<path d="M233.956 303.182V325H231.314V305.952H231.186L225.86 309.489V306.804L231.314 303.182H233.956Z" fill="#F21C26"/>
<path d="M153 353C151.895 353 151 353.895 151 355C151 356.105 151.895 357 153 357V353ZM313 355L293 343.453V366.547L313 355ZM153 357H295V353H153V357Z" fill="black"/>
<path d="M153 125L141.453 145H164.547L153 125ZM155 355L155 143H151L151 355H155Z" fill="black"/>
<path d="M169.679 176L170.02 174.082L184.679 156.526H172.79L173.173 154.182H188.216L187.918 156.099L173.216 173.656H185.105L184.722 176H169.679Z" fill="black"/>
<path d="M192 147L182 141.226V152.774L192 147ZM169 148H183V146H169V148Z" fill="black"/>
<path d="M268.05 375.182H271.076L275.465 385.366H275.72L283.434 375.182H286.459L276.445 388.009L274.953 397H272.311L273.803 388.009L268.05 375.182Z" fill="black"/>
<path d="M289 368L279 362.226V373.774L289 368ZM266 369H280V367H266V369Z" fill="black"/>
<line x1="518" y1="365" x2="848" y2="365" stroke="#F21C26" stroke-width="8"/>
<rect x="583" y="326" width="200" height="78" rx="1" fill="#ACC4E6" stroke="#0E5E99" stroke-width="8"/>
<path d="M593 365V369C595.209 369 597 367.209 597 365H593ZM773 365V361C770.791 361 769 362.791 769 365H773ZM583 369H593V361H583V369ZM773 369H783V361H773V369ZM597 365C597 358.925 601.925 354 608 354V346C597.507 346 589 354.507 589 365H597ZM608 354C614.075 354 619 358.925 619 365H627C627 354.507 618.493 346 608 346V354ZM649 365C649 371.075 644.075 376 638 376V384C648.493 384 657 375.493 657 365H649ZM638 376C631.925 376 627 371.075 627 365H619C619 375.493 627.507 384 638 384V376ZM657 365C657 358.925 661.925 354 668 354V346C657.507 346 649 354.507 649 365H657ZM668 354C674.075 354 679 358.925 679 365H687C687 354.507 678.493 346 668 346V354ZM709 365C709 371.075 704.075 376 698 376V384C708.493 384 717 375.493 717 365H709ZM698 376C691.925 376 687 371.075 687 365H679C679 375.493 687.507 384 698 384V376ZM717 365C717 358.925 721.925 354 728 354V346C717.507 346 709 354.507 709 365H717ZM728 354C734.075 354 739 358.925 739 365H747C747 354.507 738.493 346 728 346V354ZM769 365C769 371.075 764.075 376 758 376V384C768.493 384 777 375.493 777 365H769ZM758 376C751.925 376 747 371.075 747 365H739C739 375.493 747.507 384 758 384V376Z" fill="#0E5E99"/>
<line x1="683" y1="326" x2="683" y2="196" stroke="#0E5E99" stroke-width="8"/>
<path d="M692.098 356H689.698L699.78 337.091H702.144L705.948 356H703.547L700.556 340.082H700.408L692.098 356ZM694.203 348.614H703.88L703.547 350.645H693.871L694.203 348.614Z" fill="black"/>
<path d="M663.5 248.298C661.895 248.298 660.528 247.862 659.398 246.988C658.269 246.107 657.406 244.832 656.81 243.163C656.213 241.487 655.915 239.463 655.915 237.091C655.915 234.733 656.213 232.719 656.81 231.05C657.413 229.374 658.28 228.096 659.409 227.215C660.545 226.327 661.909 225.884 663.5 225.884C665.091 225.884 666.451 226.327 667.58 227.215C668.717 228.096 669.583 229.374 670.18 231.05C670.783 232.719 671.085 234.733 671.085 237.091C671.085 239.463 670.787 241.487 670.19 243.163C669.594 244.832 668.731 246.107 667.602 246.988C666.472 247.862 665.105 248.298 663.5 248.298ZM663.5 245.955C665.091 245.955 666.327 245.187 667.207 243.653C668.088 242.119 668.528 239.932 668.528 237.091C668.528 235.202 668.326 233.593 667.921 232.265C667.523 230.937 666.948 229.925 666.195 229.229C665.45 228.533 664.551 228.185 663.5 228.185C661.923 228.185 660.691 228.962 659.803 230.518C658.915 232.066 658.472 234.257 658.472 237.091C658.472 238.98 658.67 240.585 659.068 241.906C659.466 243.227 660.038 244.232 660.783 244.921C661.536 245.61 662.442 245.955 663.5 245.955Z" fill="#0E5E99"/>
<path d="M837.956 335.182V357H835.314V337.952H835.186L829.86 341.489V338.804L835.314 335.182H837.956Z" fill="#F21C26"/>
<path d="M683 116L671.453 136H694.547L683 116ZM685 190V134H681V190H685Z" fill="black"/>
<path d="M433 365L453 376.547V353.453L433 365ZM507 363H451V367H507V363Z" fill="black"/>
<path d="M467.927 327.364L471.302 335.392L477.336 327.364H480.813L472.836 337.182L477.541 347H474.063L470.637 339.381L464.654 347H461.177L469.052 337.182L464.45 327.364H467.927Z" fill="black"/>
<path d="M484 319L474 313.226V324.774L484 319ZM461 320H475V318H461V320Z" fill="black"/>
<path d="M711.679 167L712.02 165.082L726.679 147.526H714.79L715.173 145.182H730.216L729.918 147.099L715.216 164.656H727.105L726.722 167H711.679Z" fill="black"/>
<path d="M734 138L724 132.226V143.774L734 138ZM711 139H725V137H711V139Z" fill="black"/>
<path d="M1442.26 175.04L1341.5 232.513" stroke="#F21C26" stroke-width="8"/>
<path d="M1442.26 175.04L1341.5 232.513" stroke="#F21C26" stroke-width="8"/>
<path d="M1212 70L1200.45 90H1223.55L1212 70ZM1214 307V88H1210V307H1214Z" fill="black"/>
<path d="M1213.06 305.304C1212.12 304.719 1210.89 305.003 1210.3 305.94C1209.72 306.877 1210 308.111 1210.94 308.696L1213.06 305.304ZM1347.69 391.787L1336.85 371.396L1324.61 390.981L1347.69 391.787ZM1210.94 308.696L1251.94 334.316L1254.06 330.924L1213.06 305.304L1210.94 308.696ZM1251.94 334.316L1331.36 383.945L1333.48 380.552L1254.06 330.924L1251.94 334.316Z" fill="black"/>
<path d="M904 480.411L927.094 480.531L915.652 460.471L904 480.411ZM920.626 473.23L1209.01 308.737L1207.03 305.263L918.644 469.755L920.626 473.23Z" fill="black"/>
<path d="M910.927 431.364L914.302 439.392L920.336 431.364H923.813L915.836 441.182L920.541 451H917.063L913.637 443.381L907.654 451H904.177L912.052 441.182L907.45 431.364H910.927Z" fill="black"/>
<path d="M927 423L917 417.226V428.774L927 423ZM904 424H918V422H904V424Z" fill="black"/>
<path d="M1295.05 394.182H1298.08L1302.46 404.366H1302.72L1310.43 394.182H1313.46L1303.44 407.009L1301.95 416H1299.31L1300.8 407.009L1295.05 394.182Z" fill="black"/>
<path d="M1316 387L1306 381.226V392.774L1316 387ZM1293 388H1307V386H1293V388Z" fill="black"/>
<path d="M1230.68 120L1231.02 118.082L1245.68 100.526H1233.79L1234.17 98.1818H1249.22L1248.92 100.099L1234.22 117.656H1246.11L1245.72 120H1230.68Z" fill="black"/>
<path d="M1253 91L1243 85.2265V96.7735L1253 91ZM1230 92H1244V90H1230V92Z" fill="black"/>
<path d="M1149.68 343.117C1168.29 375.144 1169.06 409.449 1151.39 419.739C1133.72 430.029 1104.31 412.407 1085.7 380.38C1067.08 348.354 1066.32 314.049 1083.99 303.759C1101.69 293.867 1131.18 311.284 1149.68 343.117Z" fill="#0E5E99" fill-opacity="0.4"/>
<path d="M1149.68 343.117C1168.29 375.144 1169.06 409.449 1151.39 419.739L1344.45 309.59C1362.12 299.3 1361.36 264.996 1342.74 232.969C1324.13 200.942 1294.71 183.321 1277.05 193.611L1083.99 303.759C1101.69 293.867 1131.18 311.284 1149.68 343.117Z" fill="#0E5E99" fill-opacity="0.4"/>
<path d="M1149.68 343.117C1168.29 375.144 1169.06 409.449 1151.39 419.739L1344.45 309.59C1362.12 299.3 1361.36 264.996 1342.74 232.969C1324.13 200.942 1294.71 183.321 1277.05 193.611L1083.99 303.759C1101.69 293.867 1131.18 311.284 1149.68 343.117Z" fill="#0E5E99" fill-opacity="0.44"/>
<path d="M1151.39 419.739C1169.06 409.449 1168.29 375.144 1149.68 343.117C1131.18 311.284 1101.69 293.867 1083.99 303.759M1151.39 419.739C1133.72 430.029 1104.31 412.407 1085.7 380.38C1067.08 348.354 1066.32 314.049 1083.99 303.759M1151.39 419.739L1344.45 309.59C1362.12 299.3 1361.36 264.996 1342.74 232.969C1324.13 200.942 1294.71 183.321 1277.05 193.611L1083.99 303.759M1190.55 397.395C1208.22 387.105 1207.47 352.821 1188.85 320.794C1170.35 288.961 1140.86 271.516 1123.16 281.407M1229.78 375.014C1247.45 364.724 1246.64 330.321 1228.03 298.294C1209.53 266.461 1180.14 249.108 1162.44 259M1268.95 352.667C1286.62 342.377 1285.81 308.021 1267.2 275.994C1248.7 244.161 1219.23 226.804 1201.53 236.696M1308 330.389C1325.67 320.099 1324.99 285.821 1306.37 253.794C1287.87 221.961 1258.36 204.478 1240.66 214.369" stroke="#0E5E99" stroke-width="8"/>
<line x1="1212" y1="130" x2="1212" y2="260" stroke="#0E5E99" stroke-width="8"/>
<path d="M965.018 447.255L1116.16 361.045" stroke="#F21C26" stroke-width="8"/>
<path d="M965.018 447.255L1116.16 361.045" stroke="#F21C26" stroke-width="8"/>
<path d="M1224.1 302H1221.7L1231.78 283.091H1234.14L1237.95 302H1235.55L1232.56 286.082H1232.41L1224.1 302ZM1226.2 294.614H1235.88L1235.55 296.645H1225.87L1226.2 294.614Z" fill="black"/>
<path d="M1278.5 181.298C1276.89 181.298 1275.53 180.862 1274.4 179.988C1273.27 179.107 1272.41 177.832 1271.81 176.163C1271.21 174.487 1270.91 172.463 1270.91 170.091C1270.91 167.733 1271.21 165.719 1271.81 164.05C1272.41 162.374 1273.28 161.096 1274.41 160.215C1275.55 159.327 1276.91 158.884 1278.5 158.884C1280.09 158.884 1281.45 159.327 1282.58 160.215C1283.72 161.096 1284.58 162.374 1285.18 164.05C1285.78 165.719 1286.09 167.733 1286.09 170.091C1286.09 172.463 1285.79 174.487 1285.19 176.163C1284.59 177.832 1283.73 179.107 1282.6 179.988C1281.47 180.862 1280.11 181.298 1278.5 181.298ZM1278.5 178.955C1280.09 178.955 1281.33 178.187 1282.21 176.653C1283.09 175.119 1283.53 172.932 1283.53 170.091C1283.53 168.202 1283.33 166.593 1282.92 165.265C1282.52 163.937 1281.95 162.925 1281.2 162.229C1280.45 161.533 1279.55 161.185 1278.5 161.185C1276.92 161.185 1275.69 161.962 1274.8 163.518C1273.92 165.066 1273.47 167.257 1273.47 170.091C1273.47 171.98 1273.67 173.585 1274.07 174.906C1274.47 176.227 1275.04 177.232 1275.78 177.921C1276.54 178.61 1277.44 178.955 1278.5 178.955Z" fill="#0E5E99"/>
<path d="M1020.96 378.182V400H1018.31V380.952H1018.19L1012.86 384.489V381.804L1018.31 378.182H1020.96Z" fill="#F21C26"/>
<path d="M1347.69 391.787L1336.85 371.396L1324.61 390.981L1347.69 391.787ZM1251.94 334.316L1331.36 383.945L1333.48 380.552L1254.06 330.924L1251.94 334.316Z" fill="black"/>
</svg>
