<svg width="1500" height="550" viewBox="0 0 1500 550" fill="none" xmlns="http://www.w3.org/2000/svg">
<rect width="1500" height="550" fill="white"/>
<line x1="329" y1="527" x2="329" y2="427" stroke="#0E5E99" stroke-width="8"/>
<rect x="194" y="342" width="270" height="85" fill="#0E5E99" fill-opacity="0.4" stroke="#0E5E99" stroke-width="8"/>
<path d="M327 344C328.105 344 329 343.105 329 342C329 340.895 328.105 340 327 340V344ZM107 342L127 353.547V330.453L107 342ZM327 340H125V344H327V340Z" fill="black"/>
<path d="M327.002 22L315.455 42H338.549L327.002 22ZM329.002 342L329.002 40H325.002L325.002 342H329.002Z" fill="black"/>
<path d="M147.927 310.364L151.302 318.392L157.336 310.364H160.813L152.836 320.182L157.541 330H154.063L150.637 322.381L144.654 330H141.177L149.052 320.182L144.45 310.364H147.927Z" fill="black"/>
<path d="M164 302L154 296.226V307.774L164 302ZM141 303H155V301H141V303Z" fill="black"/>
<path d="M350.679 72L351.02 70.0824L365.679 52.5256H353.79L354.173 50.1818H369.216L368.918 52.0994L354.216 69.6562H366.105L365.722 72H350.679Z" fill="black"/>
<path d="M373 43L363 37.2265V48.7735L373 43ZM350 44H364V42H350V44Z" fill="black"/>
<circle cx="327" cy="342" r="70" fill="#F21C26" fill-opacity="0.26" stroke="#F21C26" stroke-width="8"/>
<line x1="327" y1="269.003" x2="327" y2="95" stroke="#F21C26" stroke-width="8"/>
<path d="M340.098 367H337.698L347.78 348.091H350.144L353.948 367H351.547L348.556 351.082H348.408L340.098 367ZM342.203 359.614H351.88L351.547 361.645H341.871L342.203 359.614Z" fill="black"/>
<path d="M347.5 488.298C345.895 488.298 344.528 487.862 343.398 486.988C342.269 486.107 341.406 484.832 340.81 483.163C340.213 481.487 339.915 479.463 339.915 477.091C339.915 474.733 340.213 472.719 340.81 471.05C341.413 469.374 342.28 468.096 343.409 467.215C344.545 466.327 345.909 465.884 347.5 465.884C349.091 465.884 350.451 466.327 351.58 467.215C352.717 468.096 353.583 469.374 354.18 471.05C354.783 472.719 355.085 474.733 355.085 477.091C355.085 479.463 354.787 481.487 354.19 483.163C353.594 484.832 352.731 486.107 351.602 486.988C350.472 487.862 349.105 488.298 347.5 488.298ZM347.5 485.955C349.091 485.955 350.327 485.187 351.207 483.653C352.088 482.119 352.528 479.932 352.528 477.091C352.528 475.202 352.326 473.593 351.921 472.265C351.523 470.937 350.948 469.925 350.195 469.229C349.45 468.533 348.551 468.185 347.5 468.185C345.923 468.185 344.691 468.962 343.803 470.518C342.915 472.066 342.472 474.257 342.472 477.091C342.472 478.98 342.67 480.585 343.068 481.906C343.466 483.227 344.038 484.232 344.783 484.921C345.536 485.61 346.442 485.955 347.5 485.955Z" fill="#0E5E99"/>
<path d="M378.956 247.182V269H376.314V249.952H376.186L370.86 253.489V250.804L376.314 247.182H378.956Z" fill="#F21C26"/>
<line x1="725" y1="527" x2="725" y2="427" stroke="#0E5E99" stroke-width="8"/>
<line x1="625" y1="427" x2="825" y2="427" stroke="#0E5E99" stroke-width="8"/>
<path d="M825 327C825 382.228 780.228 427 725 427C669.772 427 625 382.228 625 327" stroke="#0E5E99" stroke-width="8"/>
<path d="M725 325C723.895 325 723 325.895 723 327C723 328.105 723.895 329 725 329V325ZM905 327L885 315.453V338.547L905 327ZM725 329H887V325H725V329Z" fill="black"/>
<path d="M725 27L713.453 47H736.547L725 27ZM727 327V45H723V327H727Z" fill="black"/>
<path d="M858.05 287.182H861.076L865.465 297.366H865.72L873.434 287.182H876.459L866.445 300.009L864.953 309H862.311L863.803 300.009L858.05 287.182Z" fill="black"/>
<path d="M879 280L869 274.226V285.774L879 280ZM856 281H870V279H856V281Z" fill="black"/>
<path d="M745.679 72L746.02 70.0824L760.679 52.5256H748.79L749.173 50.1818H764.216L763.918 52.0994L749.216 69.6562H761.105L760.722 72H745.679Z" fill="black"/>
<path d="M768 43L758 37.2265V48.7735L768 43ZM745 44H759V42H745V44Z" fill="black"/>
<circle cx="725" cy="327" r="70" fill="#F21C26" fill-opacity="0.26" stroke="#F21C26" stroke-width="8"/>
<line x1="709.265" y1="258.032" x2="673.087" y2="87.8317" stroke="#F21C26" stroke-width="8"/>
<path d="M740.098 314H737.698L747.78 295.091H750.144L753.948 314H751.547L748.556 298.082H748.408L740.098 314ZM742.203 306.614H751.88L751.547 308.645H741.871L742.203 306.614Z" fill="black"/>
<path d="M747.5 488.298C745.895 488.298 744.528 487.862 743.398 486.988C742.269 486.107 741.406 484.832 740.81 483.163C740.213 481.487 739.915 479.463 739.915 477.091C739.915 474.733 740.213 472.719 740.81 471.05C741.413 469.374 742.28 468.096 743.409 467.215C744.545 466.327 745.909 465.884 747.5 465.884C749.091 465.884 750.451 466.327 751.58 467.215C752.717 468.096 753.583 469.374 754.18 471.05C754.783 472.719 755.085 474.733 755.085 477.091C755.085 479.463 754.787 481.487 754.19 483.163C753.594 484.832 752.731 486.107 751.602 486.988C750.472 487.862 749.105 488.298 747.5 488.298ZM747.5 485.955C749.091 485.955 750.327 485.187 751.207 483.653C752.088 482.119 752.528 479.932 752.528 477.091C752.528 475.202 752.326 473.593 751.921 472.265C751.523 470.937 750.948 469.925 750.195 469.229C749.45 468.533 748.551 468.185 747.5 468.185C745.923 468.185 744.691 468.962 743.803 470.518C742.915 472.066 742.472 474.257 742.472 477.091C742.472 478.98 742.67 480.585 743.068 481.906C743.466 483.227 744.038 484.232 744.783 484.921C745.536 485.61 746.442 485.955 747.5 485.955Z" fill="#0E5E99"/>
<path d="M661.956 243.182V265H659.314V245.952H659.186L653.86 249.489V246.804L659.314 243.182H661.956Z" fill="#F21C26"/>
<path d="M1223 483V408" stroke="#0E5E99" stroke-width="8"/>
<path d="M1223 373V408" stroke="#ACC4E6" stroke-width="8"/>
<path d="M1314.33 174.556L1088.43 307.972C1088.36 308.012 1088.3 308.061 1088.24 308.115C1034.45 360.118 1118.39 470.984 1167.33 441.032L1393.33 307.556C1352.36 331.75 1251.86 247.5 1314.33 174.556Z" fill="#0E5E99" fill-opacity="0.4" stroke="#0E5E99" stroke-width="8" stroke-linejoin="round"/>
<path d="M1223.36 57L1211.82 77H1234.91L1223.36 57ZM1225.36 317V75H1221.36V317H1225.36Z" fill="black"/>
<path d="M1357.36 410L1347.52 389.11L1334.35 408.083L1357.36 410ZM1222.22 318.643L1341.43 401.38L1343.72 398.094L1224.5 315.357L1222.22 318.643Z" fill="black"/>
<path d="M1008 443.96L1031.09 443.751L1019.36 423.856L1008 443.96ZM1222.35 315.277L1022.49 433.096L1024.52 436.542L1224.38 318.723L1222.35 315.277Z" fill="black"/>
<path d="M1028.29 395.364L1031.66 403.392L1037.7 395.364H1041.18L1033.2 405.182L1037.9 415H1034.43L1031 407.381L1025.02 415H1021.54L1029.41 405.182L1024.81 395.364H1028.29Z" fill="black"/>
<path d="M1044.36 387L1034.36 381.226V392.774L1044.36 387ZM1021.36 388H1035.36V386H1021.36V388Z" fill="black"/>
<path d="M1308.41 409.182H1311.44L1315.83 419.366H1316.08L1323.8 409.182H1326.82L1316.81 422.009L1315.32 431H1312.67L1314.17 422.009L1308.41 409.182Z" fill="black"/>
<path d="M1329.36 402L1319.36 396.226V407.774L1329.36 402ZM1306.36 403H1320.36V401H1306.36V403Z" fill="black"/>
<path d="M1241.04 106L1241.38 104.082L1256.04 86.5256H1244.15L1244.54 84.1818H1259.58L1259.28 86.0994L1244.58 103.656H1256.47L1256.08 106H1241.04Z" fill="black"/>
<path d="M1263.36 77L1253.36 71.2265V82.7735L1263.36 77ZM1240.36 78H1254.36V76H1240.36V78Z" fill="black"/>
<circle cx="1223" cy="317" r="75" fill="#F21C26" fill-opacity="0.26" stroke="#F21C26" stroke-width="8"/>
<line x1="1169.9" y1="320.913" x2="993.832" y2="358.337" stroke="#F21C26" stroke-width="8"/>
<path d="M1188.46 310H1186.06L1196.14 291.091H1198.51L1202.31 310H1199.91L1196.92 294.082H1196.77L1188.46 310ZM1190.57 302.614H1200.24L1199.91 304.645H1190.23L1190.57 302.614Z" fill="black"/>
<path d="M1242.5 453.298C1240.89 453.298 1239.53 452.862 1238.4 451.988C1237.27 451.107 1236.41 449.832 1235.81 448.163C1235.21 446.487 1234.91 444.463 1234.91 442.091C1234.91 439.733 1235.21 437.719 1235.81 436.05C1236.41 434.374 1237.28 433.096 1238.41 432.215C1239.55 431.327 1240.91 430.884 1242.5 430.884C1244.09 430.884 1245.45 431.327 1246.58 432.215C1247.72 433.096 1248.58 434.374 1249.18 436.05C1249.78 437.719 1250.09 439.733 1250.09 442.091C1250.09 444.463 1249.79 446.487 1249.19 448.163C1248.59 449.832 1247.73 451.107 1246.6 451.988C1245.47 452.862 1244.11 453.298 1242.5 453.298ZM1242.5 450.955C1244.09 450.955 1245.33 450.187 1246.21 448.653C1247.09 447.119 1247.53 444.932 1247.53 442.091C1247.53 440.202 1247.33 438.593 1246.92 437.265C1246.52 435.937 1245.95 434.925 1245.2 434.229C1244.45 433.533 1243.55 433.185 1242.5 433.185C1240.92 433.185 1239.69 433.962 1238.8 435.518C1237.92 437.066 1237.47 439.257 1237.47 442.091C1237.47 443.98 1237.67 445.585 1238.07 446.906C1238.47 448.227 1239.04 449.232 1239.78 449.921C1240.54 450.61 1241.44 450.955 1242.5 450.955Z" fill="#0E5E99"/>
<path d="M1020.96 323.182V345H1018.31V325.952H1018.19L1012.86 329.489V326.804L1018.31 323.182H1020.96Z" fill="#F21C26"/>
</svg>
