<svg width="1500" height="550" viewBox="0 0 1500 550" fill="none" xmlns="http://www.w3.org/2000/svg">
<rect width="1500" height="550" fill="white"/>
<path d="M420 347H295M170 347H295M295 347V471" stroke="#0E5E99" stroke-width="8"/>
<path d="M150 273H440L407.324 339H182.676L150 273Z" fill="#F21C26" fill-opacity="0.26" stroke="#F21C26" stroke-width="8"/>
<line x1="295" y1="273" x2="295" y2="163" stroke="#F21C26" stroke-width="8"/>
<path d="M308.098 327H305.698L315.78 308.091H318.144L321.948 327H319.547L316.556 311.082H316.408L308.098 327ZM310.203 319.614H319.88L319.547 321.645H309.871L310.203 319.614Z" fill="black"/>
<path d="M313.5 406.298C311.895 406.298 310.528 405.862 309.398 404.988C308.269 404.107 307.406 402.832 306.81 401.163C306.213 399.487 305.915 397.463 305.915 395.091C305.915 392.733 306.213 390.719 306.81 389.05C307.413 387.374 308.28 386.096 309.409 385.215C310.545 384.327 311.909 383.884 313.5 383.884C315.091 383.884 316.451 384.327 317.58 385.215C318.717 386.096 319.583 387.374 320.18 389.05C320.783 390.719 321.085 392.733 321.085 395.091C321.085 397.463 320.787 399.487 320.19 401.163C319.594 402.832 318.731 404.107 317.602 404.988C316.472 405.862 315.105 406.298 313.5 406.298ZM313.5 403.955C315.091 403.955 316.327 403.187 317.207 401.653C318.088 400.119 318.528 397.932 318.528 395.091C318.528 393.202 318.326 391.593 317.921 390.265C317.523 388.937 316.948 387.925 316.195 387.229C315.45 386.533 314.551 386.185 313.5 386.185C311.923 386.185 310.691 386.962 309.803 388.518C308.915 390.066 308.472 392.257 308.472 395.091C308.472 396.98 308.67 398.585 309.068 399.906C309.466 401.227 310.038 402.232 310.783 402.921C311.536 403.61 312.442 403.955 313.5 403.955Z" fill="#0E5E99"/>
<path d="M420.956 241.182V263H418.314V243.952H418.186L412.86 247.489V244.804L418.314 241.182H420.956Z" fill="#F21C26"/>
<path d="M295 349C296.105 349 297 348.105 297 347C297 345.895 296.105 345 295 345V349ZM75 347L95 358.547V335.453L75 347ZM295 345H93V349H295V345Z" fill="black"/>
<path d="M295.002 87L283.455 107H306.549L295.002 87ZM297.002 347L297.002 105H293.002L293.002 347H297.002Z" fill="black"/>
<path d="M318.927 116.364L322.302 124.392L328.336 116.364H331.813L323.836 126.182L328.541 136H325.063L321.637 128.381L315.654 136H312.177L320.052 126.182L315.45 116.364H318.927Z" fill="black"/>
<path d="M335 108L325 102.226V113.774L335 108ZM312 109H326V107H312V109Z" fill="black"/>
<path d="M102.05 307.182H105.076L109.465 317.366H109.72L117.434 307.182H120.459L110.445 320.009L108.953 329H106.311L107.803 320.009L102.05 307.182Z" fill="black"/>
<path d="M123 300L113 294.226V305.774L123 300ZM100 301H114V299H100V301Z" fill="black"/>
<path d="M849 347H724M599 347H724M724 347V471" stroke="#0E5E99" stroke-width="8"/>
<path d="M724.24 340L687.001 274H761.479L724.24 340Z" fill="#F21C26" fill-opacity="0.26" stroke="#F21C26" stroke-width="8"/>
<line x1="724" y1="274" x2="724" y2="164" stroke="#F21C26" stroke-width="8"/>
<path d="M684.098 333H681.698L691.78 314.091H694.144L697.948 333H695.547L692.556 317.082H692.408L684.098 333ZM686.203 325.614H695.88L695.547 327.645H685.871L686.203 325.614Z" fill="black"/>
<path d="M742.5 406.298C740.895 406.298 739.528 405.862 738.398 404.988C737.269 404.107 736.406 402.832 735.81 401.163C735.213 399.487 734.915 397.463 734.915 395.091C734.915 392.733 735.213 390.719 735.81 389.05C736.413 387.374 737.28 386.096 738.409 385.215C739.545 384.327 740.909 383.884 742.5 383.884C744.091 383.884 745.451 384.327 746.58 385.215C747.717 386.096 748.583 387.374 749.18 389.05C749.783 390.719 750.085 392.733 750.085 395.091C750.085 397.463 749.787 399.487 749.19 401.163C748.594 402.832 747.731 404.107 746.602 404.988C745.472 405.862 744.105 406.298 742.5 406.298ZM742.5 403.955C744.091 403.955 745.327 403.187 746.207 401.653C747.088 400.119 747.528 397.932 747.528 395.091C747.528 393.202 747.326 391.593 746.921 390.265C746.523 388.937 745.948 387.925 745.195 387.229C744.45 386.533 743.551 386.185 742.5 386.185C740.923 386.185 739.691 386.962 738.803 388.518C737.915 390.066 737.472 392.257 737.472 395.091C737.472 396.98 737.67 398.585 738.068 399.906C738.466 401.227 739.038 402.232 739.783 402.921C740.536 403.61 741.442 403.955 742.5 403.955Z" fill="#0E5E99"/>
<path d="M695.956 229.182V251H693.314V231.952H693.186L687.86 235.489V232.804L693.314 229.182H695.956Z" fill="#F21C26"/>
<path d="M724 345C722.895 345 722 345.895 722 347C722 348.105 722.895 349 724 349V345ZM904 347L884 335.453V358.547L904 347ZM724 349H886V345H724V349Z" fill="black"/>
<path d="M724 87L712.453 107H735.547L724 87ZM726 347V105H722V347H726Z" fill="black"/>
<path d="M833.679 329L834.02 327.082L848.679 309.526H836.79L837.173 307.182H852.216L851.918 309.099L837.216 326.656H849.105L848.722 329H833.679Z" fill="black"/>
<path d="M856 300L846 294.226V305.774L856 300ZM833 301H847V299H833V301Z" fill="black"/>
<path d="M746.927 115.364L750.302 123.392L756.336 115.364H759.813L751.836 125.182L756.541 135H753.063L749.637 127.381L743.654 135H740.177L748.052 125.182L743.45 115.364H746.927Z" fill="black"/>
<path d="M763 107L753 101.226V112.774L763 107ZM740 108H754V106H740V108Z" fill="black"/>
<line x1="1182" y1="491" x2="1182" y2="411" stroke="#0E5E99" stroke-width="8"/>
<path d="M1231.47 194.299C1231.79 194.115 1232.2 194.13 1232.51 194.337L1384.63 295.096C1385.26 295.509 1385.22 296.435 1384.57 296.801L1140.53 433.701C1140.21 433.885 1139.8 433.87 1139.49 433.663L987.366 332.904C986.742 332.491 986.776 331.565 987.429 331.199L1231.47 194.299Z" fill="#0E5E99" fill-opacity="0.4" stroke="#0E5E99" stroke-width="8"/>
<path d="M1182.01 58L1170.46 78H1193.56L1182.01 58ZM1184.01 318V76H1180.01V318H1184.01Z" fill="black"/>
<path d="M1314.41 407.838L1304.34 387.053L1291.38 406.163L1314.41 407.838ZM1180.89 319.655L1298.39 399.386L1300.64 396.076L1183.13 316.345L1180.89 319.655Z" fill="black"/>
<path d="M1207.58 88.3636L1210.95 96.392L1216.98 88.3636H1220.46L1212.48 98.1818L1217.19 108H1213.71L1210.29 100.381L1204.3 108H1200.83L1208.7 98.1818L1204.1 88.3636H1207.58Z" fill="black"/>
<path d="M1223.65 80L1213.65 74.2265V85.7735L1223.65 80ZM1200.65 81H1214.65V79H1200.65V81Z" fill="black"/>
<path d="M1028.05 426.182H1031.08L1035.46 436.366H1035.72L1043.43 426.182H1046.46L1036.44 439.009L1034.95 448H1032.31L1033.8 439.009L1028.05 426.182Z" fill="black"/>
<path d="M1049 419L1039 413.226V424.774L1049 419ZM1026 420H1040V418H1026V420Z" fill="black"/>
<path d="M1315.33 388L1315.67 386.082L1330.33 368.526H1318.44L1318.82 366.182H1333.86L1333.57 368.099L1318.86 385.656H1330.75L1330.37 388H1315.33Z" fill="black"/>
<path d="M1337.65 359L1327.65 353.226V364.774L1337.65 359ZM1314.65 360H1328.65V358H1314.65V360Z" fill="black"/>
<path d="M1040 286L1258 166L1326 212L1296 250L1078 370L1040 286Z" fill="#F21C26" fill-opacity="0.26"/>
<path d="M1040 286L1258 166L1326 212M1040 286L1108 332M1040 286L1078 370M1108 332L1326 212M1108 332L1078 370M1326 212L1296 250L1078 370" stroke="#F21C26" stroke-width="8"/>
<line x1="1182" y1="251.022" x2="1182" y2="159.022" stroke="#F21C26" stroke-width="8"/>
<path d="M1182.98 319.75C1183.95 319.215 1184.3 317.999 1183.76 317.032C1183.23 316.065 1182.01 315.715 1181.04 316.25L1182.98 319.75ZM989.499 424.486L1012.59 424.91L1001.41 404.701L989.499 424.486ZM1181.04 316.25L1004.28 414.023L1006.22 417.523L1182.98 319.75L1181.04 316.25Z" fill="black"/>
<path d="M1170.1 347H1167.7L1177.78 328.091H1180.14L1183.95 347H1181.55L1178.56 331.082H1178.41L1170.1 347ZM1172.2 339.614H1181.88L1181.55 341.645H1171.87L1172.2 339.614Z" fill="black"/>
<path d="M1198.5 445.298C1196.89 445.298 1195.53 444.862 1194.4 443.988C1193.27 443.107 1192.41 441.832 1191.81 440.163C1191.21 438.487 1190.91 436.463 1190.91 434.091C1190.91 431.733 1191.21 429.719 1191.81 428.05C1192.41 426.374 1193.28 425.096 1194.41 424.215C1195.55 423.327 1196.91 422.884 1198.5 422.884C1200.09 422.884 1201.45 423.327 1202.58 424.215C1203.72 425.096 1204.58 426.374 1205.18 428.05C1205.78 429.719 1206.09 431.733 1206.09 434.091C1206.09 436.463 1205.79 438.487 1205.19 440.163C1204.59 441.832 1203.73 443.107 1202.6 443.988C1201.47 444.862 1200.11 445.298 1198.5 445.298ZM1198.5 442.955C1200.09 442.955 1201.33 442.187 1202.21 440.653C1203.09 439.119 1203.53 436.932 1203.53 434.091C1203.53 432.202 1203.33 430.593 1202.92 429.265C1202.52 427.937 1201.95 426.925 1201.2 426.229C1200.45 425.533 1199.55 425.185 1198.5 425.185C1196.92 425.185 1195.69 425.962 1194.8 427.518C1193.92 429.066 1193.47 431.257 1193.47 434.091C1193.47 435.98 1193.67 437.585 1194.07 438.906C1194.47 440.227 1195.04 441.232 1195.78 441.921C1196.54 442.61 1197.44 442.955 1198.5 442.955Z" fill="#0E5E99"/>
<path d="M1201.96 159.182V181H1199.31V161.952H1199.19L1193.86 165.489V162.804L1199.31 159.182H1201.96Z" fill="#F21C26"/>
</svg>
