<svg width="1500" height="550" viewBox="0 0 1500 550" fill="none" xmlns="http://www.w3.org/2000/svg">
<rect width="1500" height="550" fill="white"/>
<line x1="219.032" y1="336.119" x2="286.953" y2="319.184" stroke="#F21C26" stroke-width="8"/>
<circle cx="182" cy="343" r="38" fill="#ACC4E6" stroke="#0E5E99" stroke-width="8"/>
<line x1="182" y1="305" x2="182" y2="185" stroke="#0E5E99" stroke-width="8"/>
<path d="M159.098 363H156.698L166.78 344.091H169.144L172.948 363H170.547L167.556 347.082H167.408L159.098 363ZM161.203 355.614H170.88L170.547 357.645H160.871L161.203 355.614Z" fill="black"/>
<path d="M201.5 229.298C199.895 229.298 198.528 228.862 197.398 227.988C196.269 227.107 195.406 225.832 194.81 224.163C194.213 222.487 193.915 220.463 193.915 218.091C193.915 215.733 194.213 213.719 194.81 212.05C195.413 210.374 196.28 209.096 197.409 208.215C198.545 207.327 199.909 206.884 201.5 206.884C203.091 206.884 204.451 207.327 205.58 208.215C206.717 209.096 207.583 210.374 208.18 212.05C208.783 213.719 209.085 215.733 209.085 218.091C209.085 220.463 208.787 222.487 208.19 224.163C207.594 225.832 206.731 227.107 205.602 227.988C204.472 228.862 203.105 229.298 201.5 229.298ZM201.5 226.955C203.091 226.955 204.327 226.187 205.207 224.653C206.088 223.119 206.528 220.932 206.528 218.091C206.528 216.202 206.326 214.593 205.921 213.265C205.523 211.937 204.948 210.925 204.195 210.229C203.45 209.533 202.551 209.185 201.5 209.185C199.923 209.185 198.691 209.962 197.803 211.518C196.915 213.066 196.472 215.257 196.472 218.091C196.472 219.98 196.67 221.585 197.068 222.906C197.466 224.227 198.038 225.232 198.783 225.921C199.536 226.61 200.442 226.955 201.5 226.955Z" fill="#0E5E99"/>
<path d="M262.956 291.182V313H260.314V293.952H260.186L254.86 297.489V294.804L260.314 291.182H262.956Z" fill="#F21C26"/>
<path d="M182 341C180.895 341 180 341.895 180 343C180 344.105 180.895 345 182 345V341ZM342 343L322 331.453V354.547L342 343ZM182 345H324V341H182V345Z" fill="black"/>
<path d="M182 113L170.453 133H193.547L182 113ZM184 343L184 131H180L180 343H184Z" fill="black"/>
<path d="M198.679 164L199.02 162.082L213.679 144.526H201.79L202.173 142.182H217.216L216.918 144.099L202.216 161.656H214.105L213.722 164H198.679Z" fill="black"/>
<path d="M221 135L211 129.226V140.774L221 135ZM198 136H212V134H198V136Z" fill="black"/>
<path d="M297.05 363.182H300.076L304.465 373.366H304.72L312.434 363.182H315.459L305.445 376.009L303.953 385H301.311L302.803 376.009L297.05 363.182Z" fill="black"/>
<path d="M318 356L308 350.226V361.774L318 356ZM295 357H309V355H295V357Z" fill="black"/>
<rect x="572" y="307" width="200" height="78" rx="1" fill="#ACC4E6" stroke="#0E5E99" stroke-width="8"/>
<line x1="507" y1="346" x2="837" y2="346" stroke="#F21C26" stroke-width="8"/>
<line x1="672" y1="307" x2="672" y2="177" stroke="#0E5E99" stroke-width="8"/>
<line x1="548" y1="318" x2="548" y2="374" stroke="#F21C26" stroke-width="8"/>
<line x1="796" y1="318" x2="796" y2="374" stroke="#F21C26" stroke-width="8"/>
<path d="M681.098 337H678.698L688.78 318.091H691.144L694.948 337H692.547L689.556 321.082H689.408L681.098 337ZM683.203 329.614H692.88L692.547 331.645H682.871L683.203 329.614Z" fill="black"/>
<path d="M652.5 229.298C650.895 229.298 649.528 228.862 648.398 227.988C647.269 227.107 646.406 225.832 645.81 224.163C645.213 222.487 644.915 220.463 644.915 218.091C644.915 215.733 645.213 213.719 645.81 212.05C646.413 210.374 647.28 209.096 648.409 208.215C649.545 207.327 650.909 206.884 652.5 206.884C654.091 206.884 655.451 207.327 656.58 208.215C657.717 209.096 658.583 210.374 659.18 212.05C659.783 213.719 660.085 215.733 660.085 218.091C660.085 220.463 659.787 222.487 659.19 224.163C658.594 225.832 657.731 227.107 656.602 227.988C655.472 228.862 654.105 229.298 652.5 229.298ZM652.5 226.955C654.091 226.955 655.327 226.187 656.207 224.653C657.088 223.119 657.528 220.932 657.528 218.091C657.528 216.202 657.326 214.593 656.921 213.265C656.523 211.937 655.948 210.925 655.195 210.229C654.45 209.533 653.551 209.185 652.5 209.185C650.923 209.185 649.691 209.962 648.803 211.518C647.915 213.066 647.472 215.257 647.472 218.091C647.472 219.98 647.67 221.585 648.068 222.906C648.466 224.227 649.038 225.232 649.783 225.921C650.536 226.61 651.442 226.955 652.5 226.955Z" fill="#0E5E99"/>
<path d="M826.956 316.182V338H824.314V318.952H824.186L818.86 322.489V319.804L824.314 316.182H826.956Z" fill="#F21C26"/>
<path d="M672 97L660.453 117H683.547L672 97ZM674 171V115H670V171H674Z" fill="black"/>
<path d="M422 346L442 357.547V334.453L422 346ZM496 344H440V348H496V344Z" fill="black"/>
<path d="M456.927 308.364L460.302 316.392L466.336 308.364H469.813L461.836 318.182L466.541 328H463.063L459.637 320.381L453.654 328H450.177L458.052 318.182L453.45 308.364H456.927Z" fill="black"/>
<path d="M473 300L463 294.226V305.774L473 300ZM450 301H464V299H450V301Z" fill="black"/>
<path d="M700.679 148L701.02 146.082L715.679 128.526H703.79L704.173 126.182H719.216L718.918 128.099L704.216 145.656H716.105L715.722 148H700.679Z" fill="black"/>
<path d="M723 119L713 113.226V124.774L723 119ZM700 120H714V118H700V120Z" fill="black"/>
<path d="M1176 70L1164.45 90H1187.55L1176 70ZM1178 307V88H1174V307H1178Z" fill="black"/>
<path d="M1177.06 305.304C1176.12 304.719 1174.89 305.003 1174.3 305.94C1173.72 306.877 1174 308.111 1174.94 308.696L1177.06 305.304ZM1311.69 391.787L1300.85 371.396L1288.61 390.981L1311.69 391.787ZM1174.94 308.696L1215.94 334.316L1218.06 330.924L1177.06 305.304L1174.94 308.696ZM1215.94 334.316L1295.36 383.945L1297.48 380.552L1218.06 330.924L1215.94 334.316Z" fill="black"/>
<path d="M868 480.411L891.094 480.531L879.652 460.471L868 480.411ZM884.626 473.23L1173.01 308.737L1171.03 305.263L882.644 469.755L884.626 473.23Z" fill="black"/>
<path d="M867.927 444.364L871.302 452.392L877.336 444.364H880.813L872.836 454.182L877.541 464H874.063L870.637 456.381L864.654 464H861.177L869.052 454.182L864.45 444.364H867.927Z" fill="black"/>
<path d="M884 436L874 430.226V441.774L884 436ZM861 437H875V435H861V437Z" fill="black"/>
<path d="M1259.05 394.182H1262.08L1266.46 404.366H1266.72L1274.43 394.182H1277.46L1267.44 407.009L1265.95 416H1263.31L1264.8 407.009L1259.05 394.182Z" fill="black"/>
<path d="M1280 387L1270 381.226V392.774L1280 387ZM1257 388H1271V386H1257V388Z" fill="black"/>
<path d="M1194.68 120L1195.02 118.082L1209.68 100.526H1197.79L1198.17 98.1818H1213.22L1212.92 100.099L1198.22 117.656H1210.11L1209.72 120H1194.68Z" fill="black"/>
<path d="M1217 91L1207 85.2265V96.7735L1217 91ZM1194 92H1208V90H1194V92Z" fill="black"/>
<path d="M1406.26 175.04L1305.5 232.513" stroke="#F21C26" stroke-width="8"/>
<path d="M1406.26 175.04L1305.5 232.513" stroke="#F21C26" stroke-width="8"/>
<path d="M1113.68 343.117C1132.29 375.144 1133.06 409.449 1115.39 419.739C1097.72 430.029 1068.31 412.407 1049.7 380.38C1031.08 348.354 1030.32 314.049 1047.99 303.759C1048.09 303.696 1048.2 303.635 1048.31 303.575C1066.01 293.683 1095.18 311.284 1113.68 343.117Z" fill="#0E5E99" fill-opacity="0.44"/>
<path d="M1113.68 343.117C1132.29 375.144 1133.06 409.449 1115.39 419.739L1308.45 309.59C1326.12 299.3 1325.36 264.996 1306.74 232.969C1288.13 200.942 1258.71 183.321 1241.05 193.611L1048.31 303.575C1066.01 293.683 1095.18 311.284 1113.68 343.117Z" fill="#0E5E99" fill-opacity="0.44"/>
<path d="M1113.68 343.117C1132.29 375.144 1133.06 409.449 1115.39 419.739L1308.45 309.59C1326.12 299.3 1325.36 264.996 1306.74 232.969C1288.13 200.942 1258.71 183.321 1241.05 193.611L1048.31 303.575C1066.01 293.683 1095.18 311.284 1113.68 343.117Z" fill="#0E5E99" fill-opacity="0.4"/>
<path d="M1115.39 419.739C1133.06 409.449 1132.29 375.144 1113.68 343.117C1095.18 311.284 1066.01 293.683 1048.31 303.575M1115.39 419.739C1097.72 430.029 1068.31 412.407 1049.7 380.38C1031.08 348.354 1030.32 314.049 1047.99 303.759M1115.39 419.739L1308.45 309.59C1326.12 299.3 1325.36 264.996 1306.74 232.969C1288.13 200.942 1258.71 183.321 1241.05 193.611L1048.31 303.575M1047.99 303.759L1048.31 303.575M1047.99 303.759C1048.09 303.696 1048.2 303.635 1048.31 303.575" stroke="#0E5E99" stroke-width="8"/>
<path d="M1311.69 391.787L1300.85 371.396L1288.61 390.981L1311.69 391.787ZM1215.94 334.316L1295.36 383.945L1297.48 380.552L1218.06 330.924L1215.94 334.316Z" fill="black"/>
<line x1="1176" y1="130" x2="1176" y2="260" stroke="#0E5E99" stroke-width="8"/>
<path d="M929.018 447.255L1080.16 361.045" stroke="#F21C26" stroke-width="8"/>
<path d="M929.018 447.255L1080.16 361.045" stroke="#F21C26" stroke-width="8"/>
<line x1="1054.25" y1="410.1" x2="1024.53" y2="357.982" stroke="#F21C26" stroke-width="8"/>
<line x1="1338.25" y1="247.1" x2="1308.53" y2="194.982" stroke="#F21C26" stroke-width="8"/>
<path d="M1188.1 302H1185.7L1195.78 283.091H1198.14L1201.95 302H1199.55L1196.56 286.082H1196.41L1188.1 302ZM1190.2 294.614H1199.88L1199.55 296.645H1189.87L1190.2 294.614Z" fill="black"/>
<path d="M1242.5 181.298C1240.89 181.298 1239.53 180.862 1238.4 179.988C1237.27 179.107 1236.41 177.832 1235.81 176.163C1235.21 174.487 1234.91 172.463 1234.91 170.091C1234.91 167.733 1235.21 165.719 1235.81 164.05C1236.41 162.374 1237.28 161.096 1238.41 160.215C1239.55 159.327 1240.91 158.884 1242.5 158.884C1244.09 158.884 1245.45 159.327 1246.58 160.215C1247.72 161.096 1248.58 162.374 1249.18 164.05C1249.78 165.719 1250.09 167.733 1250.09 170.091C1250.09 172.463 1249.79 174.487 1249.19 176.163C1248.59 177.832 1247.73 179.107 1246.6 179.988C1245.47 180.862 1244.11 181.298 1242.5 181.298ZM1242.5 178.955C1244.09 178.955 1245.33 178.187 1246.21 176.653C1247.09 175.119 1247.53 172.932 1247.53 170.091C1247.53 168.202 1247.33 166.593 1246.92 165.265C1246.52 163.937 1245.95 162.925 1245.2 162.229C1244.45 161.533 1243.55 161.185 1242.5 161.185C1240.92 161.185 1239.69 161.962 1238.8 163.518C1237.92 165.066 1237.47 167.257 1237.47 170.091C1237.47 171.98 1237.67 173.585 1238.07 174.906C1238.47 176.227 1239.04 177.232 1239.78 177.921C1240.54 178.61 1241.44 178.955 1242.5 178.955Z" fill="#0E5E99"/>
<path d="M984.956 378.182V400H982.314V380.952H982.186L976.86 384.489V381.804L982.314 378.182H984.956Z" fill="#F21C26"/>
</svg>
