<svg width="1500" height="550" viewBox="0 0 1500 550" fill="none" xmlns="http://www.w3.org/2000/svg">
<rect width="1500" height="550" fill="white"/>
<circle cx="142" cy="361" r="38" fill="#ACC4E6" stroke="#0E5E99" stroke-width="8"/>
<line x1="142" y1="323" x2="142" y2="203" stroke="#0E5E99" stroke-width="8"/>
<circle cx="142" cy="361" r="8" fill="#F21C26"/>
<line x1="141.032" y1="361.053" x2="247.765" y2="334.442" stroke="#F21C26" stroke-width="8"/>
<path d="M119.098 381H116.698L126.78 362.091H129.144L132.948 381H130.547L127.556 365.082H127.408L119.098 381ZM121.203 373.614H130.88L130.547 375.645H120.871L121.203 373.614Z" fill="black"/>
<path d="M161.5 247.298C159.895 247.298 158.528 246.862 157.398 245.988C156.269 245.107 155.406 243.832 154.81 242.163C154.213 240.487 153.915 238.463 153.915 236.091C153.915 233.733 154.213 231.719 154.81 230.05C155.413 228.374 156.28 227.096 157.409 226.215C158.545 225.327 159.909 224.884 161.5 224.884C163.091 224.884 164.451 225.327 165.58 226.215C166.717 227.096 167.583 228.374 168.18 230.05C168.783 231.719 169.085 233.733 169.085 236.091C169.085 238.463 168.787 240.487 168.19 242.163C167.594 243.832 166.731 245.107 165.602 245.988C164.472 246.862 163.105 247.298 161.5 247.298ZM161.5 244.955C163.091 244.955 164.327 244.187 165.207 242.653C166.088 241.119 166.528 238.932 166.528 236.091C166.528 234.202 166.326 232.593 165.921 231.265C165.523 229.937 164.948 228.925 164.195 228.229C163.45 227.533 162.551 227.185 161.5 227.185C159.923 227.185 158.691 227.962 157.803 229.518C156.915 231.066 156.472 233.257 156.472 236.091C156.472 237.98 156.67 239.585 157.068 240.906C157.466 242.227 158.038 243.232 158.783 243.921C159.536 244.61 160.442 244.955 161.5 244.955Z" fill="#0E5E99"/>
<path d="M222.956 309.182V331H220.314V311.952H220.186L214.86 315.489V312.804L220.314 309.182H222.956Z" fill="#F21C26"/>
<path d="M142 359C140.895 359 140 359.895 140 361C140 362.105 140.895 363 142 363V359ZM302 361L282 349.453V372.547L302 361ZM142 363H284V359H142V363Z" fill="black"/>
<path d="M142 131L130.453 151H153.547L142 131ZM144 361L144 149H140L140 361H144Z" fill="black"/>
<path d="M158.679 182L159.02 180.082L173.679 162.526H161.79L162.173 160.182H177.216L176.918 162.099L162.216 179.656H174.105L173.722 182H158.679Z" fill="black"/>
<path d="M181 153L171 147.226V158.774L181 153ZM158 154H172V152H158V154Z" fill="black"/>
<path d="M257.05 381.182H260.076L264.465 391.366H264.72L272.434 381.182H275.459L265.445 394.009L263.953 403H261.311L262.803 394.009L257.05 381.182Z" fill="black"/>
<path d="M278 374L268 368.226V379.774L278 374ZM255 375H269V373H255V375Z" fill="black"/>
<rect x="565" y="321" width="200" height="78" rx="1" fill="#ACC4E6" stroke="#0E5E99" stroke-width="8"/>
<line x1="500" y1="360" x2="830" y2="360" stroke="#F21C26" stroke-width="8"/>
<line x1="665" y1="321" x2="665" y2="191" stroke="#0E5E99" stroke-width="8"/>
<path d="M674.098 351H671.698L681.78 332.091H684.144L687.948 351H685.547L682.556 335.082H682.408L674.098 351ZM676.203 343.614H685.88L685.547 345.645H675.871L676.203 343.614Z" fill="black"/>
<path d="M645.5 243.298C643.895 243.298 642.528 242.862 641.398 241.988C640.269 241.107 639.406 239.832 638.81 238.163C638.213 236.487 637.915 234.463 637.915 232.091C637.915 229.733 638.213 227.719 638.81 226.05C639.413 224.374 640.28 223.096 641.409 222.215C642.545 221.327 643.909 220.884 645.5 220.884C647.091 220.884 648.451 221.327 649.58 222.215C650.717 223.096 651.583 224.374 652.18 226.05C652.783 227.719 653.085 229.733 653.085 232.091C653.085 234.463 652.787 236.487 652.19 238.163C651.594 239.832 650.731 241.107 649.602 241.988C648.472 242.862 647.105 243.298 645.5 243.298ZM645.5 240.955C647.091 240.955 648.327 240.187 649.207 238.653C650.088 237.119 650.528 234.932 650.528 232.091C650.528 230.202 650.326 228.593 649.921 227.265C649.523 225.937 648.948 224.925 648.195 224.229C647.45 223.533 646.551 223.185 645.5 223.185C643.923 223.185 642.691 223.962 641.803 225.518C640.915 227.066 640.472 229.257 640.472 232.091C640.472 233.98 640.67 235.585 641.068 236.906C641.466 238.227 642.038 239.232 642.783 239.921C643.536 240.61 644.442 240.955 645.5 240.955Z" fill="#0E5E99"/>
<path d="M819.956 330.182V352H817.314V332.952H817.186L811.86 336.489V333.804L817.314 330.182H819.956Z" fill="#F21C26"/>
<path d="M665 111L653.453 131H676.547L665 111ZM667 185V129H663V185H667Z" fill="black"/>
<path d="M415 361L435 372.547V349.453L415 361ZM489 359H433V363H489V359Z" fill="black"/>
<path d="M449.927 322.364L453.302 330.392L459.336 322.364H462.813L454.836 332.182L459.541 342H456.063L452.637 334.381L446.654 342H443.177L451.052 332.182L446.45 322.364H449.927Z" fill="black"/>
<path d="M466 314L456 308.226V319.774L466 314ZM443 315H457V313H443V315Z" fill="black"/>
<path d="M693.679 162L694.02 160.082L708.679 142.526H696.79L697.173 140.182H712.216L711.918 142.099L697.216 159.656H709.105L708.722 162H693.679Z" fill="black"/>
<path d="M716 133L706 127.226V138.774L716 133ZM693 134H707V132H693V134Z" fill="black"/>
<path d="M1451.26 175.04L1350.5 232.513" stroke="#F21C26" stroke-width="8"/>
<path d="M1451.26 175.04L1350.5 232.513" stroke="#F21C26" stroke-width="8"/>
<path d="M1221 70L1209.45 90H1232.55L1221 70ZM1223 307V88H1219V307H1223Z" fill="black"/>
<path d="M1222.06 305.304C1221.12 304.719 1219.89 305.003 1219.3 305.94C1218.72 306.877 1219 308.111 1219.94 308.696L1222.06 305.304ZM1356.69 391.787L1345.85 371.396L1333.61 390.981L1356.69 391.787ZM1219.94 308.696L1260.94 334.316L1263.06 330.924L1222.06 305.304L1219.94 308.696ZM1260.94 334.316L1340.36 383.945L1342.48 380.552L1263.06 330.924L1260.94 334.316Z" fill="black"/>
<path d="M917 480.411L940.094 480.531L928.652 460.471L917 480.411ZM933.626 473.23L1222.01 308.737L1220.03 305.263L931.644 469.755L933.626 473.23Z" fill="black"/>
<path d="M919.927 431.364L923.302 439.392L929.336 431.364H932.813L924.836 441.182L929.541 451H926.063L922.637 443.381L916.654 451H913.177L921.052 441.182L916.45 431.364H919.927Z" fill="black"/>
<path d="M936 423L926 417.226V428.774L936 423ZM913 424H927V422H913V424Z" fill="black"/>
<path d="M1304.05 394.182H1307.08L1311.46 404.366H1311.72L1319.43 394.182H1322.46L1312.44 407.009L1310.95 416H1308.31L1309.8 407.009L1304.05 394.182Z" fill="black"/>
<path d="M1325 387L1315 381.226V392.774L1325 387ZM1302 388H1316V386H1302V388Z" fill="black"/>
<path d="M1239.68 120L1240.02 118.082L1254.68 100.526H1242.79L1243.17 98.1818H1258.22L1257.92 100.099L1243.22 117.656H1255.11L1254.72 120H1239.68Z" fill="black"/>
<path d="M1262 91L1252 85.2265V96.7735L1262 91ZM1239 92H1253V90H1239V92Z" fill="black"/>
<path d="M1158.68 343.117C1177.29 375.144 1178.06 409.449 1160.39 419.739C1142.72 430.029 1113.31 412.407 1094.7 380.38C1076.08 348.354 1075.32 314.049 1092.99 303.759C1093.09 303.696 1093.2 303.635 1093.31 303.575C1111.01 293.683 1140.18 311.284 1158.68 343.117Z" fill="#0E5E99" fill-opacity="0.44"/>
<path d="M1158.68 343.117C1177.29 375.144 1178.06 409.449 1160.39 419.739L1353.45 309.59C1371.12 299.3 1370.36 264.996 1351.74 232.969C1333.13 200.942 1303.71 183.321 1286.05 193.611L1093.31 303.575C1111.01 293.683 1140.18 311.284 1158.68 343.117Z" fill="#0E5E99" fill-opacity="0.44"/>
<path d="M1158.68 343.117C1177.29 375.144 1178.06 409.449 1160.39 419.739L1353.45 309.59C1371.12 299.3 1370.36 264.996 1351.74 232.969C1333.13 200.942 1303.71 183.321 1286.05 193.611L1093.31 303.575C1111.01 293.683 1140.18 311.284 1158.68 343.117Z" fill="#0E5E99" fill-opacity="0.4"/>
<path d="M1160.39 419.739C1178.06 409.449 1177.29 375.144 1158.68 343.117C1140.18 311.284 1111.01 293.683 1093.31 303.575M1160.39 419.739C1142.72 430.029 1113.31 412.407 1094.7 380.38C1076.08 348.354 1075.32 314.049 1092.99 303.759M1160.39 419.739L1353.45 309.59C1371.12 299.3 1370.36 264.996 1351.74 232.969C1333.13 200.942 1303.71 183.321 1286.05 193.611L1093.31 303.575M1092.99 303.759L1093.31 303.575M1092.99 303.759C1093.09 303.696 1093.2 303.635 1093.31 303.575" stroke="#0E5E99" stroke-width="8"/>
<line x1="1221" y1="130" x2="1221" y2="260" stroke="#0E5E99" stroke-width="8"/>
<path d="M974.018 447.255L1125.16 361.045" stroke="#F21C26" stroke-width="8"/>
<path d="M974.018 447.255L1125.16 361.045" stroke="#F21C26" stroke-width="8"/>
<path d="M1233.1 302H1230.7L1240.78 283.091H1243.14L1246.95 302H1244.55L1241.56 286.082H1241.41L1233.1 302ZM1235.2 294.614H1244.88L1244.55 296.645H1234.87L1235.2 294.614Z" fill="black"/>
<path d="M1287.5 181.298C1285.89 181.298 1284.53 180.862 1283.4 179.988C1282.27 179.107 1281.41 177.832 1280.81 176.163C1280.21 174.487 1279.91 172.463 1279.91 170.091C1279.91 167.733 1280.21 165.719 1280.81 164.05C1281.41 162.374 1282.28 161.096 1283.41 160.215C1284.55 159.327 1285.91 158.884 1287.5 158.884C1289.09 158.884 1290.45 159.327 1291.58 160.215C1292.72 161.096 1293.58 162.374 1294.18 164.05C1294.78 165.719 1295.09 167.733 1295.09 170.091C1295.09 172.463 1294.79 174.487 1294.19 176.163C1293.59 177.832 1292.73 179.107 1291.6 179.988C1290.47 180.862 1289.11 181.298 1287.5 181.298ZM1287.5 178.955C1289.09 178.955 1290.33 178.187 1291.21 176.653C1292.09 175.119 1292.53 172.932 1292.53 170.091C1292.53 168.202 1292.33 166.593 1291.92 165.265C1291.52 163.937 1290.95 162.925 1290.2 162.229C1289.45 161.533 1288.55 161.185 1287.5 161.185C1285.92 161.185 1284.69 161.962 1283.8 163.518C1282.92 165.066 1282.47 167.257 1282.47 170.091C1282.47 171.98 1282.67 173.585 1283.07 174.906C1283.47 176.227 1284.04 177.232 1284.78 177.921C1285.54 178.61 1286.44 178.955 1287.5 178.955Z" fill="#0E5E99"/>
<path d="M1029.96 378.182V400H1027.31V380.952H1027.19L1021.86 384.489V381.804L1027.31 378.182H1029.96Z" fill="#F21C26"/>
<path d="M1356.69 391.787L1345.85 371.396L1333.61 390.981L1356.69 391.787ZM1260.94 334.316L1340.36 383.945L1342.48 380.552L1263.06 330.924L1260.94 334.316Z" fill="black"/>
</svg>
