<svg width="1200" height="500" viewBox="0 0 1200 500" fill="none" xmlns="http://www.w3.org/2000/svg">
<rect width="1200" height="500" fill="white"/>
<path d="M329 300H239M149 300H239M239 300V424" stroke="#F21C26" stroke-width="8"/>
<path d="M239 267C240.105 267 241 266.105 241 265C241 263.895 240.105 263 239 263V267ZM89 265L109 276.547V253.453L89 265ZM239 263H107V267H239V263Z" fill="black"/>
<path d="M239.002 85L227.455 105H250.549L239.002 85ZM241.002 265L241.002 103H237.002L237.002 265H241.002Z" fill="black"/>
<path d="M120.05 227.182H123.076L127.465 237.366H127.72L135.434 227.182H138.459L128.445 240.009L126.953 249H124.311L125.803 240.009L120.05 227.182Z" fill="black"/>
<path d="M141 220L131 214.226V225.774L141 220ZM118 221H132V219H118V221Z" fill="black"/>
<path d="M267.927 114.364L271.302 122.392L277.336 114.364H280.813L272.836 124.182L277.541 134H274.063L270.637 126.381L264.654 134H261.177L269.052 124.182L264.45 114.364H267.927Z" fill="black"/>
<path d="M284 106L274 100.226V111.774L284 106ZM261 107H275V105H261V107Z" fill="black"/>
<circle cx="239" cy="265" r="27" fill="#0E5E99" fill-opacity="0.4" stroke="#0E5E99" stroke-width="8"/>
<line x1="239" y1="239" x2="239" y2="169" stroke="#0E5E99" stroke-width="8"/>
<path d="M193.098 253H190.698L200.78 234.091H203.144L206.948 253H204.547L201.556 237.082H201.408L193.098 253ZM195.203 245.614H204.88L204.547 247.645H194.871L195.203 245.614Z" fill="black"/>
<path d="M271.5 238.298C269.895 238.298 268.528 237.862 267.398 236.988C266.269 236.107 265.406 234.832 264.81 233.163C264.213 231.487 263.915 229.463 263.915 227.091C263.915 224.733 264.213 222.719 264.81 221.05C265.413 219.374 266.28 218.096 267.409 217.215C268.545 216.327 269.909 215.884 271.5 215.884C273.091 215.884 274.451 216.327 275.58 217.215C276.717 218.096 277.583 219.374 278.18 221.05C278.783 222.719 279.085 224.733 279.085 227.091C279.085 229.463 278.787 231.487 278.19 233.163C277.594 234.832 276.731 236.107 275.602 236.988C274.472 237.862 273.105 238.298 271.5 238.298ZM271.5 235.955C273.091 235.955 274.327 235.187 275.207 233.653C276.088 232.119 276.528 229.932 276.528 227.091C276.528 225.202 276.326 223.593 275.921 222.265C275.523 220.937 274.948 219.925 274.195 219.229C273.45 218.533 272.551 218.185 271.5 218.185C269.923 218.185 268.691 218.962 267.803 220.518C266.915 222.066 266.472 224.257 266.472 227.091C266.472 228.98 266.67 230.585 267.068 231.906C267.466 233.227 268.038 234.232 268.783 234.921C269.536 235.61 270.442 235.955 271.5 235.955Z" fill="#0E5E99"/>
<path d="M261.956 340.182V362H259.314V342.952H259.186L253.86 346.489V343.804L259.314 340.182H261.956Z" fill="#F21C26"/>
<path d="M618 299.929H528M438 299.929H528M528 299.929V423.929" stroke="#F21C26" stroke-width="8"/>
<path d="M528 266.929C526.895 266.929 526 267.824 526 268.929C526 270.033 526.895 270.929 528 270.929V266.929ZM688 268.929L668 257.382V280.476L688 268.929ZM528 270.929H670V266.929H528V270.929Z" fill="black"/>
<path d="M528 89L516.453 109H539.547L528 89ZM530 269V107H526V269H530Z" fill="black"/>
<path d="M555.927 118.293L559.302 126.321L565.336 118.293H568.813L560.836 128.111L565.541 137.929H562.063L558.637 130.31L552.654 137.929H549.177L557.052 128.111L552.45 118.293H555.927Z" fill="black"/>
<path d="M572 109.896L562 104.122V115.669L572 109.896ZM549 110.896H563V108.896H549V110.896Z" fill="black"/>
<path d="M642.679 313.929L643.02 312.011L657.679 294.454H645.79L646.173 292.111H661.216L660.918 294.028L646.216 311.585H658.105L657.722 313.929H642.679Z" fill="black"/>
<path d="M665 284.929L655 279.155V290.702L665 284.929ZM642 285.929H656V283.929H642V285.929Z" fill="black"/>
<circle cx="528" cy="268.929" r="23" fill="#0E5E99" fill-opacity="0.4" stroke="#0E5E99" stroke-width="8"/>
<path d="M505.783 168.633L522 244.929" stroke="#0E5E99" stroke-width="8"/>
<path d="M482.098 254.929H479.698L489.78 236.02H492.144L495.948 254.929H493.547L490.556 239.011H490.408L482.098 254.929ZM484.203 247.543H493.88L493.547 249.574H483.871L484.203 247.543Z" fill="black"/>
<path d="M558.5 241.227C556.895 241.227 555.528 240.79 554.398 239.917C553.269 239.036 552.406 237.761 551.81 236.092C551.213 234.416 550.915 232.392 550.915 230.02C550.915 227.662 551.213 225.648 551.81 223.979C552.413 222.303 553.28 221.025 554.409 220.144C555.545 219.256 556.909 218.812 558.5 218.812C560.091 218.812 561.451 219.256 562.58 220.144C563.717 221.025 564.583 222.303 565.18 223.979C565.783 225.648 566.085 227.662 566.085 230.02C566.085 232.392 565.787 234.416 565.19 236.092C564.594 237.761 563.731 239.036 562.602 239.917C561.472 240.79 560.105 241.227 558.5 241.227ZM558.5 238.883C560.091 238.883 561.327 238.116 562.207 236.582C563.088 235.048 563.528 232.861 563.528 230.02C563.528 228.131 563.326 226.522 562.921 225.194C562.523 223.866 561.948 222.854 561.195 222.158C560.45 221.462 559.551 221.114 558.5 221.114C556.923 221.114 555.691 221.891 554.803 223.447C553.915 224.995 553.472 227.186 553.472 230.02C553.472 231.909 553.67 233.514 554.068 234.835C554.466 236.156 555.038 237.161 555.783 237.85C556.536 238.539 557.442 238.883 558.5 238.883Z" fill="#0E5E99"/>
<path d="M550.956 340.111V361.929H548.314V342.881H548.186L542.86 346.418V343.733L548.314 340.111H550.956Z" fill="#F21C26"/>
<path d="M922 424V304" stroke="#F21C26" stroke-width="8"/>
<line x1="922" y1="309.54" x2="922" y2="274.54" stroke="#F48489" stroke-width="8"/>
<path d="M859.642 210.81L771.78 277.195C771.091 277.716 771.342 278.806 772.189 278.974L991.56 322.453C991.84 322.508 992.13 322.442 992.358 322.27L1080.22 255.885C1080.91 255.365 1080.66 254.274 1079.81 254.106L860.44 210.627C860.16 210.572 859.87 210.638 859.642 210.81Z" fill="#F21C26" fill-opacity="0.26" stroke="#F21C26" stroke-width="8"/>
<path d="M926.208 252.594C927.088 251.927 927.261 250.672 926.594 249.792C925.927 248.912 924.672 248.739 923.792 249.406L926.208 252.594ZM816.615 333.15L839.529 330.272L825.579 311.867L816.615 333.15ZM923.792 249.406L829.752 320.683L832.168 323.871L926.208 252.594L923.792 249.406Z" fill="black"/>
<path d="M925.389 249.038C924.305 248.823 923.253 249.528 923.038 250.611C922.823 251.695 923.528 252.747 924.611 252.962L925.389 249.038ZM1111.37 287.946L1094 272.731L1089.51 295.384L1111.37 287.946ZM924.611 252.962L1093.33 286.408L1094.11 282.484L925.389 249.038L924.611 252.962Z" fill="black"/>
<path d="M925 75L913.453 95H936.547L925 75ZM927 251V93H923V251H927Z" fill="black"/>
<path d="M952.927 104.364L956.302 112.392L962.336 104.364H965.813L957.836 114.182L962.541 124H959.063L955.637 116.381L949.654 124H946.177L954.052 114.182L949.45 104.364H952.927Z" fill="black"/>
<path d="M969 96L959 90.2265V101.774L969 96ZM946 97H960V95H946V97Z" fill="black"/>
<path d="M850.05 334.182H853.076L857.465 344.366H857.72L865.434 334.182H868.459L858.445 347.009L856.953 356H854.311L855.803 347.009L850.05 334.182Z" fill="black"/>
<path d="M871 327L861 321.226V332.774L871 327ZM848 328H862V326H848V328Z" fill="black"/>
<path d="M1062.68 327L1063.02 325.082L1077.68 307.526H1065.79L1066.17 305.182H1081.22L1080.92 307.099L1066.22 324.656H1078.11L1077.72 327H1062.68Z" fill="black"/>
<path d="M1085 298L1075 292.226V303.774L1085 298ZM1062 299H1076V297H1062V299Z" fill="black"/>
<circle cx="926" cy="249" r="24" fill="#0E5E99" fill-opacity="0.4" stroke="#0E5E99" stroke-width="8"/>
<path d="M906 162L922.217 238.296" stroke="#0E5E99" stroke-width="8"/>
<path d="M869.098 241H866.698L876.78 222.091H879.144L882.948 241H880.547L877.556 225.082H877.408L869.098 241ZM871.203 233.614H880.88L880.547 235.645H870.871L871.203 233.614Z" fill="black"/>
<path d="M892.5 194.298C890.895 194.298 889.528 193.862 888.398 192.988C887.269 192.107 886.406 190.832 885.81 189.163C885.213 187.487 884.915 185.463 884.915 183.091C884.915 180.733 885.213 178.719 885.81 177.05C886.413 175.374 887.28 174.096 888.409 173.215C889.545 172.327 890.909 171.884 892.5 171.884C894.091 171.884 895.451 172.327 896.58 173.215C897.717 174.096 898.583 175.374 899.18 177.05C899.783 178.719 900.085 180.733 900.085 183.091C900.085 185.463 899.787 187.487 899.19 189.163C898.594 190.832 897.731 192.107 896.602 192.988C895.472 193.862 894.105 194.298 892.5 194.298ZM892.5 191.955C894.091 191.955 895.327 191.187 896.207 189.653C897.088 188.119 897.528 185.932 897.528 183.091C897.528 181.202 897.326 179.593 896.921 178.265C896.523 176.937 895.948 175.925 895.195 175.229C894.45 174.533 893.551 174.185 892.5 174.185C890.923 174.185 889.691 174.962 888.803 176.518C887.915 178.066 887.472 180.257 887.472 183.091C887.472 184.98 887.67 186.585 888.068 187.906C888.466 189.227 889.038 190.232 889.783 190.921C890.536 191.61 891.442 191.955 892.5 191.955Z" fill="#0E5E99"/>
<path d="M949.956 391.182V413H947.314V393.952H947.186L941.86 397.489V394.804L947.314 391.182H949.956Z" fill="#F21C26"/>
</svg>
