<svg width="1000" height="600" viewBox="0 0 1000 600" fill="none" xmlns="http://www.w3.org/2000/svg">
<rect width="1000" height="600" fill="white"/>
<line x1="304" y1="554" x2="304" y2="454" stroke="#F21C26" stroke-width="8"/>
<path d="M404 354C404 409.228 359.228 454 304 454C248.772 454 204 409.228 204 354" stroke="#F21C26" stroke-width="8"/>
<path d="M304 356C305.105 356 306 355.105 306 354C306 352.895 305.105 352 304 352V356ZM124 354L144 365.547V342.453L124 354ZM304 352H142V356H304V352Z" fill="black"/>
<path d="M304.002 34L292.455 54H315.549L304.002 34ZM306.002 354L306.002 52H302.002L302.002 354H306.002Z" fill="black"/>
<path d="M158.927 320.364L162.302 328.392L168.336 320.364H171.813L163.836 330.182L168.541 340H165.063L161.637 332.381L155.654 340H152.177L160.052 330.182L155.45 320.364H158.927Z" fill="black"/>
<path d="M175 312L165 306.226V317.774L175 312ZM152 313H166V311H152V313Z" fill="black"/>
<path d="M327.679 84L328.02 82.0824L342.679 64.5256H330.79L331.173 62.1818H346.216L345.918 64.0994L331.216 81.6562H343.105L342.722 84H327.679Z" fill="black"/>
<path d="M350 55L340 49.2265V60.7735L350 55ZM327 56H341V54H327V56Z" fill="black"/>
<circle cx="304" cy="354" r="70" fill="#0E5E99" fill-opacity="0.4" stroke="#0E5E99" stroke-width="8"/>
<line x1="304" y1="281.003" x2="304" y2="107" stroke="#0E5E99" stroke-width="8"/>
<path d="M320.098 360H317.698L327.78 341.091H330.144L333.948 360H331.547L328.556 344.082H328.408L320.098 360ZM322.203 352.614H331.88L331.547 354.645H321.871L322.203 352.614Z" fill="black"/>
<path d="M283.5 227.298C281.895 227.298 280.528 226.862 279.398 225.988C278.269 225.107 277.406 223.832 276.81 222.163C276.213 220.487 275.915 218.463 275.915 216.091C275.915 213.733 276.213 211.719 276.81 210.05C277.413 208.374 278.28 207.096 279.409 206.215C280.545 205.327 281.909 204.884 283.5 204.884C285.091 204.884 286.451 205.327 287.58 206.215C288.717 207.096 289.583 208.374 290.18 210.05C290.783 211.719 291.085 213.733 291.085 216.091C291.085 218.463 290.787 220.487 290.19 222.163C289.594 223.832 288.731 225.107 287.602 225.988C286.472 226.862 285.105 227.298 283.5 227.298ZM283.5 224.955C285.091 224.955 286.327 224.187 287.207 222.653C288.088 221.119 288.528 218.932 288.528 216.091C288.528 214.202 288.326 212.593 287.921 211.265C287.523 209.937 286.948 208.925 286.195 208.229C285.45 207.533 284.551 207.185 283.5 207.185C281.923 207.185 280.691 207.962 279.803 209.518C278.915 211.066 278.472 213.257 278.472 216.091C278.472 217.98 278.67 219.585 279.068 220.906C279.466 222.227 280.038 223.232 280.783 223.921C281.536 224.61 282.442 224.955 283.5 224.955Z" fill="#0E5E99"/>
<path d="M331.956 475.182V497H329.314V477.952H329.186L323.86 481.489V478.804L329.314 475.182H331.956Z" fill="#F21C26"/>
<line x1="601.073" y1="496.132" x2="671.784" y2="425.421" stroke="#F21C26" stroke-width="8"/>
<path d="M813.205 425.421C774.153 464.474 710.836 464.474 671.784 425.421C632.732 386.369 632.732 323.052 671.784 284" stroke="#F21C26" stroke-width="8"/>
<path d="M743.363 34L731.816 54H754.91L743.363 34ZM745.363 354L745.363 52H741.363L741.363 354H745.363Z" fill="black"/>
<path d="M876.45 446.367L866.603 425.477L853.436 444.45L876.45 446.367ZM742.222 355.643L770.36 375.171L772.64 371.885L744.503 352.357L742.222 355.643ZM770.36 375.171L860.522 437.747L862.803 434.461L772.64 371.885L770.36 375.171Z" fill="black"/>
<path d="M528 480.96L551.093 480.751L539.365 460.856L528 480.96ZM742.347 352.277L542.49 470.096L544.522 473.542L744.378 355.723L742.347 352.277Z" fill="black"/>
<path d="M552.29 429.364L555.665 437.392L561.699 429.364H565.176L557.199 439.182L561.903 449H558.426L555 441.381L549.017 449H545.54L553.415 439.182L548.812 429.364H552.29Z" fill="black"/>
<path d="M568.363 421L558.363 415.226V426.774L568.363 421ZM545.363 422H559.363V420H545.363V422Z" fill="black"/>
<path d="M825.413 452.182H828.438L832.827 462.366H833.083L840.796 452.182H843.822L833.807 465.009L832.316 474H829.674L831.165 465.009L825.413 452.182Z" fill="black"/>
<path d="M846.363 445L836.363 439.226V450.774L846.363 445ZM823.363 446H837.363V444H823.363V446Z" fill="black"/>
<path d="M763.042 146L763.382 144.082L778.042 126.526H766.152L766.536 124.182H781.578L781.28 126.099L766.578 143.656H778.468L778.084 146H763.042Z" fill="black"/>
<path d="M785.363 117L775.363 111.226V122.774L785.363 117ZM762.363 118H776.363V116H762.363V118Z" fill="black"/>
<circle cx="743.363" cy="354" r="70" fill="#0E5E99" fill-opacity="0.4" stroke="#0E5E99" stroke-width="8"/>
<line x1="743.363" y1="281.003" x2="743.363" y2="107" stroke="#0E5E99" stroke-width="8"/>
<path d="M876.45 446.367L866.603 425.477L853.436 444.45L876.45 446.367ZM770.36 375.171L860.522 437.747L862.803 434.461L772.64 371.885L770.36 375.171Z" fill="black"/>
<path d="M528 480.96L551.093 480.751L539.365 460.856L528 480.96ZM696.984 379.019L542.49 470.096L544.522 473.542L699.016 382.465L696.984 379.019Z" fill="black"/>
<path d="M764.461 343H762.06L772.143 324.091H774.506L778.31 343H775.91L772.918 327.082H772.771L764.461 343ZM766.566 335.614H776.242L775.91 337.645H766.234L766.566 335.614Z" fill="black"/>
<path d="M721.863 209.298C720.257 209.298 718.89 208.862 717.761 207.988C716.632 207.107 715.769 205.832 715.172 204.163C714.576 202.487 714.277 200.463 714.277 198.091C714.277 195.733 714.576 193.719 715.172 192.05C715.776 190.374 716.642 189.096 717.772 188.215C718.908 187.327 720.272 186.884 721.863 186.884C723.453 186.884 724.814 187.327 725.943 188.215C727.079 189.096 727.946 190.374 728.542 192.05C729.146 193.719 729.448 195.733 729.448 198.091C729.448 200.463 729.15 202.487 728.553 204.163C727.956 205.832 727.093 207.107 725.964 207.988C724.835 208.862 723.468 209.298 721.863 209.298ZM721.863 206.955C723.453 206.955 724.689 206.187 725.57 204.653C726.451 203.119 726.891 200.932 726.891 198.091C726.891 196.202 726.689 194.593 726.284 193.265C725.886 191.937 725.311 190.925 724.558 190.229C723.812 189.533 722.914 189.185 721.863 189.185C720.286 189.185 719.054 189.962 718.166 191.518C717.278 193.066 716.834 195.257 716.834 198.091C716.834 199.98 717.033 201.585 717.431 202.906C717.828 204.227 718.4 205.232 719.146 205.921C719.899 206.61 720.804 206.955 721.863 206.955Z" fill="#0E5E99"/>
<path d="M677.319 470.182V492H674.677V472.952H674.549L669.222 476.489V473.804L674.677 470.182H677.319Z" fill="#F21C26"/>
</svg>
