<svg width="1000" height="600" viewBox="0 0 1000 600" fill="none" xmlns="http://www.w3.org/2000/svg">
<rect width="1000" height="600" fill="white"/>
<line x1="330" y1="554" x2="330" y2="454" stroke="#F21C26" stroke-width="8"/>
<path d="M430 354C430 409.228 385.228 454 330 454C274.772 454 230 409.228 230 354" stroke="#F21C26" stroke-width="8"/>
<path d="M330 356C331.105 356 332 355.105 332 354C332 352.895 331.105 352 330 352V356ZM110 354L130 365.547V342.453L110 354ZM330 352H128V356H330V352Z" fill="black"/>
<path d="M330.002 34L318.455 54H341.549L330.002 34ZM332.002 354L332.002 52H328.002L328.002 354H332.002Z" fill="black"/>
<path d="M150.927 322.364L154.302 330.392L160.336 322.364H163.813L155.836 332.182L160.541 342H157.063L153.637 334.381L147.654 342H144.177L152.052 332.182L147.45 322.364H150.927Z" fill="black"/>
<path d="M167 314L157 308.226V319.774L167 314ZM144 315H158V313H144V315Z" fill="black"/>
<path d="M353.679 84L354.02 82.0824L368.679 64.5256H356.79L357.173 62.1818H372.216L371.918 64.0994L357.216 81.6562H369.105L368.722 84H353.679Z" fill="black"/>
<path d="M376 55L366 49.2265V60.7735L376 55ZM353 56H367V54H353V56Z" fill="black"/>
<circle cx="330" cy="354" r="70" fill="#0E5E99" fill-opacity="0.4" stroke="#0E5E99" stroke-width="8"/>
<line x1="257" y1="354" x2="177" y2="354" stroke="#0E5E99" stroke-width="8"/>
<line x1="330" y1="281.003" x2="330" y2="107" stroke="#0E5E99" stroke-width="8"/>
<path d="M346.098 360H343.698L353.78 341.091H356.144L359.948 360H357.547L354.556 344.082H354.408L346.098 360ZM348.203 352.614H357.88L357.547 354.645H347.871L348.203 352.614Z" fill="black"/>
<path d="M309.5 227.298C307.895 227.298 306.528 226.862 305.398 225.988C304.269 225.107 303.406 223.832 302.81 222.163C302.213 220.487 301.915 218.463 301.915 216.091C301.915 213.733 302.213 211.719 302.81 210.05C303.413 208.374 304.28 207.096 305.409 206.215C306.545 205.327 307.909 204.884 309.5 204.884C311.091 204.884 312.451 205.327 313.58 206.215C314.717 207.096 315.583 208.374 316.18 210.05C316.783 211.719 317.085 213.733 317.085 216.091C317.085 218.463 316.787 220.487 316.19 222.163C315.594 223.832 314.731 225.107 313.602 225.988C312.472 226.862 311.105 227.298 309.5 227.298ZM309.5 224.955C311.091 224.955 312.327 224.187 313.207 222.653C314.088 221.119 314.528 218.932 314.528 216.091C314.528 214.202 314.326 212.593 313.921 211.265C313.523 209.937 312.948 208.925 312.195 208.229C311.45 207.533 310.551 207.185 309.5 207.185C307.923 207.185 306.691 207.962 305.803 209.518C304.915 211.066 304.472 213.257 304.472 216.091C304.472 217.98 304.67 219.585 305.068 220.906C305.466 222.227 306.038 223.232 306.783 223.921C307.536 224.61 308.442 224.955 309.5 224.955Z" fill="#0E5E99"/>
<path d="M357.956 475.182V497H355.314V477.952H355.186L349.86 481.489V478.804L355.314 475.182H357.956Z" fill="#F21C26"/>
<line x1="614.073" y1="496.132" x2="684.784" y2="425.421" stroke="#F21C26" stroke-width="8"/>
<path d="M826.205 425.421C787.153 464.474 723.836 464.474 684.784 425.421C645.732 386.369 645.732 323.052 684.784 284" stroke="#F21C26" stroke-width="8"/>
<path d="M756.363 34L744.816 54H767.91L756.363 34ZM758.363 354L758.363 52H754.363L754.363 354H758.363Z" fill="black"/>
<path d="M889.45 446.367L879.603 425.477L866.436 444.45L889.45 446.367ZM755.222 355.643L873.522 437.747L875.803 434.461L757.503 352.357L755.222 355.643Z" fill="black"/>
<path d="M541 480.96L564.093 480.751L552.365 460.856L541 480.96ZM755.347 352.277L555.49 470.096L557.522 473.542L757.378 355.723L755.347 352.277Z" fill="black"/>
<path d="M565.29 429.364L568.665 437.392L574.699 429.364H578.176L570.199 439.182L574.903 449H571.426L568 441.381L562.017 449H558.54L566.415 439.182L561.812 429.364H565.29Z" fill="black"/>
<path d="M581.363 421L571.363 415.226V426.774L581.363 421ZM558.363 422H572.363V420H558.363V422Z" fill="black"/>
<path d="M838.413 452.182H841.438L845.827 462.366H846.083L853.796 452.182H856.822L846.807 465.009L845.316 474H842.674L844.165 465.009L838.413 452.182Z" fill="black"/>
<path d="M859.363 445L849.363 439.226V450.774L859.363 445ZM836.363 446H850.363V444H836.363V446Z" fill="black"/>
<path d="M776.042 146L776.382 144.082L791.042 126.526H779.152L779.536 124.182H794.578L794.28 126.099L779.578 143.656H791.468L791.084 146H776.042Z" fill="black"/>
<path d="M798.363 117L788.363 111.226V122.774L798.363 117ZM775.363 118H789.363V116H775.363V118Z" fill="black"/>
<circle cx="756.363" cy="354" r="70" fill="#0E5E99" fill-opacity="0.4" stroke="#0E5E99" stroke-width="8"/>
<line x1="686" y1="354" x2="606" y2="354" stroke="#0E5E99" stroke-width="8"/>
<line x1="756.363" y1="281.003" x2="756.363" y2="107" stroke="#0E5E99" stroke-width="8"/>
<path d="M777.461 343H775.06L785.143 324.091H787.506L791.31 343H788.91L785.918 327.082H785.771L777.461 343ZM779.566 335.614H789.242L788.91 337.645H779.234L779.566 335.614Z" fill="black"/>
<path d="M734.863 209.298C733.257 209.298 731.89 208.862 730.761 207.988C729.632 207.107 728.769 205.832 728.172 204.163C727.576 202.487 727.277 200.463 727.277 198.091C727.277 195.733 727.576 193.719 728.172 192.05C728.776 190.374 729.642 189.096 730.772 188.215C731.908 187.327 733.272 186.884 734.863 186.884C736.453 186.884 737.814 187.327 738.943 188.215C740.079 189.096 740.946 190.374 741.542 192.05C742.146 193.719 742.448 195.733 742.448 198.091C742.448 200.463 742.149 202.487 741.553 204.163C740.956 205.832 740.093 207.107 738.964 207.988C737.835 208.862 736.468 209.298 734.863 209.298ZM734.863 206.955C736.453 206.955 737.689 206.187 738.57 204.653C739.451 203.119 739.891 200.932 739.891 198.091C739.891 196.202 739.689 194.593 739.284 193.265C738.886 191.937 738.311 190.925 737.558 190.229C736.812 189.533 735.914 189.185 734.863 189.185C733.286 189.185 732.054 189.962 731.166 191.518C730.278 193.066 729.834 195.257 729.834 198.091C729.834 199.98 730.033 201.585 730.431 202.906C730.828 204.227 731.4 205.232 732.146 205.921C732.899 206.61 733.804 206.955 734.863 206.955Z" fill="#0E5E99"/>
<path d="M690.319 470.182V492H687.677V472.952H687.549L682.222 476.489V473.804L687.677 470.182H690.319Z" fill="#F21C26"/>
</svg>
